M48
; DRILL file {KiCad (6.0.10)} date Mon Jan 30 13:49:29 2023
; FORMAT={-:-/ absolute / metric / decimal}
; #@! TF.CreationDate,2023-01-30T13:49:29-05:00
; #@! TF.GenerationSoftware,Kicad,Pcbnew,(6.0.10)
; #@! TF.FileFunction,Plated,1,4,PTH
FMAT,2
METRIC
; #@! TA.AperFunction,Plated,PTH,ViaDrill
T1C0.300
; #@! TA.AperFunction,Plated,PTH,ComponentDrill
T2C0.500
; #@! TA.AperFunction,Plated,PTH,ComponentDrill
T3C0.762
; #@! TA.AperFunction,Plated,PTH,ComponentDrill
T4C0.800
; #@! TA.AperFunction,Plated,PTH,ComponentDrill
T5C0.900
; #@! TA.AperFunction,Plated,PTH,ComponentDrill
T6C1.000
; #@! TA.AperFunction,Plated,PTH,ComponentDrill
T7C1.020
; #@! TA.AperFunction,Plated,PTH,ComponentDrill
T8C1.100
; #@! TA.AperFunction,Plated,PTH,ComponentDrill
T9C1.170
; #@! TA.AperFunction,Plated,PTH,ComponentDrill
T10C1.500
; #@! TA.AperFunction,Plated,PTH,ComponentDrill
T11C2.500
%
G90
G05
T1
X80.81Y-61.43
X91.948Y-68.58
X92.583Y-75.311
X98.044Y-69.85
X99.314Y-65.532
X127.0Y-66.04
X135.382Y-80.01
X135.382Y-85.09
X140.97Y-104.648
X140.97Y-105.664
X140.97Y-106.68
X161.544Y-105.664
T2
X74.325Y-54.554
X74.325Y-146.05
X74.874Y-53.228
X74.874Y-55.88
X74.874Y-144.724
X74.874Y-147.376
X76.2Y-52.679
X76.2Y-56.429
X76.2Y-144.175
X76.2Y-147.925
X77.526Y-53.228
X77.526Y-55.88
X77.526Y-144.724
X77.526Y-147.376
X78.075Y-54.554
X78.075Y-146.05
X91.44Y-99.06
X91.44Y-100.96
X165.765Y-54.61
X165.765Y-146.05
X166.314Y-53.284
X166.314Y-55.936
X166.314Y-144.724
X166.314Y-147.376
X167.64Y-52.735
X167.64Y-56.485
X167.64Y-144.175
X167.64Y-147.925
X168.966Y-53.284
X168.966Y-55.936
X168.966Y-144.724
X168.966Y-147.376
X169.515Y-54.61
X169.515Y-146.05
T3
X104.14Y-109.22
X104.14Y-111.76
X104.14Y-114.3
X104.14Y-116.84
X104.14Y-119.38
X104.14Y-121.92
X104.14Y-124.46
X104.14Y-127.0
X104.14Y-129.54
X104.14Y-132.08
X104.14Y-134.62
X104.14Y-137.16
X104.14Y-139.7
X104.14Y-142.24
X104.14Y-144.78
X104.14Y-147.32
X106.68Y-109.22
X106.68Y-111.76
X106.68Y-114.3
X106.68Y-116.84
X106.68Y-119.38
X106.68Y-121.92
X106.68Y-124.46
X106.68Y-127.0
X106.68Y-129.54
X106.68Y-132.08
X106.68Y-134.62
X106.68Y-137.16
X106.68Y-139.7
X106.68Y-142.24
X106.68Y-144.78
X106.68Y-147.32
X109.22Y-109.22
X109.22Y-111.76
X109.22Y-114.3
X109.22Y-116.84
X109.22Y-119.38
X109.22Y-121.92
X109.22Y-124.46
X109.22Y-127.0
X109.22Y-129.54
X109.22Y-132.08
X109.22Y-134.62
X109.22Y-137.16
X109.22Y-139.7
X109.22Y-142.24
X109.22Y-144.78
X109.22Y-147.32
X111.76Y-109.22
X111.76Y-111.76
X111.76Y-114.3
X111.76Y-116.84
X111.76Y-119.38
X111.76Y-121.92
X111.76Y-124.46
X111.76Y-127.0
X111.76Y-129.54
X111.76Y-132.08
X111.76Y-134.62
X111.76Y-137.16
X111.76Y-139.7
X111.76Y-142.24
X111.76Y-144.78
X111.76Y-147.32
X114.3Y-109.22
X114.3Y-111.76
X114.3Y-114.3
X114.3Y-116.84
X114.3Y-119.38
X114.3Y-121.92
X114.3Y-124.46
X114.3Y-127.0
X114.3Y-129.54
X114.3Y-132.08
X114.3Y-134.62
X114.3Y-137.16
X114.3Y-139.7
X114.3Y-142.24
X114.3Y-144.78
X114.3Y-147.32
X116.84Y-109.22
X116.84Y-111.76
X116.84Y-114.3
X116.84Y-116.84
X116.84Y-119.38
X116.84Y-121.92
X116.84Y-124.46
X116.84Y-127.0
X116.84Y-129.54
X116.84Y-132.08
X116.84Y-134.62
X116.84Y-137.16
X116.84Y-139.7
X116.84Y-142.24
X116.84Y-144.78
X116.84Y-147.32
X119.38Y-109.22
X119.38Y-111.76
X119.38Y-114.3
X119.38Y-116.84
X119.38Y-119.38
X119.38Y-121.92
X119.38Y-124.46
X119.38Y-127.0
X119.38Y-129.54
X119.38Y-132.08
X119.38Y-134.62
X119.38Y-137.16
X119.38Y-139.7
X119.38Y-142.24
X119.38Y-144.78
X119.38Y-147.32
X121.92Y-109.22
X121.92Y-111.76
X121.92Y-114.3
X121.92Y-116.84
X121.92Y-119.38
X121.92Y-121.92
X121.92Y-124.46
X121.92Y-127.0
X121.92Y-129.54
X121.92Y-132.08
X121.92Y-134.62
X121.92Y-137.16
X121.92Y-139.7
X121.92Y-142.24
X121.92Y-144.78
X121.92Y-147.32
X124.46Y-109.22
X124.46Y-111.76
X124.46Y-114.3
X124.46Y-116.84
X124.46Y-119.38
X124.46Y-121.92
X124.46Y-124.46
X124.46Y-127.0
X124.46Y-129.54
X124.46Y-132.08
X124.46Y-134.62
X124.46Y-137.16
X124.46Y-139.7
X124.46Y-142.24
X124.46Y-144.78
X124.46Y-147.32
X127.0Y-109.22
X127.0Y-111.76
X127.0Y-114.3
X127.0Y-116.84
X127.0Y-119.38
X127.0Y-121.92
X127.0Y-124.46
X127.0Y-127.0
X127.0Y-129.54
X127.0Y-132.08
X127.0Y-134.62
X127.0Y-137.16
X127.0Y-139.7
X127.0Y-142.24
X127.0Y-144.78
X127.0Y-147.32
X129.54Y-109.22
X129.54Y-111.76
X129.54Y-114.3
X129.54Y-116.84
X129.54Y-119.38
X129.54Y-121.92
X129.54Y-124.46
X129.54Y-127.0
X129.54Y-129.54
X129.54Y-132.08
X129.54Y-134.62
X129.54Y-137.16
X129.54Y-139.7
X129.54Y-142.24
X129.54Y-144.78
X129.54Y-147.32
X132.08Y-109.22
X132.08Y-111.76
X132.08Y-114.3
X132.08Y-116.84
X132.08Y-119.38
X132.08Y-121.92
X132.08Y-124.46
X132.08Y-127.0
X132.08Y-129.54
X132.08Y-132.08
X132.08Y-134.62
X132.08Y-137.16
X132.08Y-139.7
X132.08Y-142.24
X132.08Y-144.78
X132.08Y-147.32
X134.62Y-109.22
X134.62Y-111.76
X134.62Y-114.3
X134.62Y-116.84
X134.62Y-119.38
X134.62Y-121.92
X134.62Y-124.46
X134.62Y-127.0
X134.62Y-129.54
X134.62Y-132.08
X134.62Y-134.62
X134.62Y-137.16
X134.62Y-139.7
X134.62Y-142.24
X134.62Y-144.78
X134.62Y-147.32
X137.16Y-109.22
X137.16Y-111.76
X137.16Y-114.3
X137.16Y-116.84
X137.16Y-119.38
X137.16Y-121.92
X137.16Y-124.46
X137.16Y-127.0
X137.16Y-129.54
X137.16Y-132.08
X137.16Y-134.62
X137.16Y-137.16
X137.16Y-139.7
X137.16Y-142.24
X137.16Y-144.78
X137.16Y-147.32
X139.7Y-109.22
X139.7Y-111.76
X139.7Y-114.3
X139.7Y-116.84
X139.7Y-119.38
X139.7Y-121.92
X139.7Y-124.46
X139.7Y-127.0
X139.7Y-129.54
X139.7Y-132.08
X139.7Y-134.62
X139.7Y-137.16
X139.7Y-139.7
X139.7Y-142.24
X139.7Y-144.78
X139.7Y-147.32
X142.24Y-109.22
X142.24Y-111.76
X142.24Y-114.3
X142.24Y-116.84
X142.24Y-119.38
X142.24Y-121.92
X142.24Y-124.46
X142.24Y-127.0
X142.24Y-129.54
X142.24Y-132.08
X142.24Y-134.62
X142.24Y-137.16
X142.24Y-139.7
X142.24Y-142.24
X142.24Y-144.78
X142.24Y-147.32
X147.32Y-124.46
X147.32Y-134.62
T4
X91.44Y-88.9
X91.44Y-96.52
X93.98Y-88.9
X93.98Y-96.52
X96.52Y-88.9
X96.52Y-96.52
X99.06Y-88.9
X99.06Y-96.52
X147.32Y-127.0
X147.32Y-129.54
X147.32Y-132.08
X151.384Y-109.728
X153.924Y-109.728
X156.464Y-109.728
T5
X162.56Y-117.32
X162.56Y-119.86
X162.56Y-122.4
X162.56Y-127.0
X162.56Y-129.54
X162.56Y-134.62
X162.56Y-137.16
X162.56Y-139.7
T6
X83.82Y-89.862
X83.82Y-92.402
X83.82Y-94.942
X104.14Y-53.34
X104.14Y-55.88
X104.14Y-58.42
X104.14Y-60.96
X104.14Y-63.5
X104.14Y-66.04
X104.14Y-68.58
X104.14Y-71.12
X104.14Y-73.66
X104.14Y-76.2
X104.14Y-78.74
X104.14Y-81.28
X104.14Y-83.82
X104.14Y-86.36
X104.14Y-88.9
X104.14Y-91.44
X104.14Y-93.98
X104.14Y-96.52
X104.14Y-99.06
X104.14Y-101.6
X137.16Y-53.34
X137.16Y-55.88
X137.16Y-58.42
X137.16Y-60.96
X137.16Y-63.5
X137.16Y-66.04
X137.16Y-68.58
X137.16Y-71.12
X137.16Y-73.66
X137.16Y-76.2
X137.16Y-78.74
X137.16Y-81.28
X137.16Y-83.82
X137.16Y-86.36
X137.16Y-88.9
X137.16Y-91.44
X137.16Y-93.98
X137.16Y-96.52
X137.16Y-99.06
X137.16Y-101.6
X142.24Y-83.82
X142.24Y-86.36
X142.24Y-88.9
X142.24Y-91.44
X149.9Y-55.365
X149.9Y-69.865
X152.4Y-69.865
X154.9Y-55.365
X154.9Y-69.865
T7
X111.76Y-53.34
X111.76Y-55.88
X111.76Y-58.42
X111.76Y-60.96
X111.76Y-63.5
X111.76Y-66.04
X111.76Y-68.58
X111.76Y-71.12
X111.76Y-73.66
X111.76Y-76.2
X111.76Y-78.74
X111.76Y-81.28
X111.76Y-83.82
X111.76Y-86.36
X111.76Y-88.9
X111.76Y-91.44
X111.76Y-93.98
X111.76Y-96.52
X111.76Y-99.06
X111.76Y-101.6
X118.11Y-101.37
X120.65Y-101.37
X123.19Y-101.37
X129.54Y-53.34
X129.54Y-55.88
X129.54Y-58.42
X129.54Y-60.96
X129.54Y-63.5
X129.54Y-66.04
X129.54Y-68.58
X129.54Y-71.12
X129.54Y-73.66
X129.54Y-76.2
X129.54Y-78.74
X129.54Y-81.28
X129.54Y-83.82
X129.54Y-86.36
X129.54Y-88.9
X129.54Y-91.44
X129.54Y-93.98
X129.54Y-96.52
X129.54Y-99.06
X129.54Y-101.6
T8
X80.3Y-78.03
X80.3Y-84.53
X84.8Y-78.03
X84.8Y-84.53
X93.635Y-78.03
X93.635Y-84.53
X98.135Y-78.03
X98.135Y-84.53
T9
X88.265Y-126.205
T10
X88.265Y-106.205
T11
X76.2Y-54.554
X76.2Y-146.05
X167.64Y-54.61
X167.64Y-146.05
T10
X146.8Y-63.015G85X146.8Y-61.715
G05
X158.0Y-63.015G85X158.0Y-61.715
G05
T0
M30
