G04 #@! TF.GenerationSoftware,KiCad,Pcbnew,(6.0.10)*
G04 #@! TF.CreationDate,2023-01-30T13:48:55-05:00*
G04 #@! TF.ProjectId,door_counter_circuit,646f6f72-5f63-46f7-956e-7465725f6369,rev?*
G04 #@! TF.SameCoordinates,Original*
G04 #@! TF.FileFunction,Soldermask,Bot*
G04 #@! TF.FilePolarity,Negative*
%FSLAX46Y46*%
G04 Gerber Fmt 4.6, Leading zero omitted, Abs format (unit mm)*
G04 Created by KiCad (PCBNEW (6.0.10)) date 2023-01-30 13:48:55*
%MOMM*%
%LPD*%
G01*
G04 APERTURE LIST*
G04 Aperture macros list*
%AMRoundRect*
0 Rectangle with rounded corners*
0 $1 Rounding radius*
0 $2 $3 $4 $5 $6 $7 $8 $9 X,Y pos of 4 corners*
0 Add a 4 corners polygon primitive as box body*
4,1,4,$2,$3,$4,$5,$6,$7,$8,$9,$2,$3,0*
0 Add four circle primitives for the rounded corners*
1,1,$1+$1,$2,$3*
1,1,$1+$1,$4,$5*
1,1,$1+$1,$6,$7*
1,1,$1+$1,$8,$9*
0 Add four rect primitives between the rounded corners*
20,1,$1+$1,$2,$3,$4,$5,0*
20,1,$1+$1,$4,$5,$6,$7,0*
20,1,$1+$1,$6,$7,$8,$9,0*
20,1,$1+$1,$8,$9,$2,$3,0*%
G04 Aperture macros list end*
%ADD10C,0.999997*%
%ADD11C,2.250000*%
%ADD12C,1.755000*%
%ADD13C,5.000000*%
%ADD14C,0.800000*%
%ADD15RoundRect,0.248400X0.651600X-0.651600X0.651600X0.651600X-0.651600X0.651600X-0.651600X-0.651600X0*%
%ADD16C,1.800000*%
%ADD17C,2.000000*%
%ADD18R,1.700000X1.700000*%
%ADD19O,1.700000X1.700000*%
%ADD20R,1.500000X1.500000*%
%ADD21C,1.500000*%
%ADD22C,1.524000*%
%ADD23C,1.000000*%
%ADD24R,1.600000X1.600000*%
%ADD25O,1.600000X1.600000*%
%ADD26R,1.800000X1.800000*%
%ADD27O,1.500000X1.500000*%
%ADD28O,1.800000X1.800000*%
%ADD29C,1.440000*%
%ADD30R,2.000000X2.000000*%
%ADD31R,2.000000X3.200000*%
G04 APERTURE END LIST*
D10*
X93649800Y-55580400D03*
X85674200Y-55580400D03*
D11*
X88265000Y-106205000D03*
D12*
X88265000Y-126205000D03*
D13*
X167640000Y-54610000D03*
D14*
X169515000Y-54610000D03*
X165765000Y-54610000D03*
X166314175Y-55935825D03*
X167640000Y-52735000D03*
X168965825Y-53284175D03*
X166314175Y-53284175D03*
X168965825Y-55935825D03*
X167640000Y-56485000D03*
X167640000Y-144175000D03*
X166314175Y-144724175D03*
X168965825Y-147375825D03*
X165765000Y-146050000D03*
D13*
X167640000Y-146050000D03*
D14*
X166314175Y-147375825D03*
X167640000Y-147925000D03*
X168965825Y-144724175D03*
X169515000Y-146050000D03*
D15*
X162560000Y-122400000D03*
D16*
X162560000Y-119860000D03*
X162560000Y-117320000D03*
D17*
X93635000Y-84530000D03*
X93635000Y-78030000D03*
X98135000Y-78030000D03*
X98135000Y-84530000D03*
D18*
X83820000Y-94942500D03*
D19*
X83820000Y-92402500D03*
X83820000Y-89862500D03*
D18*
X104140000Y-53340000D03*
D19*
X104140000Y-55880000D03*
X104140000Y-58420000D03*
X104140000Y-60960000D03*
X104140000Y-63500000D03*
X104140000Y-66040000D03*
X104140000Y-68580000D03*
X104140000Y-71120000D03*
X104140000Y-73660000D03*
X104140000Y-76200000D03*
X104140000Y-78740000D03*
X104140000Y-81280000D03*
X104140000Y-83820000D03*
X104140000Y-86360000D03*
X104140000Y-88900000D03*
X104140000Y-91440000D03*
X104140000Y-93980000D03*
X104140000Y-96520000D03*
X104140000Y-99060000D03*
X104140000Y-101600000D03*
D20*
X147320000Y-132080000D03*
D21*
X147320000Y-129540000D03*
X147320000Y-127000000D03*
D22*
X147320000Y-124460000D03*
X147320000Y-134620000D03*
D18*
X137160000Y-101600000D03*
D19*
X137160000Y-99060000D03*
X137160000Y-96520000D03*
X137160000Y-93980000D03*
X137160000Y-91440000D03*
X137160000Y-88900000D03*
X137160000Y-86360000D03*
X137160000Y-83820000D03*
X137160000Y-81280000D03*
X137160000Y-78740000D03*
X137160000Y-76200000D03*
X137160000Y-73660000D03*
X137160000Y-71120000D03*
X137160000Y-68580000D03*
X137160000Y-66040000D03*
X137160000Y-63500000D03*
X137160000Y-60960000D03*
X137160000Y-58420000D03*
X137160000Y-55880000D03*
X137160000Y-53340000D03*
D13*
X76200000Y-146050000D03*
D14*
X74874175Y-144724175D03*
X78075000Y-146050000D03*
X74874175Y-147375825D03*
X74325000Y-146050000D03*
X77525825Y-144724175D03*
X76200000Y-144175000D03*
X77525825Y-147375825D03*
X76200000Y-147925000D03*
D23*
X91440000Y-100960000D03*
X91440000Y-99060000D03*
D22*
X104140000Y-147320000D03*
X106680000Y-147320000D03*
X109220000Y-147320000D03*
X111760000Y-147320000D03*
X114300000Y-147320000D03*
X116840000Y-147320000D03*
X119380000Y-147320000D03*
X121920000Y-147320000D03*
X124460000Y-147320000D03*
X127000000Y-147320000D03*
X129540000Y-147320000D03*
X132080000Y-147320000D03*
X134620000Y-147320000D03*
X137160000Y-147320000D03*
X139700000Y-147320000D03*
X142240000Y-147320000D03*
X104140000Y-144780000D03*
X106680000Y-144780000D03*
X109220000Y-144780000D03*
X111760000Y-144780000D03*
X114300000Y-144780000D03*
X116840000Y-144780000D03*
X119380000Y-144780000D03*
X121920000Y-144780000D03*
X124460000Y-144780000D03*
X127000000Y-144780000D03*
X129540000Y-144780000D03*
X132080000Y-144780000D03*
X134620000Y-144780000D03*
X137160000Y-144780000D03*
X139700000Y-144780000D03*
X142240000Y-144780000D03*
X104140000Y-142240000D03*
X106680000Y-142240000D03*
X109220000Y-142240000D03*
X111760000Y-142240000D03*
X114300000Y-142240000D03*
X116840000Y-142240000D03*
X119380000Y-142240000D03*
X121920000Y-142240000D03*
X124460000Y-142240000D03*
X127000000Y-142240000D03*
X129540000Y-142240000D03*
X132080000Y-142240000D03*
X134620000Y-142240000D03*
X137160000Y-142240000D03*
X139700000Y-142240000D03*
X142240000Y-142240000D03*
X104140000Y-139700000D03*
X106680000Y-139700000D03*
X109220000Y-139700000D03*
X111760000Y-139700000D03*
X114300000Y-139700000D03*
X116840000Y-139700000D03*
X119380000Y-139700000D03*
X121920000Y-139700000D03*
X124460000Y-139700000D03*
X127000000Y-139700000D03*
X129540000Y-139700000D03*
X132080000Y-139700000D03*
X134620000Y-139700000D03*
X137160000Y-139700000D03*
X139700000Y-139700000D03*
X142240000Y-139700000D03*
X104140000Y-137160000D03*
X106680000Y-137160000D03*
X109220000Y-137160000D03*
X111760000Y-137160000D03*
X114300000Y-137160000D03*
X116840000Y-137160000D03*
X119380000Y-137160000D03*
X121920000Y-137160000D03*
X124460000Y-137160000D03*
X127000000Y-137160000D03*
X129540000Y-137160000D03*
X132080000Y-137160000D03*
X134620000Y-137160000D03*
X137160000Y-137160000D03*
X139700000Y-137160000D03*
X142240000Y-137160000D03*
X104140000Y-134620000D03*
X106680000Y-134620000D03*
X109220000Y-134620000D03*
X111760000Y-134620000D03*
X114300000Y-134620000D03*
X116840000Y-134620000D03*
X119380000Y-134620000D03*
X121920000Y-134620000D03*
X124460000Y-134620000D03*
X127000000Y-134620000D03*
X129540000Y-134620000D03*
X132080000Y-134620000D03*
X134620000Y-134620000D03*
X137160000Y-134620000D03*
X139700000Y-134620000D03*
X142240000Y-134620000D03*
X104140000Y-132080000D03*
X106680000Y-132080000D03*
X109220000Y-132080000D03*
X111760000Y-132080000D03*
X114300000Y-132080000D03*
X116840000Y-132080000D03*
X119380000Y-132080000D03*
X121920000Y-132080000D03*
X124460000Y-132080000D03*
X127000000Y-132080000D03*
X129540000Y-132080000D03*
X132080000Y-132080000D03*
X134620000Y-132080000D03*
X137160000Y-132080000D03*
X139700000Y-132080000D03*
X142240000Y-132080000D03*
X104140000Y-129540000D03*
X106680000Y-129540000D03*
X109220000Y-129540000D03*
X111760000Y-129540000D03*
X114300000Y-129540000D03*
X116840000Y-129540000D03*
X119380000Y-129540000D03*
X121920000Y-129540000D03*
X124460000Y-129540000D03*
X127000000Y-129540000D03*
X129540000Y-129540000D03*
X132080000Y-129540000D03*
X134620000Y-129540000D03*
X137160000Y-129540000D03*
X139700000Y-129540000D03*
X142240000Y-129540000D03*
X104140000Y-127000000D03*
X106680000Y-127000000D03*
X109220000Y-127000000D03*
X111760000Y-127000000D03*
X114300000Y-127000000D03*
X116840000Y-127000000D03*
X119380000Y-127000000D03*
X121920000Y-127000000D03*
X124460000Y-127000000D03*
X127000000Y-127000000D03*
X129540000Y-127000000D03*
X132080000Y-127000000D03*
X134620000Y-127000000D03*
X137160000Y-127000000D03*
X139700000Y-127000000D03*
X142240000Y-127000000D03*
X104140000Y-124460000D03*
X106680000Y-124460000D03*
X109220000Y-124460000D03*
X111760000Y-124460000D03*
X114300000Y-124460000D03*
X116840000Y-124460000D03*
X119380000Y-124460000D03*
X121920000Y-124460000D03*
X124460000Y-124460000D03*
X127000000Y-124460000D03*
X129540000Y-124460000D03*
X132080000Y-124460000D03*
X134620000Y-124460000D03*
X137160000Y-124460000D03*
X139700000Y-124460000D03*
X142240000Y-124460000D03*
X104140000Y-121920000D03*
X106680000Y-121920000D03*
X109220000Y-121920000D03*
X111760000Y-121920000D03*
X114300000Y-121920000D03*
X116840000Y-121920000D03*
X119380000Y-121920000D03*
X121920000Y-121920000D03*
X124460000Y-121920000D03*
X127000000Y-121920000D03*
X129540000Y-121920000D03*
X132080000Y-121920000D03*
X134620000Y-121920000D03*
X137160000Y-121920000D03*
X139700000Y-121920000D03*
X142240000Y-121920000D03*
X104140000Y-119380000D03*
X106680000Y-119380000D03*
X109220000Y-119380000D03*
X111760000Y-119380000D03*
X114300000Y-119380000D03*
X116840000Y-119380000D03*
X119380000Y-119380000D03*
X121920000Y-119380000D03*
X124460000Y-119380000D03*
X127000000Y-119380000D03*
X129540000Y-119380000D03*
X132080000Y-119380000D03*
X134620000Y-119380000D03*
X137160000Y-119380000D03*
X139700000Y-119380000D03*
X142240000Y-119380000D03*
X104140000Y-116840000D03*
X106680000Y-116840000D03*
X109220000Y-116840000D03*
X111760000Y-116840000D03*
X114300000Y-116840000D03*
X116840000Y-116840000D03*
X119380000Y-116840000D03*
X121920000Y-116840000D03*
X124460000Y-116840000D03*
X127000000Y-116840000D03*
X129540000Y-116840000D03*
X132080000Y-116840000D03*
X134620000Y-116840000D03*
X137160000Y-116840000D03*
X139700000Y-116840000D03*
X142240000Y-116840000D03*
X104140000Y-114300000D03*
X106680000Y-114300000D03*
X109220000Y-114300000D03*
X111760000Y-114300000D03*
X114300000Y-114300000D03*
X116840000Y-114300000D03*
X119380000Y-114300000D03*
X121920000Y-114300000D03*
X124460000Y-114300000D03*
X127000000Y-114300000D03*
X129540000Y-114300000D03*
X132080000Y-114300000D03*
X134620000Y-114300000D03*
X137160000Y-114300000D03*
X139700000Y-114300000D03*
X142240000Y-114300000D03*
X104140000Y-111760000D03*
X106680000Y-111760000D03*
X109220000Y-111760000D03*
X111760000Y-111760000D03*
X114300000Y-111760000D03*
X116840000Y-111760000D03*
X119380000Y-111760000D03*
X121920000Y-111760000D03*
X124460000Y-111760000D03*
X127000000Y-111760000D03*
X129540000Y-111760000D03*
X132080000Y-111760000D03*
X134620000Y-111760000D03*
X137160000Y-111760000D03*
X139700000Y-111760000D03*
X142240000Y-111760000D03*
X104140000Y-109220000D03*
X106680000Y-109220000D03*
X109220000Y-109220000D03*
X111760000Y-109220000D03*
X114300000Y-109220000D03*
X116840000Y-109220000D03*
X119380000Y-109220000D03*
X121920000Y-109220000D03*
X124460000Y-109220000D03*
X127000000Y-109220000D03*
X129540000Y-109220000D03*
X132080000Y-109220000D03*
X134620000Y-109220000D03*
X137160000Y-109220000D03*
X139700000Y-109220000D03*
X142240000Y-109220000D03*
D19*
X142240000Y-83820000D03*
X142240000Y-86360000D03*
X142240000Y-88900000D03*
D18*
X142240000Y-91440000D03*
D24*
X91440000Y-96520000D03*
D25*
X93980000Y-96520000D03*
X96520000Y-96520000D03*
X99060000Y-96520000D03*
X99060000Y-88900000D03*
X96520000Y-88900000D03*
X93980000Y-88900000D03*
X91440000Y-88900000D03*
D14*
X76200000Y-56429175D03*
D13*
X76200000Y-54554175D03*
D14*
X76200000Y-52679175D03*
X74325000Y-54554175D03*
X77525825Y-55880000D03*
X74874175Y-55880000D03*
X78075000Y-54554175D03*
X77525825Y-53228350D03*
X74874175Y-53228350D03*
D15*
X162560000Y-139700000D03*
D16*
X162560000Y-137160000D03*
X162560000Y-134620000D03*
D26*
X162560000Y-129540000D03*
D16*
X162560000Y-127000000D03*
D27*
X118225000Y-56500000D03*
D28*
X117925000Y-53470000D03*
D27*
X123075000Y-56500000D03*
D28*
X123375000Y-53470000D03*
D19*
X111760000Y-53340000D03*
X111760000Y-55880000D03*
D18*
X111760000Y-58420000D03*
D19*
X111760000Y-60960000D03*
X111760000Y-63500000D03*
X111760000Y-66040000D03*
X111760000Y-68580000D03*
D18*
X111760000Y-71120000D03*
D19*
X111760000Y-73660000D03*
X111760000Y-76200000D03*
X111760000Y-78740000D03*
X111760000Y-81280000D03*
D18*
X111760000Y-83820000D03*
D19*
X111760000Y-86360000D03*
X111760000Y-88900000D03*
X111760000Y-91440000D03*
X111760000Y-93980000D03*
D18*
X111760000Y-96520000D03*
D19*
X111760000Y-99060000D03*
X111760000Y-101600000D03*
X129540000Y-101600000D03*
X129540000Y-99060000D03*
D18*
X129540000Y-96520000D03*
D19*
X129540000Y-93980000D03*
X129540000Y-91440000D03*
X129540000Y-88900000D03*
X129540000Y-86360000D03*
D18*
X129540000Y-83820000D03*
D19*
X129540000Y-81280000D03*
X129540000Y-78740000D03*
X129540000Y-76200000D03*
X129540000Y-73660000D03*
D18*
X129540000Y-71120000D03*
D19*
X129540000Y-68580000D03*
X129540000Y-66040000D03*
X129540000Y-63500000D03*
X129540000Y-60960000D03*
D18*
X129540000Y-58420000D03*
D19*
X129540000Y-55880000D03*
X129540000Y-53340000D03*
X118110000Y-101370000D03*
D18*
X120650000Y-101370000D03*
D19*
X123190000Y-101370000D03*
D29*
X156464000Y-109728000D03*
X153924000Y-109728000D03*
X151384000Y-109728000D03*
D30*
X149900000Y-69865000D03*
D17*
X154900000Y-69865000D03*
X152400000Y-69865000D03*
D31*
X158000000Y-62365000D03*
X146800000Y-62365000D03*
D17*
X154900000Y-55365000D03*
X149900000Y-55365000D03*
X84800000Y-84530000D03*
X84800000Y-78030000D03*
X80300000Y-84530000D03*
X80300000Y-78030000D03*
M02*
