%TF.GenerationSoftware,KiCad,Pcbnew,(6.0.10)*%
%TF.CreationDate,2023-01-30T13:49:40-05:00*%
%TF.ProjectId,door_counter_circuit,646f6f72-5f63-46f7-956e-7465725f6369,rev?*%
%TF.SameCoordinates,Original*%
%TF.FileFunction,Drillmap*%
%TF.FilePolarity,Positive*%
%FSLAX45Y45*%
G04 Gerber Fmt 4.5, Leading zero omitted, Abs format (unit mm)*
G04 Created by KiCad (PCBNEW (6.0.10)) date 2023-01-30 13:49:40*
%MOMM*%
%LPD*%
G01*
G04 APERTURE LIST*
%ADD10C,0.038100*%
%ADD11C,0.200000*%
%ADD12C,0.099999*%
%ADD13C,0.150000*%
%ADD14C,0.180000*%
G04 APERTURE END LIST*
D10*
X16764000Y-14986000D02*
X7620000Y-14986000D01*
X17145000Y-5461000D02*
G75*
G03*
X16764000Y-5080000I-381000J0D01*
G01*
X17145000Y-5461000D02*
X17145000Y-14605000D01*
X7239000Y-14605000D02*
X7239000Y-5461000D01*
X16764000Y-14986000D02*
G75*
G03*
X17145000Y-14605000I0J381000D01*
G01*
X7239000Y-14605000D02*
G75*
G03*
X7620000Y-14986000I381000J0D01*
G01*
X7620000Y-5080000D02*
X16764000Y-5080000D01*
X7620000Y-5080000D02*
G75*
G03*
X7239000Y-5461000I0J-381000D01*
G01*
D11*
D12*
X8517420Y-5508040D02*
X8617420Y-5608040D01*
X8617420Y-5508040D02*
X8517420Y-5608040D01*
X9314980Y-5508040D02*
X9414980Y-5608040D01*
X9414980Y-5508040D02*
X9314980Y-5608040D01*
D13*
X11897500Y-5650000D02*
G75*
G03*
X11897500Y-5650000I-75000J0D01*
G01*
X12382500Y-5650000D02*
G75*
G03*
X12382500Y-5650000I-75000J0D01*
G01*
D14*
X11792500Y-5257000D02*
X11792500Y-5437000D01*
X11702500Y-5347000D02*
X11882500Y-5347000D01*
X12337500Y-5257000D02*
X12337500Y-5437000D01*
X12247500Y-5347000D02*
X12427500Y-5347000D01*
D11*
X7494714Y-15298381D02*
X7494714Y-15098381D01*
X7542333Y-15098381D01*
X7570904Y-15107905D01*
X7589952Y-15126953D01*
X7599476Y-15146000D01*
X7609000Y-15184095D01*
X7609000Y-15212667D01*
X7599476Y-15250762D01*
X7589952Y-15269810D01*
X7570904Y-15288857D01*
X7542333Y-15298381D01*
X7494714Y-15298381D01*
X7694714Y-15298381D02*
X7694714Y-15165048D01*
X7694714Y-15203143D02*
X7704238Y-15184095D01*
X7713762Y-15174572D01*
X7732809Y-15165048D01*
X7751857Y-15165048D01*
X7818523Y-15298381D02*
X7818523Y-15165048D01*
X7818523Y-15098381D02*
X7809000Y-15107905D01*
X7818523Y-15117429D01*
X7828047Y-15107905D01*
X7818523Y-15098381D01*
X7818523Y-15117429D01*
X7942333Y-15298381D02*
X7923285Y-15288857D01*
X7913762Y-15269810D01*
X7913762Y-15098381D01*
X8047095Y-15298381D02*
X8028047Y-15288857D01*
X8018523Y-15269810D01*
X8018523Y-15098381D01*
X8275666Y-15298381D02*
X8275666Y-15098381D01*
X8342333Y-15241238D01*
X8409000Y-15098381D01*
X8409000Y-15298381D01*
X8589952Y-15298381D02*
X8589952Y-15193619D01*
X8580428Y-15174572D01*
X8561381Y-15165048D01*
X8523285Y-15165048D01*
X8504238Y-15174572D01*
X8589952Y-15288857D02*
X8570905Y-15298381D01*
X8523285Y-15298381D01*
X8504238Y-15288857D01*
X8494714Y-15269810D01*
X8494714Y-15250762D01*
X8504238Y-15231714D01*
X8523285Y-15222191D01*
X8570905Y-15222191D01*
X8589952Y-15212667D01*
X8685190Y-15165048D02*
X8685190Y-15365048D01*
X8685190Y-15174572D02*
X8704238Y-15165048D01*
X8742333Y-15165048D01*
X8761381Y-15174572D01*
X8770905Y-15184095D01*
X8780428Y-15203143D01*
X8780428Y-15260286D01*
X8770905Y-15279333D01*
X8761381Y-15288857D01*
X8742333Y-15298381D01*
X8704238Y-15298381D01*
X8685190Y-15288857D01*
X8866143Y-15279333D02*
X8875666Y-15288857D01*
X8866143Y-15298381D01*
X8856619Y-15288857D01*
X8866143Y-15279333D01*
X8866143Y-15298381D01*
X8866143Y-15174572D02*
X8875666Y-15184095D01*
X8866143Y-15193619D01*
X8856619Y-15184095D01*
X8866143Y-15174572D01*
X8866143Y-15193619D01*
D12*
X7137095Y-15577905D02*
X7237095Y-15677905D01*
X7237095Y-15577905D02*
X7137095Y-15677905D01*
D11*
X7599476Y-15718381D02*
X7485190Y-15718381D01*
X7542333Y-15718381D02*
X7542333Y-15518381D01*
X7523285Y-15546953D01*
X7504238Y-15566000D01*
X7485190Y-15575524D01*
X7685190Y-15699333D02*
X7694714Y-15708857D01*
X7685190Y-15718381D01*
X7675666Y-15708857D01*
X7685190Y-15699333D01*
X7685190Y-15718381D01*
X7818523Y-15518381D02*
X7837571Y-15518381D01*
X7856619Y-15527905D01*
X7866143Y-15537429D01*
X7875666Y-15556476D01*
X7885190Y-15594572D01*
X7885190Y-15642191D01*
X7875666Y-15680286D01*
X7866143Y-15699333D01*
X7856619Y-15708857D01*
X7837571Y-15718381D01*
X7818523Y-15718381D01*
X7799476Y-15708857D01*
X7789952Y-15699333D01*
X7780428Y-15680286D01*
X7770904Y-15642191D01*
X7770904Y-15594572D01*
X7780428Y-15556476D01*
X7789952Y-15537429D01*
X7799476Y-15527905D01*
X7818523Y-15518381D01*
X8009000Y-15518381D02*
X8028047Y-15518381D01*
X8047095Y-15527905D01*
X8056619Y-15537429D01*
X8066143Y-15556476D01*
X8075666Y-15594572D01*
X8075666Y-15642191D01*
X8066143Y-15680286D01*
X8056619Y-15699333D01*
X8047095Y-15708857D01*
X8028047Y-15718381D01*
X8009000Y-15718381D01*
X7989952Y-15708857D01*
X7980428Y-15699333D01*
X7970904Y-15680286D01*
X7961381Y-15642191D01*
X7961381Y-15594572D01*
X7970904Y-15556476D01*
X7980428Y-15537429D01*
X7989952Y-15527905D01*
X8009000Y-15518381D01*
X8199476Y-15518381D02*
X8218523Y-15518381D01*
X8237571Y-15527905D01*
X8247095Y-15537429D01*
X8256619Y-15556476D01*
X8266143Y-15594572D01*
X8266143Y-15642191D01*
X8256619Y-15680286D01*
X8247095Y-15699333D01*
X8237571Y-15708857D01*
X8218523Y-15718381D01*
X8199476Y-15718381D01*
X8180428Y-15708857D01*
X8170904Y-15699333D01*
X8161381Y-15680286D01*
X8151857Y-15642191D01*
X8151857Y-15594572D01*
X8161381Y-15556476D01*
X8170904Y-15537429D01*
X8180428Y-15527905D01*
X8199476Y-15518381D01*
X8351857Y-15718381D02*
X8351857Y-15585048D01*
X8351857Y-15604095D02*
X8361381Y-15594572D01*
X8380428Y-15585048D01*
X8409000Y-15585048D01*
X8428047Y-15594572D01*
X8437571Y-15613619D01*
X8437571Y-15718381D01*
X8437571Y-15613619D02*
X8447095Y-15594572D01*
X8466143Y-15585048D01*
X8494714Y-15585048D01*
X8513762Y-15594572D01*
X8523285Y-15613619D01*
X8523285Y-15718381D01*
X8618524Y-15718381D02*
X8618524Y-15585048D01*
X8618524Y-15604095D02*
X8628047Y-15594572D01*
X8647095Y-15585048D01*
X8675666Y-15585048D01*
X8694714Y-15594572D01*
X8704238Y-15613619D01*
X8704238Y-15718381D01*
X8704238Y-15613619D02*
X8713762Y-15594572D01*
X8732809Y-15585048D01*
X8761381Y-15585048D01*
X8780428Y-15594572D01*
X8789952Y-15613619D01*
X8789952Y-15718381D01*
X9180428Y-15508857D02*
X9009000Y-15766000D01*
X9437571Y-15518381D02*
X9456619Y-15518381D01*
X9475666Y-15527905D01*
X9485190Y-15537429D01*
X9494714Y-15556476D01*
X9504238Y-15594572D01*
X9504238Y-15642191D01*
X9494714Y-15680286D01*
X9485190Y-15699333D01*
X9475666Y-15708857D01*
X9456619Y-15718381D01*
X9437571Y-15718381D01*
X9418524Y-15708857D01*
X9409000Y-15699333D01*
X9399476Y-15680286D01*
X9389952Y-15642191D01*
X9389952Y-15594572D01*
X9399476Y-15556476D01*
X9409000Y-15537429D01*
X9418524Y-15527905D01*
X9437571Y-15518381D01*
X9589952Y-15699333D02*
X9599476Y-15708857D01*
X9589952Y-15718381D01*
X9580428Y-15708857D01*
X9589952Y-15699333D01*
X9589952Y-15718381D01*
X9723285Y-15518381D02*
X9742333Y-15518381D01*
X9761381Y-15527905D01*
X9770905Y-15537429D01*
X9780428Y-15556476D01*
X9789952Y-15594572D01*
X9789952Y-15642191D01*
X9780428Y-15680286D01*
X9770905Y-15699333D01*
X9761381Y-15708857D01*
X9742333Y-15718381D01*
X9723285Y-15718381D01*
X9704238Y-15708857D01*
X9694714Y-15699333D01*
X9685190Y-15680286D01*
X9675666Y-15642191D01*
X9675666Y-15594572D01*
X9685190Y-15556476D01*
X9694714Y-15537429D01*
X9704238Y-15527905D01*
X9723285Y-15518381D01*
X9856619Y-15518381D02*
X9980428Y-15518381D01*
X9913762Y-15594572D01*
X9942333Y-15594572D01*
X9961381Y-15604095D01*
X9970905Y-15613619D01*
X9980428Y-15632667D01*
X9980428Y-15680286D01*
X9970905Y-15699333D01*
X9961381Y-15708857D01*
X9942333Y-15718381D01*
X9885190Y-15718381D01*
X9866143Y-15708857D01*
X9856619Y-15699333D01*
X10075666Y-15718381D02*
X10113762Y-15718381D01*
X10132809Y-15708857D01*
X10142333Y-15699333D01*
X10161381Y-15670762D01*
X10170905Y-15632667D01*
X10170905Y-15556476D01*
X10161381Y-15537429D01*
X10151857Y-15527905D01*
X10132809Y-15518381D01*
X10094714Y-15518381D01*
X10075666Y-15527905D01*
X10066143Y-15537429D01*
X10056619Y-15556476D01*
X10056619Y-15604095D01*
X10066143Y-15623143D01*
X10075666Y-15632667D01*
X10094714Y-15642191D01*
X10132809Y-15642191D01*
X10151857Y-15632667D01*
X10161381Y-15623143D01*
X10170905Y-15604095D01*
X10342333Y-15585048D02*
X10342333Y-15718381D01*
X10294714Y-15508857D02*
X10247095Y-15651714D01*
X10370905Y-15651714D01*
X10437571Y-15518381D02*
X10437571Y-15556476D01*
X10513762Y-15518381D02*
X10513762Y-15556476D01*
X10809000Y-15794572D02*
X10799476Y-15785048D01*
X10780428Y-15756476D01*
X10770905Y-15737429D01*
X10761381Y-15708857D01*
X10751857Y-15661238D01*
X10751857Y-15623143D01*
X10761381Y-15575524D01*
X10770905Y-15546953D01*
X10780428Y-15527905D01*
X10799476Y-15499333D01*
X10809000Y-15489810D01*
X10875666Y-15537429D02*
X10885190Y-15527905D01*
X10904238Y-15518381D01*
X10951857Y-15518381D01*
X10970905Y-15527905D01*
X10980428Y-15537429D01*
X10989952Y-15556476D01*
X10989952Y-15575524D01*
X10980428Y-15604095D01*
X10866143Y-15718381D01*
X10989952Y-15718381D01*
X11228047Y-15718381D02*
X11228047Y-15518381D01*
X11313762Y-15718381D02*
X11313762Y-15613619D01*
X11304238Y-15594572D01*
X11285190Y-15585048D01*
X11256619Y-15585048D01*
X11237571Y-15594572D01*
X11228047Y-15604095D01*
X11437571Y-15718381D02*
X11418523Y-15708857D01*
X11409000Y-15699333D01*
X11399476Y-15680286D01*
X11399476Y-15623143D01*
X11409000Y-15604095D01*
X11418523Y-15594572D01*
X11437571Y-15585048D01*
X11466143Y-15585048D01*
X11485190Y-15594572D01*
X11494714Y-15604095D01*
X11504238Y-15623143D01*
X11504238Y-15680286D01*
X11494714Y-15699333D01*
X11485190Y-15708857D01*
X11466143Y-15718381D01*
X11437571Y-15718381D01*
X11618523Y-15718381D02*
X11599476Y-15708857D01*
X11589952Y-15689810D01*
X11589952Y-15518381D01*
X11770904Y-15708857D02*
X11751857Y-15718381D01*
X11713762Y-15718381D01*
X11694714Y-15708857D01*
X11685190Y-15689810D01*
X11685190Y-15613619D01*
X11694714Y-15594572D01*
X11713762Y-15585048D01*
X11751857Y-15585048D01*
X11770904Y-15594572D01*
X11780428Y-15613619D01*
X11780428Y-15632667D01*
X11685190Y-15651714D01*
X11856619Y-15708857D02*
X11875666Y-15718381D01*
X11913762Y-15718381D01*
X11932809Y-15708857D01*
X11942333Y-15689810D01*
X11942333Y-15680286D01*
X11932809Y-15661238D01*
X11913762Y-15651714D01*
X11885190Y-15651714D01*
X11866143Y-15642191D01*
X11856619Y-15623143D01*
X11856619Y-15613619D01*
X11866143Y-15594572D01*
X11885190Y-15585048D01*
X11913762Y-15585048D01*
X11932809Y-15594572D01*
X12009000Y-15794572D02*
X12018523Y-15785048D01*
X12037571Y-15756476D01*
X12047095Y-15737429D01*
X12056619Y-15708857D01*
X12066143Y-15661238D01*
X12066143Y-15623143D01*
X12056619Y-15575524D01*
X12047095Y-15546953D01*
X12037571Y-15527905D01*
X12018523Y-15499333D01*
X12009000Y-15489810D01*
X12370904Y-15794572D02*
X12361381Y-15785048D01*
X12342333Y-15756476D01*
X12332809Y-15737429D01*
X12323285Y-15708857D01*
X12313762Y-15661238D01*
X12313762Y-15623143D01*
X12323285Y-15575524D01*
X12332809Y-15546953D01*
X12342333Y-15527905D01*
X12361381Y-15499333D01*
X12370904Y-15489810D01*
X12447095Y-15585048D02*
X12447095Y-15718381D01*
X12447095Y-15604095D02*
X12456619Y-15594572D01*
X12475666Y-15585048D01*
X12504238Y-15585048D01*
X12523285Y-15594572D01*
X12532809Y-15613619D01*
X12532809Y-15718381D01*
X12656619Y-15718381D02*
X12637571Y-15708857D01*
X12628047Y-15699333D01*
X12618523Y-15680286D01*
X12618523Y-15623143D01*
X12628047Y-15604095D01*
X12637571Y-15594572D01*
X12656619Y-15585048D01*
X12685190Y-15585048D01*
X12704238Y-15594572D01*
X12713762Y-15604095D01*
X12723285Y-15623143D01*
X12723285Y-15680286D01*
X12713762Y-15699333D01*
X12704238Y-15708857D01*
X12685190Y-15718381D01*
X12656619Y-15718381D01*
X12780428Y-15585048D02*
X12856619Y-15585048D01*
X12809000Y-15518381D02*
X12809000Y-15689810D01*
X12818523Y-15708857D01*
X12837571Y-15718381D01*
X12856619Y-15718381D01*
X13075666Y-15585048D02*
X13075666Y-15785048D01*
X13075666Y-15594572D02*
X13094714Y-15585048D01*
X13132809Y-15585048D01*
X13151857Y-15594572D01*
X13161381Y-15604095D01*
X13170904Y-15623143D01*
X13170904Y-15680286D01*
X13161381Y-15699333D01*
X13151857Y-15708857D01*
X13132809Y-15718381D01*
X13094714Y-15718381D01*
X13075666Y-15708857D01*
X13285190Y-15718381D02*
X13266143Y-15708857D01*
X13256619Y-15689810D01*
X13256619Y-15518381D01*
X13447095Y-15718381D02*
X13447095Y-15613619D01*
X13437571Y-15594572D01*
X13418523Y-15585048D01*
X13380428Y-15585048D01*
X13361381Y-15594572D01*
X13447095Y-15708857D02*
X13428047Y-15718381D01*
X13380428Y-15718381D01*
X13361381Y-15708857D01*
X13351857Y-15689810D01*
X13351857Y-15670762D01*
X13361381Y-15651714D01*
X13380428Y-15642191D01*
X13428047Y-15642191D01*
X13447095Y-15632667D01*
X13513762Y-15585048D02*
X13589952Y-15585048D01*
X13542333Y-15518381D02*
X13542333Y-15689810D01*
X13551857Y-15708857D01*
X13570904Y-15718381D01*
X13589952Y-15718381D01*
X13732809Y-15708857D02*
X13713762Y-15718381D01*
X13675666Y-15718381D01*
X13656619Y-15708857D01*
X13647095Y-15689810D01*
X13647095Y-15613619D01*
X13656619Y-15594572D01*
X13675666Y-15585048D01*
X13713762Y-15585048D01*
X13732809Y-15594572D01*
X13742333Y-15613619D01*
X13742333Y-15632667D01*
X13647095Y-15651714D01*
X13913762Y-15718381D02*
X13913762Y-15518381D01*
X13913762Y-15708857D02*
X13894714Y-15718381D01*
X13856619Y-15718381D01*
X13837571Y-15708857D01*
X13828047Y-15699333D01*
X13818523Y-15680286D01*
X13818523Y-15623143D01*
X13828047Y-15604095D01*
X13837571Y-15594572D01*
X13856619Y-15585048D01*
X13894714Y-15585048D01*
X13913762Y-15594572D01*
X13989952Y-15794572D02*
X13999476Y-15785048D01*
X14018523Y-15756476D01*
X14028047Y-15737429D01*
X14037571Y-15708857D01*
X14047095Y-15661238D01*
X14047095Y-15623143D01*
X14037571Y-15575524D01*
X14028047Y-15546953D01*
X14018523Y-15527905D01*
X13999476Y-15499333D01*
X13989952Y-15489810D01*
D13*
X7237095Y-15891905D02*
G75*
G03*
X7237095Y-15891905I-75000J0D01*
G01*
D11*
X7599476Y-15982381D02*
X7485190Y-15982381D01*
X7542333Y-15982381D02*
X7542333Y-15782381D01*
X7523285Y-15810953D01*
X7504238Y-15830000D01*
X7485190Y-15839524D01*
X7685190Y-15963333D02*
X7694714Y-15972857D01*
X7685190Y-15982381D01*
X7675666Y-15972857D01*
X7685190Y-15963333D01*
X7685190Y-15982381D01*
X7875666Y-15782381D02*
X7780428Y-15782381D01*
X7770904Y-15877619D01*
X7780428Y-15868095D01*
X7799476Y-15858572D01*
X7847095Y-15858572D01*
X7866143Y-15868095D01*
X7875666Y-15877619D01*
X7885190Y-15896667D01*
X7885190Y-15944286D01*
X7875666Y-15963333D01*
X7866143Y-15972857D01*
X7847095Y-15982381D01*
X7799476Y-15982381D01*
X7780428Y-15972857D01*
X7770904Y-15963333D01*
X8009000Y-15782381D02*
X8028047Y-15782381D01*
X8047095Y-15791905D01*
X8056619Y-15801429D01*
X8066143Y-15820476D01*
X8075666Y-15858572D01*
X8075666Y-15906191D01*
X8066143Y-15944286D01*
X8056619Y-15963333D01*
X8047095Y-15972857D01*
X8028047Y-15982381D01*
X8009000Y-15982381D01*
X7989952Y-15972857D01*
X7980428Y-15963333D01*
X7970904Y-15944286D01*
X7961381Y-15906191D01*
X7961381Y-15858572D01*
X7970904Y-15820476D01*
X7980428Y-15801429D01*
X7989952Y-15791905D01*
X8009000Y-15782381D01*
X8199476Y-15782381D02*
X8218523Y-15782381D01*
X8237571Y-15791905D01*
X8247095Y-15801429D01*
X8256619Y-15820476D01*
X8266143Y-15858572D01*
X8266143Y-15906191D01*
X8256619Y-15944286D01*
X8247095Y-15963333D01*
X8237571Y-15972857D01*
X8218523Y-15982381D01*
X8199476Y-15982381D01*
X8180428Y-15972857D01*
X8170904Y-15963333D01*
X8161381Y-15944286D01*
X8151857Y-15906191D01*
X8151857Y-15858572D01*
X8161381Y-15820476D01*
X8170904Y-15801429D01*
X8180428Y-15791905D01*
X8199476Y-15782381D01*
X8351857Y-15982381D02*
X8351857Y-15849048D01*
X8351857Y-15868095D02*
X8361381Y-15858572D01*
X8380428Y-15849048D01*
X8409000Y-15849048D01*
X8428047Y-15858572D01*
X8437571Y-15877619D01*
X8437571Y-15982381D01*
X8437571Y-15877619D02*
X8447095Y-15858572D01*
X8466143Y-15849048D01*
X8494714Y-15849048D01*
X8513762Y-15858572D01*
X8523285Y-15877619D01*
X8523285Y-15982381D01*
X8618524Y-15982381D02*
X8618524Y-15849048D01*
X8618524Y-15868095D02*
X8628047Y-15858572D01*
X8647095Y-15849048D01*
X8675666Y-15849048D01*
X8694714Y-15858572D01*
X8704238Y-15877619D01*
X8704238Y-15982381D01*
X8704238Y-15877619D02*
X8713762Y-15858572D01*
X8732809Y-15849048D01*
X8761381Y-15849048D01*
X8780428Y-15858572D01*
X8789952Y-15877619D01*
X8789952Y-15982381D01*
X9180428Y-15772857D02*
X9009000Y-16030000D01*
X9437571Y-15782381D02*
X9456619Y-15782381D01*
X9475666Y-15791905D01*
X9485190Y-15801429D01*
X9494714Y-15820476D01*
X9504238Y-15858572D01*
X9504238Y-15906191D01*
X9494714Y-15944286D01*
X9485190Y-15963333D01*
X9475666Y-15972857D01*
X9456619Y-15982381D01*
X9437571Y-15982381D01*
X9418524Y-15972857D01*
X9409000Y-15963333D01*
X9399476Y-15944286D01*
X9389952Y-15906191D01*
X9389952Y-15858572D01*
X9399476Y-15820476D01*
X9409000Y-15801429D01*
X9418524Y-15791905D01*
X9437571Y-15782381D01*
X9589952Y-15963333D02*
X9599476Y-15972857D01*
X9589952Y-15982381D01*
X9580428Y-15972857D01*
X9589952Y-15963333D01*
X9589952Y-15982381D01*
X9723285Y-15782381D02*
X9742333Y-15782381D01*
X9761381Y-15791905D01*
X9770905Y-15801429D01*
X9780428Y-15820476D01*
X9789952Y-15858572D01*
X9789952Y-15906191D01*
X9780428Y-15944286D01*
X9770905Y-15963333D01*
X9761381Y-15972857D01*
X9742333Y-15982381D01*
X9723285Y-15982381D01*
X9704238Y-15972857D01*
X9694714Y-15963333D01*
X9685190Y-15944286D01*
X9675666Y-15906191D01*
X9675666Y-15858572D01*
X9685190Y-15820476D01*
X9694714Y-15801429D01*
X9704238Y-15791905D01*
X9723285Y-15782381D01*
X9970905Y-15782381D02*
X9875666Y-15782381D01*
X9866143Y-15877619D01*
X9875666Y-15868095D01*
X9894714Y-15858572D01*
X9942333Y-15858572D01*
X9961381Y-15868095D01*
X9970905Y-15877619D01*
X9980428Y-15896667D01*
X9980428Y-15944286D01*
X9970905Y-15963333D01*
X9961381Y-15972857D01*
X9942333Y-15982381D01*
X9894714Y-15982381D01*
X9875666Y-15972857D01*
X9866143Y-15963333D01*
X10075666Y-15982381D02*
X10113762Y-15982381D01*
X10132809Y-15972857D01*
X10142333Y-15963333D01*
X10161381Y-15934762D01*
X10170905Y-15896667D01*
X10170905Y-15820476D01*
X10161381Y-15801429D01*
X10151857Y-15791905D01*
X10132809Y-15782381D01*
X10094714Y-15782381D01*
X10075666Y-15791905D01*
X10066143Y-15801429D01*
X10056619Y-15820476D01*
X10056619Y-15868095D01*
X10066143Y-15887143D01*
X10075666Y-15896667D01*
X10094714Y-15906191D01*
X10132809Y-15906191D01*
X10151857Y-15896667D01*
X10161381Y-15887143D01*
X10170905Y-15868095D01*
X10361381Y-15982381D02*
X10247095Y-15982381D01*
X10304238Y-15982381D02*
X10304238Y-15782381D01*
X10285190Y-15810953D01*
X10266143Y-15830000D01*
X10247095Y-15839524D01*
X10437571Y-15782381D02*
X10437571Y-15820476D01*
X10513762Y-15782381D02*
X10513762Y-15820476D01*
X10809000Y-16058572D02*
X10799476Y-16049048D01*
X10780428Y-16020476D01*
X10770905Y-16001429D01*
X10761381Y-15972857D01*
X10751857Y-15925238D01*
X10751857Y-15887143D01*
X10761381Y-15839524D01*
X10770905Y-15810953D01*
X10780428Y-15791905D01*
X10799476Y-15763333D01*
X10809000Y-15753810D01*
X10875666Y-15801429D02*
X10885190Y-15791905D01*
X10904238Y-15782381D01*
X10951857Y-15782381D01*
X10970905Y-15791905D01*
X10980428Y-15801429D01*
X10989952Y-15820476D01*
X10989952Y-15839524D01*
X10980428Y-15868095D01*
X10866143Y-15982381D01*
X10989952Y-15982381D01*
X11228047Y-15982381D02*
X11228047Y-15782381D01*
X11313762Y-15982381D02*
X11313762Y-15877619D01*
X11304238Y-15858572D01*
X11285190Y-15849048D01*
X11256619Y-15849048D01*
X11237571Y-15858572D01*
X11228047Y-15868095D01*
X11437571Y-15982381D02*
X11418523Y-15972857D01*
X11409000Y-15963333D01*
X11399476Y-15944286D01*
X11399476Y-15887143D01*
X11409000Y-15868095D01*
X11418523Y-15858572D01*
X11437571Y-15849048D01*
X11466143Y-15849048D01*
X11485190Y-15858572D01*
X11494714Y-15868095D01*
X11504238Y-15887143D01*
X11504238Y-15944286D01*
X11494714Y-15963333D01*
X11485190Y-15972857D01*
X11466143Y-15982381D01*
X11437571Y-15982381D01*
X11618523Y-15982381D02*
X11599476Y-15972857D01*
X11589952Y-15953810D01*
X11589952Y-15782381D01*
X11770904Y-15972857D02*
X11751857Y-15982381D01*
X11713762Y-15982381D01*
X11694714Y-15972857D01*
X11685190Y-15953810D01*
X11685190Y-15877619D01*
X11694714Y-15858572D01*
X11713762Y-15849048D01*
X11751857Y-15849048D01*
X11770904Y-15858572D01*
X11780428Y-15877619D01*
X11780428Y-15896667D01*
X11685190Y-15915714D01*
X11856619Y-15972857D02*
X11875666Y-15982381D01*
X11913762Y-15982381D01*
X11932809Y-15972857D01*
X11942333Y-15953810D01*
X11942333Y-15944286D01*
X11932809Y-15925238D01*
X11913762Y-15915714D01*
X11885190Y-15915714D01*
X11866143Y-15906191D01*
X11856619Y-15887143D01*
X11856619Y-15877619D01*
X11866143Y-15858572D01*
X11885190Y-15849048D01*
X11913762Y-15849048D01*
X11932809Y-15858572D01*
X12009000Y-16058572D02*
X12018523Y-16049048D01*
X12037571Y-16020476D01*
X12047095Y-16001429D01*
X12056619Y-15972857D01*
X12066143Y-15925238D01*
X12066143Y-15887143D01*
X12056619Y-15839524D01*
X12047095Y-15810953D01*
X12037571Y-15791905D01*
X12018523Y-15763333D01*
X12009000Y-15753810D01*
X12370904Y-16058572D02*
X12361381Y-16049048D01*
X12342333Y-16020476D01*
X12332809Y-16001429D01*
X12323285Y-15972857D01*
X12313762Y-15925238D01*
X12313762Y-15887143D01*
X12323285Y-15839524D01*
X12332809Y-15810953D01*
X12342333Y-15791905D01*
X12361381Y-15763333D01*
X12370904Y-15753810D01*
X12447095Y-15849048D02*
X12447095Y-15982381D01*
X12447095Y-15868095D02*
X12456619Y-15858572D01*
X12475666Y-15849048D01*
X12504238Y-15849048D01*
X12523285Y-15858572D01*
X12532809Y-15877619D01*
X12532809Y-15982381D01*
X12656619Y-15982381D02*
X12637571Y-15972857D01*
X12628047Y-15963333D01*
X12618523Y-15944286D01*
X12618523Y-15887143D01*
X12628047Y-15868095D01*
X12637571Y-15858572D01*
X12656619Y-15849048D01*
X12685190Y-15849048D01*
X12704238Y-15858572D01*
X12713762Y-15868095D01*
X12723285Y-15887143D01*
X12723285Y-15944286D01*
X12713762Y-15963333D01*
X12704238Y-15972857D01*
X12685190Y-15982381D01*
X12656619Y-15982381D01*
X12780428Y-15849048D02*
X12856619Y-15849048D01*
X12809000Y-15782381D02*
X12809000Y-15953810D01*
X12818523Y-15972857D01*
X12837571Y-15982381D01*
X12856619Y-15982381D01*
X13075666Y-15849048D02*
X13075666Y-16049048D01*
X13075666Y-15858572D02*
X13094714Y-15849048D01*
X13132809Y-15849048D01*
X13151857Y-15858572D01*
X13161381Y-15868095D01*
X13170904Y-15887143D01*
X13170904Y-15944286D01*
X13161381Y-15963333D01*
X13151857Y-15972857D01*
X13132809Y-15982381D01*
X13094714Y-15982381D01*
X13075666Y-15972857D01*
X13285190Y-15982381D02*
X13266143Y-15972857D01*
X13256619Y-15953810D01*
X13256619Y-15782381D01*
X13447095Y-15982381D02*
X13447095Y-15877619D01*
X13437571Y-15858572D01*
X13418523Y-15849048D01*
X13380428Y-15849048D01*
X13361381Y-15858572D01*
X13447095Y-15972857D02*
X13428047Y-15982381D01*
X13380428Y-15982381D01*
X13361381Y-15972857D01*
X13351857Y-15953810D01*
X13351857Y-15934762D01*
X13361381Y-15915714D01*
X13380428Y-15906191D01*
X13428047Y-15906191D01*
X13447095Y-15896667D01*
X13513762Y-15849048D02*
X13589952Y-15849048D01*
X13542333Y-15782381D02*
X13542333Y-15953810D01*
X13551857Y-15972857D01*
X13570904Y-15982381D01*
X13589952Y-15982381D01*
X13732809Y-15972857D02*
X13713762Y-15982381D01*
X13675666Y-15982381D01*
X13656619Y-15972857D01*
X13647095Y-15953810D01*
X13647095Y-15877619D01*
X13656619Y-15858572D01*
X13675666Y-15849048D01*
X13713762Y-15849048D01*
X13732809Y-15858572D01*
X13742333Y-15877619D01*
X13742333Y-15896667D01*
X13647095Y-15915714D01*
X13913762Y-15982381D02*
X13913762Y-15782381D01*
X13913762Y-15972857D02*
X13894714Y-15982381D01*
X13856619Y-15982381D01*
X13837571Y-15972857D01*
X13828047Y-15963333D01*
X13818523Y-15944286D01*
X13818523Y-15887143D01*
X13828047Y-15868095D01*
X13837571Y-15858572D01*
X13856619Y-15849048D01*
X13894714Y-15849048D01*
X13913762Y-15858572D01*
X13989952Y-16058572D02*
X13999476Y-16049048D01*
X14018523Y-16020476D01*
X14028047Y-16001429D01*
X14037571Y-15972857D01*
X14047095Y-15925238D01*
X14047095Y-15887143D01*
X14037571Y-15839524D01*
X14028047Y-15810953D01*
X14018523Y-15791905D01*
X13999476Y-15763333D01*
X13989952Y-15753810D01*
D14*
X7147095Y-16071905D02*
X7147095Y-16251905D01*
X7057095Y-16161905D02*
X7237095Y-16161905D01*
D11*
X7599476Y-16252381D02*
X7485190Y-16252381D01*
X7542333Y-16252381D02*
X7542333Y-16052381D01*
X7523285Y-16080953D01*
X7504238Y-16100000D01*
X7485190Y-16109524D01*
X7685190Y-16233333D02*
X7694714Y-16242857D01*
X7685190Y-16252381D01*
X7675666Y-16242857D01*
X7685190Y-16233333D01*
X7685190Y-16252381D01*
X7809000Y-16138095D02*
X7789952Y-16128572D01*
X7780428Y-16119048D01*
X7770904Y-16100000D01*
X7770904Y-16090476D01*
X7780428Y-16071429D01*
X7789952Y-16061905D01*
X7809000Y-16052381D01*
X7847095Y-16052381D01*
X7866143Y-16061905D01*
X7875666Y-16071429D01*
X7885190Y-16090476D01*
X7885190Y-16100000D01*
X7875666Y-16119048D01*
X7866143Y-16128572D01*
X7847095Y-16138095D01*
X7809000Y-16138095D01*
X7789952Y-16147619D01*
X7780428Y-16157143D01*
X7770904Y-16176191D01*
X7770904Y-16214286D01*
X7780428Y-16233333D01*
X7789952Y-16242857D01*
X7809000Y-16252381D01*
X7847095Y-16252381D01*
X7866143Y-16242857D01*
X7875666Y-16233333D01*
X7885190Y-16214286D01*
X7885190Y-16176191D01*
X7875666Y-16157143D01*
X7866143Y-16147619D01*
X7847095Y-16138095D01*
X8009000Y-16052381D02*
X8028047Y-16052381D01*
X8047095Y-16061905D01*
X8056619Y-16071429D01*
X8066143Y-16090476D01*
X8075666Y-16128572D01*
X8075666Y-16176191D01*
X8066143Y-16214286D01*
X8056619Y-16233333D01*
X8047095Y-16242857D01*
X8028047Y-16252381D01*
X8009000Y-16252381D01*
X7989952Y-16242857D01*
X7980428Y-16233333D01*
X7970904Y-16214286D01*
X7961381Y-16176191D01*
X7961381Y-16128572D01*
X7970904Y-16090476D01*
X7980428Y-16071429D01*
X7989952Y-16061905D01*
X8009000Y-16052381D01*
X8199476Y-16052381D02*
X8218523Y-16052381D01*
X8237571Y-16061905D01*
X8247095Y-16071429D01*
X8256619Y-16090476D01*
X8266143Y-16128572D01*
X8266143Y-16176191D01*
X8256619Y-16214286D01*
X8247095Y-16233333D01*
X8237571Y-16242857D01*
X8218523Y-16252381D01*
X8199476Y-16252381D01*
X8180428Y-16242857D01*
X8170904Y-16233333D01*
X8161381Y-16214286D01*
X8151857Y-16176191D01*
X8151857Y-16128572D01*
X8161381Y-16090476D01*
X8170904Y-16071429D01*
X8180428Y-16061905D01*
X8199476Y-16052381D01*
X8351857Y-16252381D02*
X8351857Y-16119048D01*
X8351857Y-16138095D02*
X8361381Y-16128572D01*
X8380428Y-16119048D01*
X8409000Y-16119048D01*
X8428047Y-16128572D01*
X8437571Y-16147619D01*
X8437571Y-16252381D01*
X8437571Y-16147619D02*
X8447095Y-16128572D01*
X8466143Y-16119048D01*
X8494714Y-16119048D01*
X8513762Y-16128572D01*
X8523285Y-16147619D01*
X8523285Y-16252381D01*
X8618524Y-16252381D02*
X8618524Y-16119048D01*
X8618524Y-16138095D02*
X8628047Y-16128572D01*
X8647095Y-16119048D01*
X8675666Y-16119048D01*
X8694714Y-16128572D01*
X8704238Y-16147619D01*
X8704238Y-16252381D01*
X8704238Y-16147619D02*
X8713762Y-16128572D01*
X8732809Y-16119048D01*
X8761381Y-16119048D01*
X8780428Y-16128572D01*
X8789952Y-16147619D01*
X8789952Y-16252381D01*
X9180428Y-16042857D02*
X9009000Y-16300000D01*
X9437571Y-16052381D02*
X9456619Y-16052381D01*
X9475666Y-16061905D01*
X9485190Y-16071429D01*
X9494714Y-16090476D01*
X9504238Y-16128572D01*
X9504238Y-16176191D01*
X9494714Y-16214286D01*
X9485190Y-16233333D01*
X9475666Y-16242857D01*
X9456619Y-16252381D01*
X9437571Y-16252381D01*
X9418524Y-16242857D01*
X9409000Y-16233333D01*
X9399476Y-16214286D01*
X9389952Y-16176191D01*
X9389952Y-16128572D01*
X9399476Y-16090476D01*
X9409000Y-16071429D01*
X9418524Y-16061905D01*
X9437571Y-16052381D01*
X9589952Y-16233333D02*
X9599476Y-16242857D01*
X9589952Y-16252381D01*
X9580428Y-16242857D01*
X9589952Y-16233333D01*
X9589952Y-16252381D01*
X9723285Y-16052381D02*
X9742333Y-16052381D01*
X9761381Y-16061905D01*
X9770905Y-16071429D01*
X9780428Y-16090476D01*
X9789952Y-16128572D01*
X9789952Y-16176191D01*
X9780428Y-16214286D01*
X9770905Y-16233333D01*
X9761381Y-16242857D01*
X9742333Y-16252381D01*
X9723285Y-16252381D01*
X9704238Y-16242857D01*
X9694714Y-16233333D01*
X9685190Y-16214286D01*
X9675666Y-16176191D01*
X9675666Y-16128572D01*
X9685190Y-16090476D01*
X9694714Y-16071429D01*
X9704238Y-16061905D01*
X9723285Y-16052381D01*
X9856619Y-16052381D02*
X9989952Y-16052381D01*
X9904238Y-16252381D01*
X10104238Y-16052381D02*
X10123285Y-16052381D01*
X10142333Y-16061905D01*
X10151857Y-16071429D01*
X10161381Y-16090476D01*
X10170905Y-16128572D01*
X10170905Y-16176191D01*
X10161381Y-16214286D01*
X10151857Y-16233333D01*
X10142333Y-16242857D01*
X10123285Y-16252381D01*
X10104238Y-16252381D01*
X10085190Y-16242857D01*
X10075666Y-16233333D01*
X10066143Y-16214286D01*
X10056619Y-16176191D01*
X10056619Y-16128572D01*
X10066143Y-16090476D01*
X10075666Y-16071429D01*
X10085190Y-16061905D01*
X10104238Y-16052381D01*
X10266143Y-16252381D02*
X10304238Y-16252381D01*
X10323285Y-16242857D01*
X10332809Y-16233333D01*
X10351857Y-16204762D01*
X10361381Y-16166667D01*
X10361381Y-16090476D01*
X10351857Y-16071429D01*
X10342333Y-16061905D01*
X10323285Y-16052381D01*
X10285190Y-16052381D01*
X10266143Y-16061905D01*
X10256619Y-16071429D01*
X10247095Y-16090476D01*
X10247095Y-16138095D01*
X10256619Y-16157143D01*
X10266143Y-16166667D01*
X10285190Y-16176191D01*
X10323285Y-16176191D01*
X10342333Y-16166667D01*
X10351857Y-16157143D01*
X10361381Y-16138095D01*
X10437571Y-16052381D02*
X10437571Y-16090476D01*
X10513762Y-16052381D02*
X10513762Y-16090476D01*
X10809000Y-16328572D02*
X10799476Y-16319048D01*
X10780428Y-16290476D01*
X10770905Y-16271429D01*
X10761381Y-16242857D01*
X10751857Y-16195238D01*
X10751857Y-16157143D01*
X10761381Y-16109524D01*
X10770905Y-16080953D01*
X10780428Y-16061905D01*
X10799476Y-16033333D01*
X10809000Y-16023810D01*
X10875666Y-16071429D02*
X10885190Y-16061905D01*
X10904238Y-16052381D01*
X10951857Y-16052381D01*
X10970905Y-16061905D01*
X10980428Y-16071429D01*
X10989952Y-16090476D01*
X10989952Y-16109524D01*
X10980428Y-16138095D01*
X10866143Y-16252381D01*
X10989952Y-16252381D01*
X11228047Y-16252381D02*
X11228047Y-16052381D01*
X11313762Y-16252381D02*
X11313762Y-16147619D01*
X11304238Y-16128572D01*
X11285190Y-16119048D01*
X11256619Y-16119048D01*
X11237571Y-16128572D01*
X11228047Y-16138095D01*
X11437571Y-16252381D02*
X11418523Y-16242857D01*
X11409000Y-16233333D01*
X11399476Y-16214286D01*
X11399476Y-16157143D01*
X11409000Y-16138095D01*
X11418523Y-16128572D01*
X11437571Y-16119048D01*
X11466143Y-16119048D01*
X11485190Y-16128572D01*
X11494714Y-16138095D01*
X11504238Y-16157143D01*
X11504238Y-16214286D01*
X11494714Y-16233333D01*
X11485190Y-16242857D01*
X11466143Y-16252381D01*
X11437571Y-16252381D01*
X11618523Y-16252381D02*
X11599476Y-16242857D01*
X11589952Y-16223810D01*
X11589952Y-16052381D01*
X11770904Y-16242857D02*
X11751857Y-16252381D01*
X11713762Y-16252381D01*
X11694714Y-16242857D01*
X11685190Y-16223810D01*
X11685190Y-16147619D01*
X11694714Y-16128572D01*
X11713762Y-16119048D01*
X11751857Y-16119048D01*
X11770904Y-16128572D01*
X11780428Y-16147619D01*
X11780428Y-16166667D01*
X11685190Y-16185714D01*
X11856619Y-16242857D02*
X11875666Y-16252381D01*
X11913762Y-16252381D01*
X11932809Y-16242857D01*
X11942333Y-16223810D01*
X11942333Y-16214286D01*
X11932809Y-16195238D01*
X11913762Y-16185714D01*
X11885190Y-16185714D01*
X11866143Y-16176191D01*
X11856619Y-16157143D01*
X11856619Y-16147619D01*
X11866143Y-16128572D01*
X11885190Y-16119048D01*
X11913762Y-16119048D01*
X11932809Y-16128572D01*
X12009000Y-16328572D02*
X12018523Y-16319048D01*
X12037571Y-16290476D01*
X12047095Y-16271429D01*
X12056619Y-16242857D01*
X12066143Y-16195238D01*
X12066143Y-16157143D01*
X12056619Y-16109524D01*
X12047095Y-16080953D01*
X12037571Y-16061905D01*
X12018523Y-16033333D01*
X12009000Y-16023810D01*
X12370904Y-16328572D02*
X12361381Y-16319048D01*
X12342333Y-16290476D01*
X12332809Y-16271429D01*
X12323285Y-16242857D01*
X12313762Y-16195238D01*
X12313762Y-16157143D01*
X12323285Y-16109524D01*
X12332809Y-16080953D01*
X12342333Y-16061905D01*
X12361381Y-16033333D01*
X12370904Y-16023810D01*
X12447095Y-16119048D02*
X12447095Y-16252381D01*
X12447095Y-16138095D02*
X12456619Y-16128572D01*
X12475666Y-16119048D01*
X12504238Y-16119048D01*
X12523285Y-16128572D01*
X12532809Y-16147619D01*
X12532809Y-16252381D01*
X12656619Y-16252381D02*
X12637571Y-16242857D01*
X12628047Y-16233333D01*
X12618523Y-16214286D01*
X12618523Y-16157143D01*
X12628047Y-16138095D01*
X12637571Y-16128572D01*
X12656619Y-16119048D01*
X12685190Y-16119048D01*
X12704238Y-16128572D01*
X12713762Y-16138095D01*
X12723285Y-16157143D01*
X12723285Y-16214286D01*
X12713762Y-16233333D01*
X12704238Y-16242857D01*
X12685190Y-16252381D01*
X12656619Y-16252381D01*
X12780428Y-16119048D02*
X12856619Y-16119048D01*
X12809000Y-16052381D02*
X12809000Y-16223810D01*
X12818523Y-16242857D01*
X12837571Y-16252381D01*
X12856619Y-16252381D01*
X13075666Y-16119048D02*
X13075666Y-16319048D01*
X13075666Y-16128572D02*
X13094714Y-16119048D01*
X13132809Y-16119048D01*
X13151857Y-16128572D01*
X13161381Y-16138095D01*
X13170904Y-16157143D01*
X13170904Y-16214286D01*
X13161381Y-16233333D01*
X13151857Y-16242857D01*
X13132809Y-16252381D01*
X13094714Y-16252381D01*
X13075666Y-16242857D01*
X13285190Y-16252381D02*
X13266143Y-16242857D01*
X13256619Y-16223810D01*
X13256619Y-16052381D01*
X13447095Y-16252381D02*
X13447095Y-16147619D01*
X13437571Y-16128572D01*
X13418523Y-16119048D01*
X13380428Y-16119048D01*
X13361381Y-16128572D01*
X13447095Y-16242857D02*
X13428047Y-16252381D01*
X13380428Y-16252381D01*
X13361381Y-16242857D01*
X13351857Y-16223810D01*
X13351857Y-16204762D01*
X13361381Y-16185714D01*
X13380428Y-16176191D01*
X13428047Y-16176191D01*
X13447095Y-16166667D01*
X13513762Y-16119048D02*
X13589952Y-16119048D01*
X13542333Y-16052381D02*
X13542333Y-16223810D01*
X13551857Y-16242857D01*
X13570904Y-16252381D01*
X13589952Y-16252381D01*
X13732809Y-16242857D02*
X13713762Y-16252381D01*
X13675666Y-16252381D01*
X13656619Y-16242857D01*
X13647095Y-16223810D01*
X13647095Y-16147619D01*
X13656619Y-16128572D01*
X13675666Y-16119048D01*
X13713762Y-16119048D01*
X13732809Y-16128572D01*
X13742333Y-16147619D01*
X13742333Y-16166667D01*
X13647095Y-16185714D01*
X13913762Y-16252381D02*
X13913762Y-16052381D01*
X13913762Y-16242857D02*
X13894714Y-16252381D01*
X13856619Y-16252381D01*
X13837571Y-16242857D01*
X13828047Y-16233333D01*
X13818523Y-16214286D01*
X13818523Y-16157143D01*
X13828047Y-16138095D01*
X13837571Y-16128572D01*
X13856619Y-16119048D01*
X13894714Y-16119048D01*
X13913762Y-16128572D01*
X13989952Y-16328572D02*
X13999476Y-16319048D01*
X14018523Y-16290476D01*
X14028047Y-16271429D01*
X14037571Y-16242857D01*
X14047095Y-16195238D01*
X14047095Y-16157143D01*
X14037571Y-16109524D01*
X14028047Y-16080953D01*
X14018523Y-16061905D01*
X13999476Y-16033333D01*
X13989952Y-16023810D01*
M02*
