%TF.GenerationSoftware,KiCad,Pcbnew,(6.0.10)*%
%TF.CreationDate,2023-01-30T13:49:40-05:00*%
%TF.ProjectId,door_counter_circuit,646f6f72-5f63-46f7-956e-7465725f6369,rev?*%
%TF.SameCoordinates,Original*%
%TF.FileFunction,Drillmap*%
%TF.FilePolarity,Positive*%
%FSLAX45Y45*%
G04 Gerber Fmt 4.5, Leading zero omitted, Abs format (unit mm)*
G04 Created by KiCad (PCBNEW (6.0.10)) date 2023-01-30 13:49:40*
%MOMM*%
%LPD*%
G01*
G04 APERTURE LIST*
%ADD10C,0.038100*%
%ADD11C,0.200000*%
%ADD12C,0.030000*%
%ADD13C,0.050000*%
%ADD14C,0.076200*%
%ADD15C,0.080000*%
%ADD16C,0.090000*%
%ADD17C,0.100000*%
%ADD18C,0.102000*%
%ADD19C,0.110000*%
%ADD20C,0.117000*%
%ADD21C,0.150000*%
%ADD22C,0.250000*%
G04 APERTURE END LIST*
D10*
X16764000Y-14986000D02*
X7620000Y-14986000D01*
X17145000Y-5461000D02*
G75*
G03*
X16764000Y-5080000I-381000J0D01*
G01*
X17145000Y-5461000D02*
X17145000Y-14605000D01*
X7239000Y-14605000D02*
X7239000Y-5461000D01*
X16764000Y-14986000D02*
G75*
G03*
X17145000Y-14605000I0J381000D01*
G01*
X7239000Y-14605000D02*
G75*
G03*
X7620000Y-14986000I381000J0D01*
G01*
X7620000Y-5080000D02*
X16764000Y-5080000D01*
X7620000Y-5080000D02*
G75*
G03*
X7239000Y-5461000I0J-381000D01*
G01*
D11*
D12*
X8065980Y-6128020D02*
X8095980Y-6158020D01*
X8095980Y-6128020D02*
X8065980Y-6158020D01*
X9179800Y-6843000D02*
X9209800Y-6873000D01*
X9209800Y-6843000D02*
X9179800Y-6873000D01*
X9243300Y-7516100D02*
X9273300Y-7546100D01*
X9273300Y-7516100D02*
X9243300Y-7546100D01*
X9789400Y-6970000D02*
X9819400Y-7000000D01*
X9819400Y-6970000D02*
X9789400Y-7000000D01*
X9916400Y-6538200D02*
X9946400Y-6568200D01*
X9946400Y-6538200D02*
X9916400Y-6568200D01*
X12685000Y-6589000D02*
X12715000Y-6619000D01*
X12715000Y-6589000D02*
X12685000Y-6619000D01*
X13523200Y-7986000D02*
X13553200Y-8016000D01*
X13553200Y-7986000D02*
X13523200Y-8016000D01*
X13523200Y-8494000D02*
X13553200Y-8524000D01*
X13553200Y-8494000D02*
X13523200Y-8524000D01*
X14082000Y-10449800D02*
X14112000Y-10479800D01*
X14112000Y-10449800D02*
X14082000Y-10479800D01*
X14082000Y-10551400D02*
X14112000Y-10581400D01*
X14112000Y-10551400D02*
X14082000Y-10581400D01*
X14082000Y-10653000D02*
X14112000Y-10683000D01*
X14112000Y-10653000D02*
X14082000Y-10683000D01*
X16139400Y-10551400D02*
X16169400Y-10581400D01*
X16169400Y-10551400D02*
X16139400Y-10581400D01*
D13*
X7457500Y-5455418D02*
G75*
G03*
X7457500Y-5455418I-25000J0D01*
G01*
X7457500Y-14605000D02*
G75*
G03*
X7457500Y-14605000I-25000J0D01*
G01*
X7512417Y-5322835D02*
G75*
G03*
X7512417Y-5322835I-25000J0D01*
G01*
X7512417Y-5588000D02*
G75*
G03*
X7512417Y-5588000I-25000J0D01*
G01*
X7512417Y-14472417D02*
G75*
G03*
X7512417Y-14472417I-25000J0D01*
G01*
X7512417Y-14737582D02*
G75*
G03*
X7512417Y-14737582I-25000J0D01*
G01*
X7645000Y-5267918D02*
G75*
G03*
X7645000Y-5267918I-25000J0D01*
G01*
X7645000Y-5642917D02*
G75*
G03*
X7645000Y-5642917I-25000J0D01*
G01*
X7645000Y-14417500D02*
G75*
G03*
X7645000Y-14417500I-25000J0D01*
G01*
X7645000Y-14792500D02*
G75*
G03*
X7645000Y-14792500I-25000J0D01*
G01*
X7777582Y-5322835D02*
G75*
G03*
X7777582Y-5322835I-25000J0D01*
G01*
X7777582Y-5588000D02*
G75*
G03*
X7777582Y-5588000I-25000J0D01*
G01*
X7777582Y-14472417D02*
G75*
G03*
X7777582Y-14472417I-25000J0D01*
G01*
X7777582Y-14737582D02*
G75*
G03*
X7777582Y-14737582I-25000J0D01*
G01*
X7832500Y-5455418D02*
G75*
G03*
X7832500Y-5455418I-25000J0D01*
G01*
X7832500Y-14605000D02*
G75*
G03*
X7832500Y-14605000I-25000J0D01*
G01*
X9169000Y-9906000D02*
G75*
G03*
X9169000Y-9906000I-25000J0D01*
G01*
X9169000Y-10096000D02*
G75*
G03*
X9169000Y-10096000I-25000J0D01*
G01*
X16601500Y-5461000D02*
G75*
G03*
X16601500Y-5461000I-25000J0D01*
G01*
X16601500Y-14605000D02*
G75*
G03*
X16601500Y-14605000I-25000J0D01*
G01*
X16656417Y-5328418D02*
G75*
G03*
X16656417Y-5328418I-25000J0D01*
G01*
X16656417Y-5593582D02*
G75*
G03*
X16656417Y-5593582I-25000J0D01*
G01*
X16656417Y-14472417D02*
G75*
G03*
X16656417Y-14472417I-25000J0D01*
G01*
X16656417Y-14737582D02*
G75*
G03*
X16656417Y-14737582I-25000J0D01*
G01*
X16789000Y-5273500D02*
G75*
G03*
X16789000Y-5273500I-25000J0D01*
G01*
X16789000Y-5648500D02*
G75*
G03*
X16789000Y-5648500I-25000J0D01*
G01*
X16789000Y-14417500D02*
G75*
G03*
X16789000Y-14417500I-25000J0D01*
G01*
X16789000Y-14792500D02*
G75*
G03*
X16789000Y-14792500I-25000J0D01*
G01*
X16921583Y-5328418D02*
G75*
G03*
X16921583Y-5328418I-25000J0D01*
G01*
X16921583Y-5593582D02*
G75*
G03*
X16921583Y-5593582I-25000J0D01*
G01*
X16921583Y-14472417D02*
G75*
G03*
X16921583Y-14472417I-25000J0D01*
G01*
X16921583Y-14737582D02*
G75*
G03*
X16921583Y-14737582I-25000J0D01*
G01*
X16976500Y-5461000D02*
G75*
G03*
X16976500Y-5461000I-25000J0D01*
G01*
X16976500Y-14605000D02*
G75*
G03*
X16976500Y-14605000I-25000J0D01*
G01*
D14*
X10414000Y-10883900D02*
X10414000Y-10960100D01*
X10375900Y-10922000D02*
X10452100Y-10922000D01*
X10414000Y-11137900D02*
X10414000Y-11214100D01*
X10375900Y-11176000D02*
X10452100Y-11176000D01*
X10414000Y-11391900D02*
X10414000Y-11468100D01*
X10375900Y-11430000D02*
X10452100Y-11430000D01*
X10414000Y-11645900D02*
X10414000Y-11722100D01*
X10375900Y-11684000D02*
X10452100Y-11684000D01*
X10414000Y-11899900D02*
X10414000Y-11976100D01*
X10375900Y-11938000D02*
X10452100Y-11938000D01*
X10414000Y-12153900D02*
X10414000Y-12230100D01*
X10375900Y-12192000D02*
X10452100Y-12192000D01*
X10414000Y-12407900D02*
X10414000Y-12484100D01*
X10375900Y-12446000D02*
X10452100Y-12446000D01*
X10414000Y-12661900D02*
X10414000Y-12738100D01*
X10375900Y-12700000D02*
X10452100Y-12700000D01*
X10414000Y-12915900D02*
X10414000Y-12992100D01*
X10375900Y-12954000D02*
X10452100Y-12954000D01*
X10414000Y-13169900D02*
X10414000Y-13246100D01*
X10375900Y-13208000D02*
X10452100Y-13208000D01*
X10414000Y-13423900D02*
X10414000Y-13500100D01*
X10375900Y-13462000D02*
X10452100Y-13462000D01*
X10414000Y-13677900D02*
X10414000Y-13754100D01*
X10375900Y-13716000D02*
X10452100Y-13716000D01*
X10414000Y-13931900D02*
X10414000Y-14008100D01*
X10375900Y-13970000D02*
X10452100Y-13970000D01*
X10414000Y-14185900D02*
X10414000Y-14262100D01*
X10375900Y-14224000D02*
X10452100Y-14224000D01*
X10414000Y-14439900D02*
X10414000Y-14516100D01*
X10375900Y-14478000D02*
X10452100Y-14478000D01*
X10414000Y-14693900D02*
X10414000Y-14770100D01*
X10375900Y-14732000D02*
X10452100Y-14732000D01*
X10668000Y-10883900D02*
X10668000Y-10960100D01*
X10629900Y-10922000D02*
X10706100Y-10922000D01*
X10668000Y-11137900D02*
X10668000Y-11214100D01*
X10629900Y-11176000D02*
X10706100Y-11176000D01*
X10668000Y-11391900D02*
X10668000Y-11468100D01*
X10629900Y-11430000D02*
X10706100Y-11430000D01*
X10668000Y-11645900D02*
X10668000Y-11722100D01*
X10629900Y-11684000D02*
X10706100Y-11684000D01*
X10668000Y-11899900D02*
X10668000Y-11976100D01*
X10629900Y-11938000D02*
X10706100Y-11938000D01*
X10668000Y-12153900D02*
X10668000Y-12230100D01*
X10629900Y-12192000D02*
X10706100Y-12192000D01*
X10668000Y-12407900D02*
X10668000Y-12484100D01*
X10629900Y-12446000D02*
X10706100Y-12446000D01*
X10668000Y-12661900D02*
X10668000Y-12738100D01*
X10629900Y-12700000D02*
X10706100Y-12700000D01*
X10668000Y-12915900D02*
X10668000Y-12992100D01*
X10629900Y-12954000D02*
X10706100Y-12954000D01*
X10668000Y-13169900D02*
X10668000Y-13246100D01*
X10629900Y-13208000D02*
X10706100Y-13208000D01*
X10668000Y-13423900D02*
X10668000Y-13500100D01*
X10629900Y-13462000D02*
X10706100Y-13462000D01*
X10668000Y-13677900D02*
X10668000Y-13754100D01*
X10629900Y-13716000D02*
X10706100Y-13716000D01*
X10668000Y-13931900D02*
X10668000Y-14008100D01*
X10629900Y-13970000D02*
X10706100Y-13970000D01*
X10668000Y-14185900D02*
X10668000Y-14262100D01*
X10629900Y-14224000D02*
X10706100Y-14224000D01*
X10668000Y-14439900D02*
X10668000Y-14516100D01*
X10629900Y-14478000D02*
X10706100Y-14478000D01*
X10668000Y-14693900D02*
X10668000Y-14770100D01*
X10629900Y-14732000D02*
X10706100Y-14732000D01*
X10922000Y-10883900D02*
X10922000Y-10960100D01*
X10883900Y-10922000D02*
X10960100Y-10922000D01*
X10922000Y-11137900D02*
X10922000Y-11214100D01*
X10883900Y-11176000D02*
X10960100Y-11176000D01*
X10922000Y-11391900D02*
X10922000Y-11468100D01*
X10883900Y-11430000D02*
X10960100Y-11430000D01*
X10922000Y-11645900D02*
X10922000Y-11722100D01*
X10883900Y-11684000D02*
X10960100Y-11684000D01*
X10922000Y-11899900D02*
X10922000Y-11976100D01*
X10883900Y-11938000D02*
X10960100Y-11938000D01*
X10922000Y-12153900D02*
X10922000Y-12230100D01*
X10883900Y-12192000D02*
X10960100Y-12192000D01*
X10922000Y-12407900D02*
X10922000Y-12484100D01*
X10883900Y-12446000D02*
X10960100Y-12446000D01*
X10922000Y-12661900D02*
X10922000Y-12738100D01*
X10883900Y-12700000D02*
X10960100Y-12700000D01*
X10922000Y-12915900D02*
X10922000Y-12992100D01*
X10883900Y-12954000D02*
X10960100Y-12954000D01*
X10922000Y-13169900D02*
X10922000Y-13246100D01*
X10883900Y-13208000D02*
X10960100Y-13208000D01*
X10922000Y-13423900D02*
X10922000Y-13500100D01*
X10883900Y-13462000D02*
X10960100Y-13462000D01*
X10922000Y-13677900D02*
X10922000Y-13754100D01*
X10883900Y-13716000D02*
X10960100Y-13716000D01*
X10922000Y-13931900D02*
X10922000Y-14008100D01*
X10883900Y-13970000D02*
X10960100Y-13970000D01*
X10922000Y-14185900D02*
X10922000Y-14262100D01*
X10883900Y-14224000D02*
X10960100Y-14224000D01*
X10922000Y-14439900D02*
X10922000Y-14516100D01*
X10883900Y-14478000D02*
X10960100Y-14478000D01*
X10922000Y-14693900D02*
X10922000Y-14770100D01*
X10883900Y-14732000D02*
X10960100Y-14732000D01*
X11176000Y-10883900D02*
X11176000Y-10960100D01*
X11137900Y-10922000D02*
X11214100Y-10922000D01*
X11176000Y-11137900D02*
X11176000Y-11214100D01*
X11137900Y-11176000D02*
X11214100Y-11176000D01*
X11176000Y-11391900D02*
X11176000Y-11468100D01*
X11137900Y-11430000D02*
X11214100Y-11430000D01*
X11176000Y-11645900D02*
X11176000Y-11722100D01*
X11137900Y-11684000D02*
X11214100Y-11684000D01*
X11176000Y-11899900D02*
X11176000Y-11976100D01*
X11137900Y-11938000D02*
X11214100Y-11938000D01*
X11176000Y-12153900D02*
X11176000Y-12230100D01*
X11137900Y-12192000D02*
X11214100Y-12192000D01*
X11176000Y-12407900D02*
X11176000Y-12484100D01*
X11137900Y-12446000D02*
X11214100Y-12446000D01*
X11176000Y-12661900D02*
X11176000Y-12738100D01*
X11137900Y-12700000D02*
X11214100Y-12700000D01*
X11176000Y-12915900D02*
X11176000Y-12992100D01*
X11137900Y-12954000D02*
X11214100Y-12954000D01*
X11176000Y-13169900D02*
X11176000Y-13246100D01*
X11137900Y-13208000D02*
X11214100Y-13208000D01*
X11176000Y-13423900D02*
X11176000Y-13500100D01*
X11137900Y-13462000D02*
X11214100Y-13462000D01*
X11176000Y-13677900D02*
X11176000Y-13754100D01*
X11137900Y-13716000D02*
X11214100Y-13716000D01*
X11176000Y-13931900D02*
X11176000Y-14008100D01*
X11137900Y-13970000D02*
X11214100Y-13970000D01*
X11176000Y-14185900D02*
X11176000Y-14262100D01*
X11137900Y-14224000D02*
X11214100Y-14224000D01*
X11176000Y-14439900D02*
X11176000Y-14516100D01*
X11137900Y-14478000D02*
X11214100Y-14478000D01*
X11176000Y-14693900D02*
X11176000Y-14770100D01*
X11137900Y-14732000D02*
X11214100Y-14732000D01*
X11430000Y-10883900D02*
X11430000Y-10960100D01*
X11391900Y-10922000D02*
X11468100Y-10922000D01*
X11430000Y-11137900D02*
X11430000Y-11214100D01*
X11391900Y-11176000D02*
X11468100Y-11176000D01*
X11430000Y-11391900D02*
X11430000Y-11468100D01*
X11391900Y-11430000D02*
X11468100Y-11430000D01*
X11430000Y-11645900D02*
X11430000Y-11722100D01*
X11391900Y-11684000D02*
X11468100Y-11684000D01*
X11430000Y-11899900D02*
X11430000Y-11976100D01*
X11391900Y-11938000D02*
X11468100Y-11938000D01*
X11430000Y-12153900D02*
X11430000Y-12230100D01*
X11391900Y-12192000D02*
X11468100Y-12192000D01*
X11430000Y-12407900D02*
X11430000Y-12484100D01*
X11391900Y-12446000D02*
X11468100Y-12446000D01*
X11430000Y-12661900D02*
X11430000Y-12738100D01*
X11391900Y-12700000D02*
X11468100Y-12700000D01*
X11430000Y-12915900D02*
X11430000Y-12992100D01*
X11391900Y-12954000D02*
X11468100Y-12954000D01*
X11430000Y-13169900D02*
X11430000Y-13246100D01*
X11391900Y-13208000D02*
X11468100Y-13208000D01*
X11430000Y-13423900D02*
X11430000Y-13500100D01*
X11391900Y-13462000D02*
X11468100Y-13462000D01*
X11430000Y-13677900D02*
X11430000Y-13754100D01*
X11391900Y-13716000D02*
X11468100Y-13716000D01*
X11430000Y-13931900D02*
X11430000Y-14008100D01*
X11391900Y-13970000D02*
X11468100Y-13970000D01*
X11430000Y-14185900D02*
X11430000Y-14262100D01*
X11391900Y-14224000D02*
X11468100Y-14224000D01*
X11430000Y-14439900D02*
X11430000Y-14516100D01*
X11391900Y-14478000D02*
X11468100Y-14478000D01*
X11430000Y-14693900D02*
X11430000Y-14770100D01*
X11391900Y-14732000D02*
X11468100Y-14732000D01*
X11684000Y-10883900D02*
X11684000Y-10960100D01*
X11645900Y-10922000D02*
X11722100Y-10922000D01*
X11684000Y-11137900D02*
X11684000Y-11214100D01*
X11645900Y-11176000D02*
X11722100Y-11176000D01*
X11684000Y-11391900D02*
X11684000Y-11468100D01*
X11645900Y-11430000D02*
X11722100Y-11430000D01*
X11684000Y-11645900D02*
X11684000Y-11722100D01*
X11645900Y-11684000D02*
X11722100Y-11684000D01*
X11684000Y-11899900D02*
X11684000Y-11976100D01*
X11645900Y-11938000D02*
X11722100Y-11938000D01*
X11684000Y-12153900D02*
X11684000Y-12230100D01*
X11645900Y-12192000D02*
X11722100Y-12192000D01*
X11684000Y-12407900D02*
X11684000Y-12484100D01*
X11645900Y-12446000D02*
X11722100Y-12446000D01*
X11684000Y-12661900D02*
X11684000Y-12738100D01*
X11645900Y-12700000D02*
X11722100Y-12700000D01*
X11684000Y-12915900D02*
X11684000Y-12992100D01*
X11645900Y-12954000D02*
X11722100Y-12954000D01*
X11684000Y-13169900D02*
X11684000Y-13246100D01*
X11645900Y-13208000D02*
X11722100Y-13208000D01*
X11684000Y-13423900D02*
X11684000Y-13500100D01*
X11645900Y-13462000D02*
X11722100Y-13462000D01*
X11684000Y-13677900D02*
X11684000Y-13754100D01*
X11645900Y-13716000D02*
X11722100Y-13716000D01*
X11684000Y-13931900D02*
X11684000Y-14008100D01*
X11645900Y-13970000D02*
X11722100Y-13970000D01*
X11684000Y-14185900D02*
X11684000Y-14262100D01*
X11645900Y-14224000D02*
X11722100Y-14224000D01*
X11684000Y-14439900D02*
X11684000Y-14516100D01*
X11645900Y-14478000D02*
X11722100Y-14478000D01*
X11684000Y-14693900D02*
X11684000Y-14770100D01*
X11645900Y-14732000D02*
X11722100Y-14732000D01*
X11938000Y-10883900D02*
X11938000Y-10960100D01*
X11899900Y-10922000D02*
X11976100Y-10922000D01*
X11938000Y-11137900D02*
X11938000Y-11214100D01*
X11899900Y-11176000D02*
X11976100Y-11176000D01*
X11938000Y-11391900D02*
X11938000Y-11468100D01*
X11899900Y-11430000D02*
X11976100Y-11430000D01*
X11938000Y-11645900D02*
X11938000Y-11722100D01*
X11899900Y-11684000D02*
X11976100Y-11684000D01*
X11938000Y-11899900D02*
X11938000Y-11976100D01*
X11899900Y-11938000D02*
X11976100Y-11938000D01*
X11938000Y-12153900D02*
X11938000Y-12230100D01*
X11899900Y-12192000D02*
X11976100Y-12192000D01*
X11938000Y-12407900D02*
X11938000Y-12484100D01*
X11899900Y-12446000D02*
X11976100Y-12446000D01*
X11938000Y-12661900D02*
X11938000Y-12738100D01*
X11899900Y-12700000D02*
X11976100Y-12700000D01*
X11938000Y-12915900D02*
X11938000Y-12992100D01*
X11899900Y-12954000D02*
X11976100Y-12954000D01*
X11938000Y-13169900D02*
X11938000Y-13246100D01*
X11899900Y-13208000D02*
X11976100Y-13208000D01*
X11938000Y-13423900D02*
X11938000Y-13500100D01*
X11899900Y-13462000D02*
X11976100Y-13462000D01*
X11938000Y-13677900D02*
X11938000Y-13754100D01*
X11899900Y-13716000D02*
X11976100Y-13716000D01*
X11938000Y-13931900D02*
X11938000Y-14008100D01*
X11899900Y-13970000D02*
X11976100Y-13970000D01*
X11938000Y-14185900D02*
X11938000Y-14262100D01*
X11899900Y-14224000D02*
X11976100Y-14224000D01*
X11938000Y-14439900D02*
X11938000Y-14516100D01*
X11899900Y-14478000D02*
X11976100Y-14478000D01*
X11938000Y-14693900D02*
X11938000Y-14770100D01*
X11899900Y-14732000D02*
X11976100Y-14732000D01*
X12192000Y-10883900D02*
X12192000Y-10960100D01*
X12153900Y-10922000D02*
X12230100Y-10922000D01*
X12192000Y-11137900D02*
X12192000Y-11214100D01*
X12153900Y-11176000D02*
X12230100Y-11176000D01*
X12192000Y-11391900D02*
X12192000Y-11468100D01*
X12153900Y-11430000D02*
X12230100Y-11430000D01*
X12192000Y-11645900D02*
X12192000Y-11722100D01*
X12153900Y-11684000D02*
X12230100Y-11684000D01*
X12192000Y-11899900D02*
X12192000Y-11976100D01*
X12153900Y-11938000D02*
X12230100Y-11938000D01*
X12192000Y-12153900D02*
X12192000Y-12230100D01*
X12153900Y-12192000D02*
X12230100Y-12192000D01*
X12192000Y-12407900D02*
X12192000Y-12484100D01*
X12153900Y-12446000D02*
X12230100Y-12446000D01*
X12192000Y-12661900D02*
X12192000Y-12738100D01*
X12153900Y-12700000D02*
X12230100Y-12700000D01*
X12192000Y-12915900D02*
X12192000Y-12992100D01*
X12153900Y-12954000D02*
X12230100Y-12954000D01*
X12192000Y-13169900D02*
X12192000Y-13246100D01*
X12153900Y-13208000D02*
X12230100Y-13208000D01*
X12192000Y-13423900D02*
X12192000Y-13500100D01*
X12153900Y-13462000D02*
X12230100Y-13462000D01*
X12192000Y-13677900D02*
X12192000Y-13754100D01*
X12153900Y-13716000D02*
X12230100Y-13716000D01*
X12192000Y-13931900D02*
X12192000Y-14008100D01*
X12153900Y-13970000D02*
X12230100Y-13970000D01*
X12192000Y-14185900D02*
X12192000Y-14262100D01*
X12153900Y-14224000D02*
X12230100Y-14224000D01*
X12192000Y-14439900D02*
X12192000Y-14516100D01*
X12153900Y-14478000D02*
X12230100Y-14478000D01*
X12192000Y-14693900D02*
X12192000Y-14770100D01*
X12153900Y-14732000D02*
X12230100Y-14732000D01*
X12446000Y-10883900D02*
X12446000Y-10960100D01*
X12407900Y-10922000D02*
X12484100Y-10922000D01*
X12446000Y-11137900D02*
X12446000Y-11214100D01*
X12407900Y-11176000D02*
X12484100Y-11176000D01*
X12446000Y-11391900D02*
X12446000Y-11468100D01*
X12407900Y-11430000D02*
X12484100Y-11430000D01*
X12446000Y-11645900D02*
X12446000Y-11722100D01*
X12407900Y-11684000D02*
X12484100Y-11684000D01*
X12446000Y-11899900D02*
X12446000Y-11976100D01*
X12407900Y-11938000D02*
X12484100Y-11938000D01*
X12446000Y-12153900D02*
X12446000Y-12230100D01*
X12407900Y-12192000D02*
X12484100Y-12192000D01*
X12446000Y-12407900D02*
X12446000Y-12484100D01*
X12407900Y-12446000D02*
X12484100Y-12446000D01*
X12446000Y-12661900D02*
X12446000Y-12738100D01*
X12407900Y-12700000D02*
X12484100Y-12700000D01*
X12446000Y-12915900D02*
X12446000Y-12992100D01*
X12407900Y-12954000D02*
X12484100Y-12954000D01*
X12446000Y-13169900D02*
X12446000Y-13246100D01*
X12407900Y-13208000D02*
X12484100Y-13208000D01*
X12446000Y-13423900D02*
X12446000Y-13500100D01*
X12407900Y-13462000D02*
X12484100Y-13462000D01*
X12446000Y-13677900D02*
X12446000Y-13754100D01*
X12407900Y-13716000D02*
X12484100Y-13716000D01*
X12446000Y-13931900D02*
X12446000Y-14008100D01*
X12407900Y-13970000D02*
X12484100Y-13970000D01*
X12446000Y-14185900D02*
X12446000Y-14262100D01*
X12407900Y-14224000D02*
X12484100Y-14224000D01*
X12446000Y-14439900D02*
X12446000Y-14516100D01*
X12407900Y-14478000D02*
X12484100Y-14478000D01*
X12446000Y-14693900D02*
X12446000Y-14770100D01*
X12407900Y-14732000D02*
X12484100Y-14732000D01*
X12700000Y-10883900D02*
X12700000Y-10960100D01*
X12661900Y-10922000D02*
X12738100Y-10922000D01*
X12700000Y-11137900D02*
X12700000Y-11214100D01*
X12661900Y-11176000D02*
X12738100Y-11176000D01*
X12700000Y-11391900D02*
X12700000Y-11468100D01*
X12661900Y-11430000D02*
X12738100Y-11430000D01*
X12700000Y-11645900D02*
X12700000Y-11722100D01*
X12661900Y-11684000D02*
X12738100Y-11684000D01*
X12700000Y-11899900D02*
X12700000Y-11976100D01*
X12661900Y-11938000D02*
X12738100Y-11938000D01*
X12700000Y-12153900D02*
X12700000Y-12230100D01*
X12661900Y-12192000D02*
X12738100Y-12192000D01*
X12700000Y-12407900D02*
X12700000Y-12484100D01*
X12661900Y-12446000D02*
X12738100Y-12446000D01*
X12700000Y-12661900D02*
X12700000Y-12738100D01*
X12661900Y-12700000D02*
X12738100Y-12700000D01*
X12700000Y-12915900D02*
X12700000Y-12992100D01*
X12661900Y-12954000D02*
X12738100Y-12954000D01*
X12700000Y-13169900D02*
X12700000Y-13246100D01*
X12661900Y-13208000D02*
X12738100Y-13208000D01*
X12700000Y-13423900D02*
X12700000Y-13500100D01*
X12661900Y-13462000D02*
X12738100Y-13462000D01*
X12700000Y-13677900D02*
X12700000Y-13754100D01*
X12661900Y-13716000D02*
X12738100Y-13716000D01*
X12700000Y-13931900D02*
X12700000Y-14008100D01*
X12661900Y-13970000D02*
X12738100Y-13970000D01*
X12700000Y-14185900D02*
X12700000Y-14262100D01*
X12661900Y-14224000D02*
X12738100Y-14224000D01*
X12700000Y-14439900D02*
X12700000Y-14516100D01*
X12661900Y-14478000D02*
X12738100Y-14478000D01*
X12700000Y-14693900D02*
X12700000Y-14770100D01*
X12661900Y-14732000D02*
X12738100Y-14732000D01*
X12954000Y-10883900D02*
X12954000Y-10960100D01*
X12915900Y-10922000D02*
X12992100Y-10922000D01*
X12954000Y-11137900D02*
X12954000Y-11214100D01*
X12915900Y-11176000D02*
X12992100Y-11176000D01*
X12954000Y-11391900D02*
X12954000Y-11468100D01*
X12915900Y-11430000D02*
X12992100Y-11430000D01*
X12954000Y-11645900D02*
X12954000Y-11722100D01*
X12915900Y-11684000D02*
X12992100Y-11684000D01*
X12954000Y-11899900D02*
X12954000Y-11976100D01*
X12915900Y-11938000D02*
X12992100Y-11938000D01*
X12954000Y-12153900D02*
X12954000Y-12230100D01*
X12915900Y-12192000D02*
X12992100Y-12192000D01*
X12954000Y-12407900D02*
X12954000Y-12484100D01*
X12915900Y-12446000D02*
X12992100Y-12446000D01*
X12954000Y-12661900D02*
X12954000Y-12738100D01*
X12915900Y-12700000D02*
X12992100Y-12700000D01*
X12954000Y-12915900D02*
X12954000Y-12992100D01*
X12915900Y-12954000D02*
X12992100Y-12954000D01*
X12954000Y-13169900D02*
X12954000Y-13246100D01*
X12915900Y-13208000D02*
X12992100Y-13208000D01*
X12954000Y-13423900D02*
X12954000Y-13500100D01*
X12915900Y-13462000D02*
X12992100Y-13462000D01*
X12954000Y-13677900D02*
X12954000Y-13754100D01*
X12915900Y-13716000D02*
X12992100Y-13716000D01*
X12954000Y-13931900D02*
X12954000Y-14008100D01*
X12915900Y-13970000D02*
X12992100Y-13970000D01*
X12954000Y-14185900D02*
X12954000Y-14262100D01*
X12915900Y-14224000D02*
X12992100Y-14224000D01*
X12954000Y-14439900D02*
X12954000Y-14516100D01*
X12915900Y-14478000D02*
X12992100Y-14478000D01*
X12954000Y-14693900D02*
X12954000Y-14770100D01*
X12915900Y-14732000D02*
X12992100Y-14732000D01*
X13208000Y-10883900D02*
X13208000Y-10960100D01*
X13169900Y-10922000D02*
X13246100Y-10922000D01*
X13208000Y-11137900D02*
X13208000Y-11214100D01*
X13169900Y-11176000D02*
X13246100Y-11176000D01*
X13208000Y-11391900D02*
X13208000Y-11468100D01*
X13169900Y-11430000D02*
X13246100Y-11430000D01*
X13208000Y-11645900D02*
X13208000Y-11722100D01*
X13169900Y-11684000D02*
X13246100Y-11684000D01*
X13208000Y-11899900D02*
X13208000Y-11976100D01*
X13169900Y-11938000D02*
X13246100Y-11938000D01*
X13208000Y-12153900D02*
X13208000Y-12230100D01*
X13169900Y-12192000D02*
X13246100Y-12192000D01*
X13208000Y-12407900D02*
X13208000Y-12484100D01*
X13169900Y-12446000D02*
X13246100Y-12446000D01*
X13208000Y-12661900D02*
X13208000Y-12738100D01*
X13169900Y-12700000D02*
X13246100Y-12700000D01*
X13208000Y-12915900D02*
X13208000Y-12992100D01*
X13169900Y-12954000D02*
X13246100Y-12954000D01*
X13208000Y-13169900D02*
X13208000Y-13246100D01*
X13169900Y-13208000D02*
X13246100Y-13208000D01*
X13208000Y-13423900D02*
X13208000Y-13500100D01*
X13169900Y-13462000D02*
X13246100Y-13462000D01*
X13208000Y-13677900D02*
X13208000Y-13754100D01*
X13169900Y-13716000D02*
X13246100Y-13716000D01*
X13208000Y-13931900D02*
X13208000Y-14008100D01*
X13169900Y-13970000D02*
X13246100Y-13970000D01*
X13208000Y-14185900D02*
X13208000Y-14262100D01*
X13169900Y-14224000D02*
X13246100Y-14224000D01*
X13208000Y-14439900D02*
X13208000Y-14516100D01*
X13169900Y-14478000D02*
X13246100Y-14478000D01*
X13208000Y-14693900D02*
X13208000Y-14770100D01*
X13169900Y-14732000D02*
X13246100Y-14732000D01*
X13462000Y-10883900D02*
X13462000Y-10960100D01*
X13423900Y-10922000D02*
X13500100Y-10922000D01*
X13462000Y-11137900D02*
X13462000Y-11214100D01*
X13423900Y-11176000D02*
X13500100Y-11176000D01*
X13462000Y-11391900D02*
X13462000Y-11468100D01*
X13423900Y-11430000D02*
X13500100Y-11430000D01*
X13462000Y-11645900D02*
X13462000Y-11722100D01*
X13423900Y-11684000D02*
X13500100Y-11684000D01*
X13462000Y-11899900D02*
X13462000Y-11976100D01*
X13423900Y-11938000D02*
X13500100Y-11938000D01*
X13462000Y-12153900D02*
X13462000Y-12230100D01*
X13423900Y-12192000D02*
X13500100Y-12192000D01*
X13462000Y-12407900D02*
X13462000Y-12484100D01*
X13423900Y-12446000D02*
X13500100Y-12446000D01*
X13462000Y-12661900D02*
X13462000Y-12738100D01*
X13423900Y-12700000D02*
X13500100Y-12700000D01*
X13462000Y-12915900D02*
X13462000Y-12992100D01*
X13423900Y-12954000D02*
X13500100Y-12954000D01*
X13462000Y-13169900D02*
X13462000Y-13246100D01*
X13423900Y-13208000D02*
X13500100Y-13208000D01*
X13462000Y-13423900D02*
X13462000Y-13500100D01*
X13423900Y-13462000D02*
X13500100Y-13462000D01*
X13462000Y-13677900D02*
X13462000Y-13754100D01*
X13423900Y-13716000D02*
X13500100Y-13716000D01*
X13462000Y-13931900D02*
X13462000Y-14008100D01*
X13423900Y-13970000D02*
X13500100Y-13970000D01*
X13462000Y-14185900D02*
X13462000Y-14262100D01*
X13423900Y-14224000D02*
X13500100Y-14224000D01*
X13462000Y-14439900D02*
X13462000Y-14516100D01*
X13423900Y-14478000D02*
X13500100Y-14478000D01*
X13462000Y-14693900D02*
X13462000Y-14770100D01*
X13423900Y-14732000D02*
X13500100Y-14732000D01*
X13716000Y-10883900D02*
X13716000Y-10960100D01*
X13677900Y-10922000D02*
X13754100Y-10922000D01*
X13716000Y-11137900D02*
X13716000Y-11214100D01*
X13677900Y-11176000D02*
X13754100Y-11176000D01*
X13716000Y-11391900D02*
X13716000Y-11468100D01*
X13677900Y-11430000D02*
X13754100Y-11430000D01*
X13716000Y-11645900D02*
X13716000Y-11722100D01*
X13677900Y-11684000D02*
X13754100Y-11684000D01*
X13716000Y-11899900D02*
X13716000Y-11976100D01*
X13677900Y-11938000D02*
X13754100Y-11938000D01*
X13716000Y-12153900D02*
X13716000Y-12230100D01*
X13677900Y-12192000D02*
X13754100Y-12192000D01*
X13716000Y-12407900D02*
X13716000Y-12484100D01*
X13677900Y-12446000D02*
X13754100Y-12446000D01*
X13716000Y-12661900D02*
X13716000Y-12738100D01*
X13677900Y-12700000D02*
X13754100Y-12700000D01*
X13716000Y-12915900D02*
X13716000Y-12992100D01*
X13677900Y-12954000D02*
X13754100Y-12954000D01*
X13716000Y-13169900D02*
X13716000Y-13246100D01*
X13677900Y-13208000D02*
X13754100Y-13208000D01*
X13716000Y-13423900D02*
X13716000Y-13500100D01*
X13677900Y-13462000D02*
X13754100Y-13462000D01*
X13716000Y-13677900D02*
X13716000Y-13754100D01*
X13677900Y-13716000D02*
X13754100Y-13716000D01*
X13716000Y-13931900D02*
X13716000Y-14008100D01*
X13677900Y-13970000D02*
X13754100Y-13970000D01*
X13716000Y-14185900D02*
X13716000Y-14262100D01*
X13677900Y-14224000D02*
X13754100Y-14224000D01*
X13716000Y-14439900D02*
X13716000Y-14516100D01*
X13677900Y-14478000D02*
X13754100Y-14478000D01*
X13716000Y-14693900D02*
X13716000Y-14770100D01*
X13677900Y-14732000D02*
X13754100Y-14732000D01*
X13970000Y-10883900D02*
X13970000Y-10960100D01*
X13931900Y-10922000D02*
X14008100Y-10922000D01*
X13970000Y-11137900D02*
X13970000Y-11214100D01*
X13931900Y-11176000D02*
X14008100Y-11176000D01*
X13970000Y-11391900D02*
X13970000Y-11468100D01*
X13931900Y-11430000D02*
X14008100Y-11430000D01*
X13970000Y-11645900D02*
X13970000Y-11722100D01*
X13931900Y-11684000D02*
X14008100Y-11684000D01*
X13970000Y-11899900D02*
X13970000Y-11976100D01*
X13931900Y-11938000D02*
X14008100Y-11938000D01*
X13970000Y-12153900D02*
X13970000Y-12230100D01*
X13931900Y-12192000D02*
X14008100Y-12192000D01*
X13970000Y-12407900D02*
X13970000Y-12484100D01*
X13931900Y-12446000D02*
X14008100Y-12446000D01*
X13970000Y-12661900D02*
X13970000Y-12738100D01*
X13931900Y-12700000D02*
X14008100Y-12700000D01*
X13970000Y-12915900D02*
X13970000Y-12992100D01*
X13931900Y-12954000D02*
X14008100Y-12954000D01*
X13970000Y-13169900D02*
X13970000Y-13246100D01*
X13931900Y-13208000D02*
X14008100Y-13208000D01*
X13970000Y-13423900D02*
X13970000Y-13500100D01*
X13931900Y-13462000D02*
X14008100Y-13462000D01*
X13970000Y-13677900D02*
X13970000Y-13754100D01*
X13931900Y-13716000D02*
X14008100Y-13716000D01*
X13970000Y-13931900D02*
X13970000Y-14008100D01*
X13931900Y-13970000D02*
X14008100Y-13970000D01*
X13970000Y-14185900D02*
X13970000Y-14262100D01*
X13931900Y-14224000D02*
X14008100Y-14224000D01*
X13970000Y-14439900D02*
X13970000Y-14516100D01*
X13931900Y-14478000D02*
X14008100Y-14478000D01*
X13970000Y-14693900D02*
X13970000Y-14770100D01*
X13931900Y-14732000D02*
X14008100Y-14732000D01*
X14224000Y-10883900D02*
X14224000Y-10960100D01*
X14185900Y-10922000D02*
X14262100Y-10922000D01*
X14224000Y-11137900D02*
X14224000Y-11214100D01*
X14185900Y-11176000D02*
X14262100Y-11176000D01*
X14224000Y-11391900D02*
X14224000Y-11468100D01*
X14185900Y-11430000D02*
X14262100Y-11430000D01*
X14224000Y-11645900D02*
X14224000Y-11722100D01*
X14185900Y-11684000D02*
X14262100Y-11684000D01*
X14224000Y-11899900D02*
X14224000Y-11976100D01*
X14185900Y-11938000D02*
X14262100Y-11938000D01*
X14224000Y-12153900D02*
X14224000Y-12230100D01*
X14185900Y-12192000D02*
X14262100Y-12192000D01*
X14224000Y-12407900D02*
X14224000Y-12484100D01*
X14185900Y-12446000D02*
X14262100Y-12446000D01*
X14224000Y-12661900D02*
X14224000Y-12738100D01*
X14185900Y-12700000D02*
X14262100Y-12700000D01*
X14224000Y-12915900D02*
X14224000Y-12992100D01*
X14185900Y-12954000D02*
X14262100Y-12954000D01*
X14224000Y-13169900D02*
X14224000Y-13246100D01*
X14185900Y-13208000D02*
X14262100Y-13208000D01*
X14224000Y-13423900D02*
X14224000Y-13500100D01*
X14185900Y-13462000D02*
X14262100Y-13462000D01*
X14224000Y-13677900D02*
X14224000Y-13754100D01*
X14185900Y-13716000D02*
X14262100Y-13716000D01*
X14224000Y-13931900D02*
X14224000Y-14008100D01*
X14185900Y-13970000D02*
X14262100Y-13970000D01*
X14224000Y-14185900D02*
X14224000Y-14262100D01*
X14185900Y-14224000D02*
X14262100Y-14224000D01*
X14224000Y-14439900D02*
X14224000Y-14516100D01*
X14185900Y-14478000D02*
X14262100Y-14478000D01*
X14224000Y-14693900D02*
X14224000Y-14770100D01*
X14185900Y-14732000D02*
X14262100Y-14732000D01*
X14732000Y-12407900D02*
X14732000Y-12484100D01*
X14693900Y-12446000D02*
X14770100Y-12446000D01*
X14732000Y-13423900D02*
X14732000Y-13500100D01*
X14693900Y-13462000D02*
X14770100Y-13462000D01*
D15*
X9172285Y-8918285D02*
X9172285Y-8861716D01*
X9115716Y-8861716D01*
X9115716Y-8918285D01*
X9172285Y-8918285D01*
X9172285Y-9680285D02*
X9172285Y-9623716D01*
X9115716Y-9623716D01*
X9115716Y-9680285D01*
X9172285Y-9680285D01*
X9426285Y-8918285D02*
X9426285Y-8861716D01*
X9369716Y-8861716D01*
X9369716Y-8918285D01*
X9426285Y-8918285D01*
X9426285Y-9680285D02*
X9426285Y-9623716D01*
X9369716Y-9623716D01*
X9369716Y-9680285D01*
X9426285Y-9680285D01*
X9680285Y-8918285D02*
X9680285Y-8861716D01*
X9623716Y-8861716D01*
X9623716Y-8918285D01*
X9680285Y-8918285D01*
X9680285Y-9680285D02*
X9680285Y-9623716D01*
X9623716Y-9623716D01*
X9623716Y-9680285D01*
X9680285Y-9680285D01*
X9934285Y-8918285D02*
X9934285Y-8861716D01*
X9877716Y-8861716D01*
X9877716Y-8918285D01*
X9934285Y-8918285D01*
X9934285Y-9680285D02*
X9934285Y-9623716D01*
X9877716Y-9623716D01*
X9877716Y-9680285D01*
X9934285Y-9680285D01*
X14760284Y-12728284D02*
X14760284Y-12671715D01*
X14703715Y-12671715D01*
X14703715Y-12728284D01*
X14760284Y-12728284D01*
X14760284Y-12982284D02*
X14760284Y-12925715D01*
X14703715Y-12925715D01*
X14703715Y-12982284D01*
X14760284Y-12982284D01*
X14760284Y-13236284D02*
X14760284Y-13179715D01*
X14703715Y-13179715D01*
X14703715Y-13236284D01*
X14760284Y-13236284D01*
X15166684Y-11001085D02*
X15166684Y-10944516D01*
X15110115Y-10944516D01*
X15110115Y-11001085D01*
X15166684Y-11001085D01*
X15420684Y-11001085D02*
X15420684Y-10944516D01*
X15364115Y-10944516D01*
X15364115Y-11001085D01*
X15420684Y-11001085D01*
X15674684Y-11001085D02*
X15674684Y-10944516D01*
X15618115Y-10944516D01*
X15618115Y-11001085D01*
X15674684Y-11001085D01*
D16*
X16256000Y-11777000D02*
X16301000Y-11732000D01*
X16256000Y-11687000D01*
X16211000Y-11732000D01*
X16256000Y-11777000D01*
X16256000Y-12031000D02*
X16301000Y-11986000D01*
X16256000Y-11941000D01*
X16211000Y-11986000D01*
X16256000Y-12031000D01*
X16256000Y-12285000D02*
X16301000Y-12240000D01*
X16256000Y-12195000D01*
X16211000Y-12240000D01*
X16256000Y-12285000D01*
X16256000Y-12745000D02*
X16301000Y-12700000D01*
X16256000Y-12655000D01*
X16211000Y-12700000D01*
X16256000Y-12745000D01*
X16256000Y-12999000D02*
X16301000Y-12954000D01*
X16256000Y-12909000D01*
X16211000Y-12954000D01*
X16256000Y-12999000D01*
X16256000Y-13507000D02*
X16301000Y-13462000D01*
X16256000Y-13417000D01*
X16211000Y-13462000D01*
X16256000Y-13507000D01*
X16256000Y-13761000D02*
X16301000Y-13716000D01*
X16256000Y-13671000D01*
X16211000Y-13716000D01*
X16256000Y-13761000D01*
X16256000Y-14015000D02*
X16301000Y-13970000D01*
X16256000Y-13925000D01*
X16211000Y-13970000D01*
X16256000Y-14015000D01*
D17*
X8332000Y-8936250D02*
X8432000Y-9036250D01*
X8432000Y-8936250D02*
X8332000Y-9036250D01*
X8432000Y-8986250D02*
G75*
G03*
X8432000Y-8986250I-50000J0D01*
G01*
X8332000Y-9190250D02*
X8432000Y-9290250D01*
X8432000Y-9190250D02*
X8332000Y-9290250D01*
X8432000Y-9240250D02*
G75*
G03*
X8432000Y-9240250I-50000J0D01*
G01*
X8332000Y-9444250D02*
X8432000Y-9544250D01*
X8432000Y-9444250D02*
X8332000Y-9544250D01*
X8432000Y-9494250D02*
G75*
G03*
X8432000Y-9494250I-50000J0D01*
G01*
X10364000Y-5284000D02*
X10464000Y-5384000D01*
X10464000Y-5284000D02*
X10364000Y-5384000D01*
X10464000Y-5334000D02*
G75*
G03*
X10464000Y-5334000I-50000J0D01*
G01*
X10364000Y-5538000D02*
X10464000Y-5638000D01*
X10464000Y-5538000D02*
X10364000Y-5638000D01*
X10464000Y-5588000D02*
G75*
G03*
X10464000Y-5588000I-50000J0D01*
G01*
X10364000Y-5792000D02*
X10464000Y-5892000D01*
X10464000Y-5792000D02*
X10364000Y-5892000D01*
X10464000Y-5842000D02*
G75*
G03*
X10464000Y-5842000I-50000J0D01*
G01*
X10364000Y-6046000D02*
X10464000Y-6146000D01*
X10464000Y-6046000D02*
X10364000Y-6146000D01*
X10464000Y-6096000D02*
G75*
G03*
X10464000Y-6096000I-50000J0D01*
G01*
X10364000Y-6300000D02*
X10464000Y-6400000D01*
X10464000Y-6300000D02*
X10364000Y-6400000D01*
X10464000Y-6350000D02*
G75*
G03*
X10464000Y-6350000I-50000J0D01*
G01*
X10364000Y-6554000D02*
X10464000Y-6654000D01*
X10464000Y-6554000D02*
X10364000Y-6654000D01*
X10464000Y-6604000D02*
G75*
G03*
X10464000Y-6604000I-50000J0D01*
G01*
X10364000Y-6808000D02*
X10464000Y-6908000D01*
X10464000Y-6808000D02*
X10364000Y-6908000D01*
X10464000Y-6858000D02*
G75*
G03*
X10464000Y-6858000I-50000J0D01*
G01*
X10364000Y-7062000D02*
X10464000Y-7162000D01*
X10464000Y-7062000D02*
X10364000Y-7162000D01*
X10464000Y-7112000D02*
G75*
G03*
X10464000Y-7112000I-50000J0D01*
G01*
X10364000Y-7316000D02*
X10464000Y-7416000D01*
X10464000Y-7316000D02*
X10364000Y-7416000D01*
X10464000Y-7366000D02*
G75*
G03*
X10464000Y-7366000I-50000J0D01*
G01*
X10364000Y-7570000D02*
X10464000Y-7670000D01*
X10464000Y-7570000D02*
X10364000Y-7670000D01*
X10464000Y-7620000D02*
G75*
G03*
X10464000Y-7620000I-50000J0D01*
G01*
X10364000Y-7824000D02*
X10464000Y-7924000D01*
X10464000Y-7824000D02*
X10364000Y-7924000D01*
X10464000Y-7874000D02*
G75*
G03*
X10464000Y-7874000I-50000J0D01*
G01*
X10364000Y-8078000D02*
X10464000Y-8178000D01*
X10464000Y-8078000D02*
X10364000Y-8178000D01*
X10464000Y-8128000D02*
G75*
G03*
X10464000Y-8128000I-50000J0D01*
G01*
X10364000Y-8332000D02*
X10464000Y-8432000D01*
X10464000Y-8332000D02*
X10364000Y-8432000D01*
X10464000Y-8382000D02*
G75*
G03*
X10464000Y-8382000I-50000J0D01*
G01*
X10364000Y-8586000D02*
X10464000Y-8686000D01*
X10464000Y-8586000D02*
X10364000Y-8686000D01*
X10464000Y-8636000D02*
G75*
G03*
X10464000Y-8636000I-50000J0D01*
G01*
X10364000Y-8840000D02*
X10464000Y-8940000D01*
X10464000Y-8840000D02*
X10364000Y-8940000D01*
X10464000Y-8890000D02*
G75*
G03*
X10464000Y-8890000I-50000J0D01*
G01*
X10364000Y-9094000D02*
X10464000Y-9194000D01*
X10464000Y-9094000D02*
X10364000Y-9194000D01*
X10464000Y-9144000D02*
G75*
G03*
X10464000Y-9144000I-50000J0D01*
G01*
X10364000Y-9348000D02*
X10464000Y-9448000D01*
X10464000Y-9348000D02*
X10364000Y-9448000D01*
X10464000Y-9398000D02*
G75*
G03*
X10464000Y-9398000I-50000J0D01*
G01*
X10364000Y-9602000D02*
X10464000Y-9702000D01*
X10464000Y-9602000D02*
X10364000Y-9702000D01*
X10464000Y-9652000D02*
G75*
G03*
X10464000Y-9652000I-50000J0D01*
G01*
X10364000Y-9856000D02*
X10464000Y-9956000D01*
X10464000Y-9856000D02*
X10364000Y-9956000D01*
X10464000Y-9906000D02*
G75*
G03*
X10464000Y-9906000I-50000J0D01*
G01*
X10364000Y-10110000D02*
X10464000Y-10210000D01*
X10464000Y-10110000D02*
X10364000Y-10210000D01*
X10464000Y-10160000D02*
G75*
G03*
X10464000Y-10160000I-50000J0D01*
G01*
X13666000Y-5284000D02*
X13766000Y-5384000D01*
X13766000Y-5284000D02*
X13666000Y-5384000D01*
X13766000Y-5334000D02*
G75*
G03*
X13766000Y-5334000I-50000J0D01*
G01*
X13666000Y-5538000D02*
X13766000Y-5638000D01*
X13766000Y-5538000D02*
X13666000Y-5638000D01*
X13766000Y-5588000D02*
G75*
G03*
X13766000Y-5588000I-50000J0D01*
G01*
X13666000Y-5792000D02*
X13766000Y-5892000D01*
X13766000Y-5792000D02*
X13666000Y-5892000D01*
X13766000Y-5842000D02*
G75*
G03*
X13766000Y-5842000I-50000J0D01*
G01*
X13666000Y-6046000D02*
X13766000Y-6146000D01*
X13766000Y-6046000D02*
X13666000Y-6146000D01*
X13766000Y-6096000D02*
G75*
G03*
X13766000Y-6096000I-50000J0D01*
G01*
X13666000Y-6300000D02*
X13766000Y-6400000D01*
X13766000Y-6300000D02*
X13666000Y-6400000D01*
X13766000Y-6350000D02*
G75*
G03*
X13766000Y-6350000I-50000J0D01*
G01*
X13666000Y-6554000D02*
X13766000Y-6654000D01*
X13766000Y-6554000D02*
X13666000Y-6654000D01*
X13766000Y-6604000D02*
G75*
G03*
X13766000Y-6604000I-50000J0D01*
G01*
X13666000Y-6808000D02*
X13766000Y-6908000D01*
X13766000Y-6808000D02*
X13666000Y-6908000D01*
X13766000Y-6858000D02*
G75*
G03*
X13766000Y-6858000I-50000J0D01*
G01*
X13666000Y-7062000D02*
X13766000Y-7162000D01*
X13766000Y-7062000D02*
X13666000Y-7162000D01*
X13766000Y-7112000D02*
G75*
G03*
X13766000Y-7112000I-50000J0D01*
G01*
X13666000Y-7316000D02*
X13766000Y-7416000D01*
X13766000Y-7316000D02*
X13666000Y-7416000D01*
X13766000Y-7366000D02*
G75*
G03*
X13766000Y-7366000I-50000J0D01*
G01*
X13666000Y-7570000D02*
X13766000Y-7670000D01*
X13766000Y-7570000D02*
X13666000Y-7670000D01*
X13766000Y-7620000D02*
G75*
G03*
X13766000Y-7620000I-50000J0D01*
G01*
X13666000Y-7824000D02*
X13766000Y-7924000D01*
X13766000Y-7824000D02*
X13666000Y-7924000D01*
X13766000Y-7874000D02*
G75*
G03*
X13766000Y-7874000I-50000J0D01*
G01*
X13666000Y-8078000D02*
X13766000Y-8178000D01*
X13766000Y-8078000D02*
X13666000Y-8178000D01*
X13766000Y-8128000D02*
G75*
G03*
X13766000Y-8128000I-50000J0D01*
G01*
X13666000Y-8332000D02*
X13766000Y-8432000D01*
X13766000Y-8332000D02*
X13666000Y-8432000D01*
X13766000Y-8382000D02*
G75*
G03*
X13766000Y-8382000I-50000J0D01*
G01*
X13666000Y-8586000D02*
X13766000Y-8686000D01*
X13766000Y-8586000D02*
X13666000Y-8686000D01*
X13766000Y-8636000D02*
G75*
G03*
X13766000Y-8636000I-50000J0D01*
G01*
X13666000Y-8840000D02*
X13766000Y-8940000D01*
X13766000Y-8840000D02*
X13666000Y-8940000D01*
X13766000Y-8890000D02*
G75*
G03*
X13766000Y-8890000I-50000J0D01*
G01*
X13666000Y-9094000D02*
X13766000Y-9194000D01*
X13766000Y-9094000D02*
X13666000Y-9194000D01*
X13766000Y-9144000D02*
G75*
G03*
X13766000Y-9144000I-50000J0D01*
G01*
X13666000Y-9348000D02*
X13766000Y-9448000D01*
X13766000Y-9348000D02*
X13666000Y-9448000D01*
X13766000Y-9398000D02*
G75*
G03*
X13766000Y-9398000I-50000J0D01*
G01*
X13666000Y-9602000D02*
X13766000Y-9702000D01*
X13766000Y-9602000D02*
X13666000Y-9702000D01*
X13766000Y-9652000D02*
G75*
G03*
X13766000Y-9652000I-50000J0D01*
G01*
X13666000Y-9856000D02*
X13766000Y-9956000D01*
X13766000Y-9856000D02*
X13666000Y-9956000D01*
X13766000Y-9906000D02*
G75*
G03*
X13766000Y-9906000I-50000J0D01*
G01*
X13666000Y-10110000D02*
X13766000Y-10210000D01*
X13766000Y-10110000D02*
X13666000Y-10210000D01*
X13766000Y-10160000D02*
G75*
G03*
X13766000Y-10160000I-50000J0D01*
G01*
X14174000Y-8332000D02*
X14274000Y-8432000D01*
X14274000Y-8332000D02*
X14174000Y-8432000D01*
X14274000Y-8382000D02*
G75*
G03*
X14274000Y-8382000I-50000J0D01*
G01*
X14174000Y-8586000D02*
X14274000Y-8686000D01*
X14274000Y-8586000D02*
X14174000Y-8686000D01*
X14274000Y-8636000D02*
G75*
G03*
X14274000Y-8636000I-50000J0D01*
G01*
X14174000Y-8840000D02*
X14274000Y-8940000D01*
X14274000Y-8840000D02*
X14174000Y-8940000D01*
X14274000Y-8890000D02*
G75*
G03*
X14274000Y-8890000I-50000J0D01*
G01*
X14174000Y-9094000D02*
X14274000Y-9194000D01*
X14274000Y-9094000D02*
X14174000Y-9194000D01*
X14274000Y-9144000D02*
G75*
G03*
X14274000Y-9144000I-50000J0D01*
G01*
X14940000Y-5486500D02*
X15040000Y-5586500D01*
X15040000Y-5486500D02*
X14940000Y-5586500D01*
X15040000Y-5536500D02*
G75*
G03*
X15040000Y-5536500I-50000J0D01*
G01*
X14940000Y-6936500D02*
X15040000Y-7036500D01*
X15040000Y-6936500D02*
X14940000Y-7036500D01*
X15040000Y-6986500D02*
G75*
G03*
X15040000Y-6986500I-50000J0D01*
G01*
X15190000Y-6936500D02*
X15290000Y-7036500D01*
X15290000Y-6936500D02*
X15190000Y-7036500D01*
X15290000Y-6986500D02*
G75*
G03*
X15290000Y-6986500I-50000J0D01*
G01*
X15440000Y-5486500D02*
X15540000Y-5586500D01*
X15540000Y-5486500D02*
X15440000Y-5586500D01*
X15540000Y-5536500D02*
G75*
G03*
X15540000Y-5536500I-50000J0D01*
G01*
X15440000Y-6936500D02*
X15540000Y-7036500D01*
X15540000Y-6936500D02*
X15440000Y-7036500D01*
X15540000Y-6986500D02*
G75*
G03*
X15540000Y-6986500I-50000J0D01*
G01*
D18*
X11125000Y-5283000D02*
X11227000Y-5385000D01*
X11227000Y-5283000D02*
X11125000Y-5385000D01*
X11176000Y-5283000D02*
X11176000Y-5385000D01*
X11125000Y-5334000D02*
X11227000Y-5334000D01*
X11125000Y-5537000D02*
X11227000Y-5639000D01*
X11227000Y-5537000D02*
X11125000Y-5639000D01*
X11176000Y-5537000D02*
X11176000Y-5639000D01*
X11125000Y-5588000D02*
X11227000Y-5588000D01*
X11125000Y-5791000D02*
X11227000Y-5893000D01*
X11227000Y-5791000D02*
X11125000Y-5893000D01*
X11176000Y-5791000D02*
X11176000Y-5893000D01*
X11125000Y-5842000D02*
X11227000Y-5842000D01*
X11125000Y-6045000D02*
X11227000Y-6147000D01*
X11227000Y-6045000D02*
X11125000Y-6147000D01*
X11176000Y-6045000D02*
X11176000Y-6147000D01*
X11125000Y-6096000D02*
X11227000Y-6096000D01*
X11125000Y-6299000D02*
X11227000Y-6401000D01*
X11227000Y-6299000D02*
X11125000Y-6401000D01*
X11176000Y-6299000D02*
X11176000Y-6401000D01*
X11125000Y-6350000D02*
X11227000Y-6350000D01*
X11125000Y-6553000D02*
X11227000Y-6655000D01*
X11227000Y-6553000D02*
X11125000Y-6655000D01*
X11176000Y-6553000D02*
X11176000Y-6655000D01*
X11125000Y-6604000D02*
X11227000Y-6604000D01*
X11125000Y-6807000D02*
X11227000Y-6909000D01*
X11227000Y-6807000D02*
X11125000Y-6909000D01*
X11176000Y-6807000D02*
X11176000Y-6909000D01*
X11125000Y-6858000D02*
X11227000Y-6858000D01*
X11125000Y-7061000D02*
X11227000Y-7163000D01*
X11227000Y-7061000D02*
X11125000Y-7163000D01*
X11176000Y-7061000D02*
X11176000Y-7163000D01*
X11125000Y-7112000D02*
X11227000Y-7112000D01*
X11125000Y-7315000D02*
X11227000Y-7417000D01*
X11227000Y-7315000D02*
X11125000Y-7417000D01*
X11176000Y-7315000D02*
X11176000Y-7417000D01*
X11125000Y-7366000D02*
X11227000Y-7366000D01*
X11125000Y-7569000D02*
X11227000Y-7671000D01*
X11227000Y-7569000D02*
X11125000Y-7671000D01*
X11176000Y-7569000D02*
X11176000Y-7671000D01*
X11125000Y-7620000D02*
X11227000Y-7620000D01*
X11125000Y-7823000D02*
X11227000Y-7925000D01*
X11227000Y-7823000D02*
X11125000Y-7925000D01*
X11176000Y-7823000D02*
X11176000Y-7925000D01*
X11125000Y-7874000D02*
X11227000Y-7874000D01*
X11125000Y-8077000D02*
X11227000Y-8179000D01*
X11227000Y-8077000D02*
X11125000Y-8179000D01*
X11176000Y-8077000D02*
X11176000Y-8179000D01*
X11125000Y-8128000D02*
X11227000Y-8128000D01*
X11125000Y-8331000D02*
X11227000Y-8433000D01*
X11227000Y-8331000D02*
X11125000Y-8433000D01*
X11176000Y-8331000D02*
X11176000Y-8433000D01*
X11125000Y-8382000D02*
X11227000Y-8382000D01*
X11125000Y-8585000D02*
X11227000Y-8687000D01*
X11227000Y-8585000D02*
X11125000Y-8687000D01*
X11176000Y-8585000D02*
X11176000Y-8687000D01*
X11125000Y-8636000D02*
X11227000Y-8636000D01*
X11125000Y-8839000D02*
X11227000Y-8941000D01*
X11227000Y-8839000D02*
X11125000Y-8941000D01*
X11176000Y-8839000D02*
X11176000Y-8941000D01*
X11125000Y-8890000D02*
X11227000Y-8890000D01*
X11125000Y-9093000D02*
X11227000Y-9195000D01*
X11227000Y-9093000D02*
X11125000Y-9195000D01*
X11176000Y-9093000D02*
X11176000Y-9195000D01*
X11125000Y-9144000D02*
X11227000Y-9144000D01*
X11125000Y-9347000D02*
X11227000Y-9449000D01*
X11227000Y-9347000D02*
X11125000Y-9449000D01*
X11176000Y-9347000D02*
X11176000Y-9449000D01*
X11125000Y-9398000D02*
X11227000Y-9398000D01*
X11125000Y-9601000D02*
X11227000Y-9703000D01*
X11227000Y-9601000D02*
X11125000Y-9703000D01*
X11176000Y-9601000D02*
X11176000Y-9703000D01*
X11125000Y-9652000D02*
X11227000Y-9652000D01*
X11125000Y-9855000D02*
X11227000Y-9957000D01*
X11227000Y-9855000D02*
X11125000Y-9957000D01*
X11176000Y-9855000D02*
X11176000Y-9957000D01*
X11125000Y-9906000D02*
X11227000Y-9906000D01*
X11125000Y-10109000D02*
X11227000Y-10211000D01*
X11227000Y-10109000D02*
X11125000Y-10211000D01*
X11176000Y-10109000D02*
X11176000Y-10211000D01*
X11125000Y-10160000D02*
X11227000Y-10160000D01*
X11760000Y-10086000D02*
X11862000Y-10188000D01*
X11862000Y-10086000D02*
X11760000Y-10188000D01*
X11811000Y-10086000D02*
X11811000Y-10188000D01*
X11760000Y-10137000D02*
X11862000Y-10137000D01*
X12014000Y-10086000D02*
X12116000Y-10188000D01*
X12116000Y-10086000D02*
X12014000Y-10188000D01*
X12065000Y-10086000D02*
X12065000Y-10188000D01*
X12014000Y-10137000D02*
X12116000Y-10137000D01*
X12268000Y-10086000D02*
X12370000Y-10188000D01*
X12370000Y-10086000D02*
X12268000Y-10188000D01*
X12319000Y-10086000D02*
X12319000Y-10188000D01*
X12268000Y-10137000D02*
X12370000Y-10137000D01*
X12903000Y-5283000D02*
X13005000Y-5385000D01*
X13005000Y-5283000D02*
X12903000Y-5385000D01*
X12954000Y-5283000D02*
X12954000Y-5385000D01*
X12903000Y-5334000D02*
X13005000Y-5334000D01*
X12903000Y-5537000D02*
X13005000Y-5639000D01*
X13005000Y-5537000D02*
X12903000Y-5639000D01*
X12954000Y-5537000D02*
X12954000Y-5639000D01*
X12903000Y-5588000D02*
X13005000Y-5588000D01*
X12903000Y-5791000D02*
X13005000Y-5893000D01*
X13005000Y-5791000D02*
X12903000Y-5893000D01*
X12954000Y-5791000D02*
X12954000Y-5893000D01*
X12903000Y-5842000D02*
X13005000Y-5842000D01*
X12903000Y-6045000D02*
X13005000Y-6147000D01*
X13005000Y-6045000D02*
X12903000Y-6147000D01*
X12954000Y-6045000D02*
X12954000Y-6147000D01*
X12903000Y-6096000D02*
X13005000Y-6096000D01*
X12903000Y-6299000D02*
X13005000Y-6401000D01*
X13005000Y-6299000D02*
X12903000Y-6401000D01*
X12954000Y-6299000D02*
X12954000Y-6401000D01*
X12903000Y-6350000D02*
X13005000Y-6350000D01*
X12903000Y-6553000D02*
X13005000Y-6655000D01*
X13005000Y-6553000D02*
X12903000Y-6655000D01*
X12954000Y-6553000D02*
X12954000Y-6655000D01*
X12903000Y-6604000D02*
X13005000Y-6604000D01*
X12903000Y-6807000D02*
X13005000Y-6909000D01*
X13005000Y-6807000D02*
X12903000Y-6909000D01*
X12954000Y-6807000D02*
X12954000Y-6909000D01*
X12903000Y-6858000D02*
X13005000Y-6858000D01*
X12903000Y-7061000D02*
X13005000Y-7163000D01*
X13005000Y-7061000D02*
X12903000Y-7163000D01*
X12954000Y-7061000D02*
X12954000Y-7163000D01*
X12903000Y-7112000D02*
X13005000Y-7112000D01*
X12903000Y-7315000D02*
X13005000Y-7417000D01*
X13005000Y-7315000D02*
X12903000Y-7417000D01*
X12954000Y-7315000D02*
X12954000Y-7417000D01*
X12903000Y-7366000D02*
X13005000Y-7366000D01*
X12903000Y-7569000D02*
X13005000Y-7671000D01*
X13005000Y-7569000D02*
X12903000Y-7671000D01*
X12954000Y-7569000D02*
X12954000Y-7671000D01*
X12903000Y-7620000D02*
X13005000Y-7620000D01*
X12903000Y-7823000D02*
X13005000Y-7925000D01*
X13005000Y-7823000D02*
X12903000Y-7925000D01*
X12954000Y-7823000D02*
X12954000Y-7925000D01*
X12903000Y-7874000D02*
X13005000Y-7874000D01*
X12903000Y-8077000D02*
X13005000Y-8179000D01*
X13005000Y-8077000D02*
X12903000Y-8179000D01*
X12954000Y-8077000D02*
X12954000Y-8179000D01*
X12903000Y-8128000D02*
X13005000Y-8128000D01*
X12903000Y-8331000D02*
X13005000Y-8433000D01*
X13005000Y-8331000D02*
X12903000Y-8433000D01*
X12954000Y-8331000D02*
X12954000Y-8433000D01*
X12903000Y-8382000D02*
X13005000Y-8382000D01*
X12903000Y-8585000D02*
X13005000Y-8687000D01*
X13005000Y-8585000D02*
X12903000Y-8687000D01*
X12954000Y-8585000D02*
X12954000Y-8687000D01*
X12903000Y-8636000D02*
X13005000Y-8636000D01*
X12903000Y-8839000D02*
X13005000Y-8941000D01*
X13005000Y-8839000D02*
X12903000Y-8941000D01*
X12954000Y-8839000D02*
X12954000Y-8941000D01*
X12903000Y-8890000D02*
X13005000Y-8890000D01*
X12903000Y-9093000D02*
X13005000Y-9195000D01*
X13005000Y-9093000D02*
X12903000Y-9195000D01*
X12954000Y-9093000D02*
X12954000Y-9195000D01*
X12903000Y-9144000D02*
X13005000Y-9144000D01*
X12903000Y-9347000D02*
X13005000Y-9449000D01*
X13005000Y-9347000D02*
X12903000Y-9449000D01*
X12954000Y-9347000D02*
X12954000Y-9449000D01*
X12903000Y-9398000D02*
X13005000Y-9398000D01*
X12903000Y-9601000D02*
X13005000Y-9703000D01*
X13005000Y-9601000D02*
X12903000Y-9703000D01*
X12954000Y-9601000D02*
X12954000Y-9703000D01*
X12903000Y-9652000D02*
X13005000Y-9652000D01*
X12903000Y-9855000D02*
X13005000Y-9957000D01*
X13005000Y-9855000D02*
X12903000Y-9957000D01*
X12954000Y-9855000D02*
X12954000Y-9957000D01*
X12903000Y-9906000D02*
X13005000Y-9906000D01*
X12903000Y-10109000D02*
X13005000Y-10211000D01*
X13005000Y-10109000D02*
X12903000Y-10211000D01*
X12954000Y-10109000D02*
X12954000Y-10211000D01*
X12903000Y-10160000D02*
X13005000Y-10160000D01*
D19*
X7975000Y-7748000D02*
X8085000Y-7858000D01*
X8085000Y-7748000D02*
X7975000Y-7858000D01*
X8068891Y-7841891D02*
X8068891Y-7764109D01*
X7991109Y-7764109D01*
X7991109Y-7841891D01*
X8068891Y-7841891D01*
X7975000Y-8398000D02*
X8085000Y-8508000D01*
X8085000Y-8398000D02*
X7975000Y-8508000D01*
X8068891Y-8491891D02*
X8068891Y-8414109D01*
X7991109Y-8414109D01*
X7991109Y-8491891D01*
X8068891Y-8491891D01*
X8425000Y-7748000D02*
X8535000Y-7858000D01*
X8535000Y-7748000D02*
X8425000Y-7858000D01*
X8518891Y-7841891D02*
X8518891Y-7764109D01*
X8441109Y-7764109D01*
X8441109Y-7841891D01*
X8518891Y-7841891D01*
X8425000Y-8398000D02*
X8535000Y-8508000D01*
X8535000Y-8398000D02*
X8425000Y-8508000D01*
X8518891Y-8491891D02*
X8518891Y-8414109D01*
X8441109Y-8414109D01*
X8441109Y-8491891D01*
X8518891Y-8491891D01*
X9308500Y-7748000D02*
X9418500Y-7858000D01*
X9418500Y-7748000D02*
X9308500Y-7858000D01*
X9402391Y-7841891D02*
X9402391Y-7764109D01*
X9324609Y-7764109D01*
X9324609Y-7841891D01*
X9402391Y-7841891D01*
X9308500Y-8398000D02*
X9418500Y-8508000D01*
X9418500Y-8398000D02*
X9308500Y-8508000D01*
X9402391Y-8491891D02*
X9402391Y-8414109D01*
X9324609Y-8414109D01*
X9324609Y-8491891D01*
X9402391Y-8491891D01*
X9758500Y-7748000D02*
X9868500Y-7858000D01*
X9868500Y-7748000D02*
X9758500Y-7858000D01*
X9852391Y-7841891D02*
X9852391Y-7764109D01*
X9774609Y-7764109D01*
X9774609Y-7841891D01*
X9852391Y-7841891D01*
X9758500Y-8398000D02*
X9868500Y-8508000D01*
X9868500Y-8398000D02*
X9758500Y-8508000D01*
X9852391Y-8491891D02*
X9852391Y-8414109D01*
X9774609Y-8414109D01*
X9774609Y-8491891D01*
X9852391Y-8491891D01*
D20*
X8768000Y-12562000D02*
X8885000Y-12679000D01*
X8885000Y-12562000D02*
X8768000Y-12679000D01*
X8826500Y-12679000D02*
X8885000Y-12620500D01*
X8826500Y-12562000D01*
X8768000Y-12620500D01*
X8826500Y-12679000D01*
D21*
X8826500Y-10545500D02*
X8826500Y-10695500D01*
X8751500Y-10620500D02*
X8901500Y-10620500D01*
X8901500Y-10620500D02*
G75*
G03*
X8901500Y-10620500I-75000J0D01*
G01*
X14680000Y-6161500D02*
X14680000Y-6311500D01*
X14605000Y-6236500D02*
X14755000Y-6236500D01*
X14755000Y-6236500D02*
G75*
G03*
X14755000Y-6236500I-75000J0D01*
G01*
D11*
X14755000Y-6301500D02*
X14755000Y-6171500D01*
X14605000Y-6301500D02*
X14605000Y-6171500D01*
X14755000Y-6171500D02*
G75*
G03*
X14605000Y-6171500I-75000J0D01*
G01*
X14605000Y-6301500D02*
G75*
G03*
X14755000Y-6301500I75000J0D01*
G01*
D21*
X15800000Y-6161500D02*
X15800000Y-6311500D01*
X15725000Y-6236500D02*
X15875000Y-6236500D01*
X15875000Y-6236500D02*
G75*
G03*
X15875000Y-6236500I-75000J0D01*
G01*
D11*
X15875000Y-6301500D02*
X15875000Y-6171500D01*
X15725000Y-6301500D02*
X15725000Y-6171500D01*
X15875000Y-6171500D02*
G75*
G03*
X15725000Y-6171500I-75000J0D01*
G01*
X15725000Y-6301500D02*
G75*
G03*
X15875000Y-6301500I75000J0D01*
G01*
D22*
X7708389Y-5543807D02*
X7708389Y-5367028D01*
X7531611Y-5367028D01*
X7531611Y-5543807D01*
X7708389Y-5543807D01*
X7745000Y-5455418D02*
G75*
G03*
X7745000Y-5455418I-125000J0D01*
G01*
X7708389Y-14693389D02*
X7708389Y-14516611D01*
X7531611Y-14516611D01*
X7531611Y-14693389D01*
X7708389Y-14693389D01*
X7745000Y-14605000D02*
G75*
G03*
X7745000Y-14605000I-125000J0D01*
G01*
X16852389Y-5549389D02*
X16852389Y-5372611D01*
X16675611Y-5372611D01*
X16675611Y-5549389D01*
X16852389Y-5549389D01*
X16889000Y-5461000D02*
G75*
G03*
X16889000Y-5461000I-125000J0D01*
G01*
X16852389Y-14693389D02*
X16852389Y-14516611D01*
X16675611Y-14516611D01*
X16675611Y-14693389D01*
X16852389Y-14693389D01*
X16889000Y-14605000D02*
G75*
G03*
X16889000Y-14605000I-125000J0D01*
G01*
D11*
X7494714Y-15298381D02*
X7494714Y-15098381D01*
X7542333Y-15098381D01*
X7570904Y-15107905D01*
X7589952Y-15126953D01*
X7599476Y-15146000D01*
X7609000Y-15184095D01*
X7609000Y-15212667D01*
X7599476Y-15250762D01*
X7589952Y-15269810D01*
X7570904Y-15288857D01*
X7542333Y-15298381D01*
X7494714Y-15298381D01*
X7694714Y-15298381D02*
X7694714Y-15165048D01*
X7694714Y-15203143D02*
X7704238Y-15184095D01*
X7713762Y-15174572D01*
X7732809Y-15165048D01*
X7751857Y-15165048D01*
X7818523Y-15298381D02*
X7818523Y-15165048D01*
X7818523Y-15098381D02*
X7809000Y-15107905D01*
X7818523Y-15117429D01*
X7828047Y-15107905D01*
X7818523Y-15098381D01*
X7818523Y-15117429D01*
X7942333Y-15298381D02*
X7923285Y-15288857D01*
X7913762Y-15269810D01*
X7913762Y-15098381D01*
X8047095Y-15298381D02*
X8028047Y-15288857D01*
X8018523Y-15269810D01*
X8018523Y-15098381D01*
X8275666Y-15298381D02*
X8275666Y-15098381D01*
X8342333Y-15241238D01*
X8409000Y-15098381D01*
X8409000Y-15298381D01*
X8589952Y-15298381D02*
X8589952Y-15193619D01*
X8580428Y-15174572D01*
X8561381Y-15165048D01*
X8523285Y-15165048D01*
X8504238Y-15174572D01*
X8589952Y-15288857D02*
X8570905Y-15298381D01*
X8523285Y-15298381D01*
X8504238Y-15288857D01*
X8494714Y-15269810D01*
X8494714Y-15250762D01*
X8504238Y-15231714D01*
X8523285Y-15222191D01*
X8570905Y-15222191D01*
X8589952Y-15212667D01*
X8685190Y-15165048D02*
X8685190Y-15365048D01*
X8685190Y-15174572D02*
X8704238Y-15165048D01*
X8742333Y-15165048D01*
X8761381Y-15174572D01*
X8770905Y-15184095D01*
X8780428Y-15203143D01*
X8780428Y-15260286D01*
X8770905Y-15279333D01*
X8761381Y-15288857D01*
X8742333Y-15298381D01*
X8704238Y-15298381D01*
X8685190Y-15288857D01*
X8866143Y-15279333D02*
X8875666Y-15288857D01*
X8866143Y-15298381D01*
X8856619Y-15288857D01*
X8866143Y-15279333D01*
X8866143Y-15298381D01*
X8866143Y-15174572D02*
X8875666Y-15184095D01*
X8866143Y-15193619D01*
X8856619Y-15184095D01*
X8866143Y-15174572D01*
X8866143Y-15193619D01*
D12*
X7207095Y-15612905D02*
X7237095Y-15642905D01*
X7237095Y-15612905D02*
X7207095Y-15642905D01*
D11*
X7532809Y-15518381D02*
X7551857Y-15518381D01*
X7570904Y-15527905D01*
X7580428Y-15537429D01*
X7589952Y-15556476D01*
X7599476Y-15594572D01*
X7599476Y-15642191D01*
X7589952Y-15680286D01*
X7580428Y-15699333D01*
X7570904Y-15708857D01*
X7551857Y-15718381D01*
X7532809Y-15718381D01*
X7513762Y-15708857D01*
X7504238Y-15699333D01*
X7494714Y-15680286D01*
X7485190Y-15642191D01*
X7485190Y-15594572D01*
X7494714Y-15556476D01*
X7504238Y-15537429D01*
X7513762Y-15527905D01*
X7532809Y-15518381D01*
X7685190Y-15699333D02*
X7694714Y-15708857D01*
X7685190Y-15718381D01*
X7675666Y-15708857D01*
X7685190Y-15699333D01*
X7685190Y-15718381D01*
X7761381Y-15518381D02*
X7885190Y-15518381D01*
X7818523Y-15594572D01*
X7847095Y-15594572D01*
X7866143Y-15604095D01*
X7875666Y-15613619D01*
X7885190Y-15632667D01*
X7885190Y-15680286D01*
X7875666Y-15699333D01*
X7866143Y-15708857D01*
X7847095Y-15718381D01*
X7789952Y-15718381D01*
X7770904Y-15708857D01*
X7761381Y-15699333D01*
X8009000Y-15518381D02*
X8028047Y-15518381D01*
X8047095Y-15527905D01*
X8056619Y-15537429D01*
X8066143Y-15556476D01*
X8075666Y-15594572D01*
X8075666Y-15642191D01*
X8066143Y-15680286D01*
X8056619Y-15699333D01*
X8047095Y-15708857D01*
X8028047Y-15718381D01*
X8009000Y-15718381D01*
X7989952Y-15708857D01*
X7980428Y-15699333D01*
X7970904Y-15680286D01*
X7961381Y-15642191D01*
X7961381Y-15594572D01*
X7970904Y-15556476D01*
X7980428Y-15537429D01*
X7989952Y-15527905D01*
X8009000Y-15518381D01*
X8199476Y-15518381D02*
X8218523Y-15518381D01*
X8237571Y-15527905D01*
X8247095Y-15537429D01*
X8256619Y-15556476D01*
X8266143Y-15594572D01*
X8266143Y-15642191D01*
X8256619Y-15680286D01*
X8247095Y-15699333D01*
X8237571Y-15708857D01*
X8218523Y-15718381D01*
X8199476Y-15718381D01*
X8180428Y-15708857D01*
X8170904Y-15699333D01*
X8161381Y-15680286D01*
X8151857Y-15642191D01*
X8151857Y-15594572D01*
X8161381Y-15556476D01*
X8170904Y-15537429D01*
X8180428Y-15527905D01*
X8199476Y-15518381D01*
X8351857Y-15718381D02*
X8351857Y-15585048D01*
X8351857Y-15604095D02*
X8361381Y-15594572D01*
X8380428Y-15585048D01*
X8409000Y-15585048D01*
X8428047Y-15594572D01*
X8437571Y-15613619D01*
X8437571Y-15718381D01*
X8437571Y-15613619D02*
X8447095Y-15594572D01*
X8466143Y-15585048D01*
X8494714Y-15585048D01*
X8513762Y-15594572D01*
X8523285Y-15613619D01*
X8523285Y-15718381D01*
X8618524Y-15718381D02*
X8618524Y-15585048D01*
X8618524Y-15604095D02*
X8628047Y-15594572D01*
X8647095Y-15585048D01*
X8675666Y-15585048D01*
X8694714Y-15594572D01*
X8704238Y-15613619D01*
X8704238Y-15718381D01*
X8704238Y-15613619D02*
X8713762Y-15594572D01*
X8732809Y-15585048D01*
X8761381Y-15585048D01*
X8780428Y-15594572D01*
X8789952Y-15613619D01*
X8789952Y-15718381D01*
X9180428Y-15508857D02*
X9009000Y-15766000D01*
X9437571Y-15518381D02*
X9456619Y-15518381D01*
X9475666Y-15527905D01*
X9485190Y-15537429D01*
X9494714Y-15556476D01*
X9504238Y-15594572D01*
X9504238Y-15642191D01*
X9494714Y-15680286D01*
X9485190Y-15699333D01*
X9475666Y-15708857D01*
X9456619Y-15718381D01*
X9437571Y-15718381D01*
X9418524Y-15708857D01*
X9409000Y-15699333D01*
X9399476Y-15680286D01*
X9389952Y-15642191D01*
X9389952Y-15594572D01*
X9399476Y-15556476D01*
X9409000Y-15537429D01*
X9418524Y-15527905D01*
X9437571Y-15518381D01*
X9589952Y-15699333D02*
X9599476Y-15708857D01*
X9589952Y-15718381D01*
X9580428Y-15708857D01*
X9589952Y-15699333D01*
X9589952Y-15718381D01*
X9723285Y-15518381D02*
X9742333Y-15518381D01*
X9761381Y-15527905D01*
X9770905Y-15537429D01*
X9780428Y-15556476D01*
X9789952Y-15594572D01*
X9789952Y-15642191D01*
X9780428Y-15680286D01*
X9770905Y-15699333D01*
X9761381Y-15708857D01*
X9742333Y-15718381D01*
X9723285Y-15718381D01*
X9704238Y-15708857D01*
X9694714Y-15699333D01*
X9685190Y-15680286D01*
X9675666Y-15642191D01*
X9675666Y-15594572D01*
X9685190Y-15556476D01*
X9694714Y-15537429D01*
X9704238Y-15527905D01*
X9723285Y-15518381D01*
X9980428Y-15718381D02*
X9866143Y-15718381D01*
X9923285Y-15718381D02*
X9923285Y-15518381D01*
X9904238Y-15546953D01*
X9885190Y-15566000D01*
X9866143Y-15575524D01*
X10170905Y-15718381D02*
X10056619Y-15718381D01*
X10113762Y-15718381D02*
X10113762Y-15518381D01*
X10094714Y-15546953D01*
X10075666Y-15566000D01*
X10056619Y-15575524D01*
X10285190Y-15604095D02*
X10266143Y-15594572D01*
X10256619Y-15585048D01*
X10247095Y-15566000D01*
X10247095Y-15556476D01*
X10256619Y-15537429D01*
X10266143Y-15527905D01*
X10285190Y-15518381D01*
X10323285Y-15518381D01*
X10342333Y-15527905D01*
X10351857Y-15537429D01*
X10361381Y-15556476D01*
X10361381Y-15566000D01*
X10351857Y-15585048D01*
X10342333Y-15594572D01*
X10323285Y-15604095D01*
X10285190Y-15604095D01*
X10266143Y-15613619D01*
X10256619Y-15623143D01*
X10247095Y-15642191D01*
X10247095Y-15680286D01*
X10256619Y-15699333D01*
X10266143Y-15708857D01*
X10285190Y-15718381D01*
X10323285Y-15718381D01*
X10342333Y-15708857D01*
X10351857Y-15699333D01*
X10361381Y-15680286D01*
X10361381Y-15642191D01*
X10351857Y-15623143D01*
X10342333Y-15613619D01*
X10323285Y-15604095D01*
X10437571Y-15518381D02*
X10437571Y-15556476D01*
X10513762Y-15518381D02*
X10513762Y-15556476D01*
X10809000Y-15794572D02*
X10799476Y-15785048D01*
X10780428Y-15756476D01*
X10770905Y-15737429D01*
X10761381Y-15708857D01*
X10751857Y-15661238D01*
X10751857Y-15623143D01*
X10761381Y-15575524D01*
X10770905Y-15546953D01*
X10780428Y-15527905D01*
X10799476Y-15499333D01*
X10809000Y-15489810D01*
X10989952Y-15718381D02*
X10875666Y-15718381D01*
X10932809Y-15718381D02*
X10932809Y-15518381D01*
X10913762Y-15546953D01*
X10894714Y-15566000D01*
X10875666Y-15575524D01*
X11066143Y-15537429D02*
X11075666Y-15527905D01*
X11094714Y-15518381D01*
X11142333Y-15518381D01*
X11161381Y-15527905D01*
X11170905Y-15537429D01*
X11180428Y-15556476D01*
X11180428Y-15575524D01*
X11170905Y-15604095D01*
X11056619Y-15718381D01*
X11180428Y-15718381D01*
X11418523Y-15718381D02*
X11418523Y-15518381D01*
X11504238Y-15718381D02*
X11504238Y-15613619D01*
X11494714Y-15594572D01*
X11475666Y-15585048D01*
X11447095Y-15585048D01*
X11428047Y-15594572D01*
X11418523Y-15604095D01*
X11628047Y-15718381D02*
X11609000Y-15708857D01*
X11599476Y-15699333D01*
X11589952Y-15680286D01*
X11589952Y-15623143D01*
X11599476Y-15604095D01*
X11609000Y-15594572D01*
X11628047Y-15585048D01*
X11656619Y-15585048D01*
X11675666Y-15594572D01*
X11685190Y-15604095D01*
X11694714Y-15623143D01*
X11694714Y-15680286D01*
X11685190Y-15699333D01*
X11675666Y-15708857D01*
X11656619Y-15718381D01*
X11628047Y-15718381D01*
X11809000Y-15718381D02*
X11789952Y-15708857D01*
X11780428Y-15689810D01*
X11780428Y-15518381D01*
X11961381Y-15708857D02*
X11942333Y-15718381D01*
X11904238Y-15718381D01*
X11885190Y-15708857D01*
X11875666Y-15689810D01*
X11875666Y-15613619D01*
X11885190Y-15594572D01*
X11904238Y-15585048D01*
X11942333Y-15585048D01*
X11961381Y-15594572D01*
X11970904Y-15613619D01*
X11970904Y-15632667D01*
X11875666Y-15651714D01*
X12047095Y-15708857D02*
X12066143Y-15718381D01*
X12104238Y-15718381D01*
X12123285Y-15708857D01*
X12132809Y-15689810D01*
X12132809Y-15680286D01*
X12123285Y-15661238D01*
X12104238Y-15651714D01*
X12075666Y-15651714D01*
X12056619Y-15642191D01*
X12047095Y-15623143D01*
X12047095Y-15613619D01*
X12056619Y-15594572D01*
X12075666Y-15585048D01*
X12104238Y-15585048D01*
X12123285Y-15594572D01*
X12199476Y-15794572D02*
X12209000Y-15785048D01*
X12228047Y-15756476D01*
X12237571Y-15737429D01*
X12247095Y-15708857D01*
X12256619Y-15661238D01*
X12256619Y-15623143D01*
X12247095Y-15575524D01*
X12237571Y-15546953D01*
X12228047Y-15527905D01*
X12209000Y-15499333D01*
X12199476Y-15489810D01*
D13*
X7237095Y-15891905D02*
G75*
G03*
X7237095Y-15891905I-25000J0D01*
G01*
D11*
X7532809Y-15782381D02*
X7551857Y-15782381D01*
X7570904Y-15791905D01*
X7580428Y-15801429D01*
X7589952Y-15820476D01*
X7599476Y-15858572D01*
X7599476Y-15906191D01*
X7589952Y-15944286D01*
X7580428Y-15963333D01*
X7570904Y-15972857D01*
X7551857Y-15982381D01*
X7532809Y-15982381D01*
X7513762Y-15972857D01*
X7504238Y-15963333D01*
X7494714Y-15944286D01*
X7485190Y-15906191D01*
X7485190Y-15858572D01*
X7494714Y-15820476D01*
X7504238Y-15801429D01*
X7513762Y-15791905D01*
X7532809Y-15782381D01*
X7685190Y-15963333D02*
X7694714Y-15972857D01*
X7685190Y-15982381D01*
X7675666Y-15972857D01*
X7685190Y-15963333D01*
X7685190Y-15982381D01*
X7875666Y-15782381D02*
X7780428Y-15782381D01*
X7770904Y-15877619D01*
X7780428Y-15868095D01*
X7799476Y-15858572D01*
X7847095Y-15858572D01*
X7866143Y-15868095D01*
X7875666Y-15877619D01*
X7885190Y-15896667D01*
X7885190Y-15944286D01*
X7875666Y-15963333D01*
X7866143Y-15972857D01*
X7847095Y-15982381D01*
X7799476Y-15982381D01*
X7780428Y-15972857D01*
X7770904Y-15963333D01*
X8009000Y-15782381D02*
X8028047Y-15782381D01*
X8047095Y-15791905D01*
X8056619Y-15801429D01*
X8066143Y-15820476D01*
X8075666Y-15858572D01*
X8075666Y-15906191D01*
X8066143Y-15944286D01*
X8056619Y-15963333D01*
X8047095Y-15972857D01*
X8028047Y-15982381D01*
X8009000Y-15982381D01*
X7989952Y-15972857D01*
X7980428Y-15963333D01*
X7970904Y-15944286D01*
X7961381Y-15906191D01*
X7961381Y-15858572D01*
X7970904Y-15820476D01*
X7980428Y-15801429D01*
X7989952Y-15791905D01*
X8009000Y-15782381D01*
X8199476Y-15782381D02*
X8218523Y-15782381D01*
X8237571Y-15791905D01*
X8247095Y-15801429D01*
X8256619Y-15820476D01*
X8266143Y-15858572D01*
X8266143Y-15906191D01*
X8256619Y-15944286D01*
X8247095Y-15963333D01*
X8237571Y-15972857D01*
X8218523Y-15982381D01*
X8199476Y-15982381D01*
X8180428Y-15972857D01*
X8170904Y-15963333D01*
X8161381Y-15944286D01*
X8151857Y-15906191D01*
X8151857Y-15858572D01*
X8161381Y-15820476D01*
X8170904Y-15801429D01*
X8180428Y-15791905D01*
X8199476Y-15782381D01*
X8351857Y-15982381D02*
X8351857Y-15849048D01*
X8351857Y-15868095D02*
X8361381Y-15858572D01*
X8380428Y-15849048D01*
X8409000Y-15849048D01*
X8428047Y-15858572D01*
X8437571Y-15877619D01*
X8437571Y-15982381D01*
X8437571Y-15877619D02*
X8447095Y-15858572D01*
X8466143Y-15849048D01*
X8494714Y-15849048D01*
X8513762Y-15858572D01*
X8523285Y-15877619D01*
X8523285Y-15982381D01*
X8618524Y-15982381D02*
X8618524Y-15849048D01*
X8618524Y-15868095D02*
X8628047Y-15858572D01*
X8647095Y-15849048D01*
X8675666Y-15849048D01*
X8694714Y-15858572D01*
X8704238Y-15877619D01*
X8704238Y-15982381D01*
X8704238Y-15877619D02*
X8713762Y-15858572D01*
X8732809Y-15849048D01*
X8761381Y-15849048D01*
X8780428Y-15858572D01*
X8789952Y-15877619D01*
X8789952Y-15982381D01*
X9180428Y-15772857D02*
X9009000Y-16030000D01*
X9437571Y-15782381D02*
X9456619Y-15782381D01*
X9475666Y-15791905D01*
X9485190Y-15801429D01*
X9494714Y-15820476D01*
X9504238Y-15858572D01*
X9504238Y-15906191D01*
X9494714Y-15944286D01*
X9485190Y-15963333D01*
X9475666Y-15972857D01*
X9456619Y-15982381D01*
X9437571Y-15982381D01*
X9418524Y-15972857D01*
X9409000Y-15963333D01*
X9399476Y-15944286D01*
X9389952Y-15906191D01*
X9389952Y-15858572D01*
X9399476Y-15820476D01*
X9409000Y-15801429D01*
X9418524Y-15791905D01*
X9437571Y-15782381D01*
X9589952Y-15963333D02*
X9599476Y-15972857D01*
X9589952Y-15982381D01*
X9580428Y-15972857D01*
X9589952Y-15963333D01*
X9589952Y-15982381D01*
X9723285Y-15782381D02*
X9742333Y-15782381D01*
X9761381Y-15791905D01*
X9770905Y-15801429D01*
X9780428Y-15820476D01*
X9789952Y-15858572D01*
X9789952Y-15906191D01*
X9780428Y-15944286D01*
X9770905Y-15963333D01*
X9761381Y-15972857D01*
X9742333Y-15982381D01*
X9723285Y-15982381D01*
X9704238Y-15972857D01*
X9694714Y-15963333D01*
X9685190Y-15944286D01*
X9675666Y-15906191D01*
X9675666Y-15858572D01*
X9685190Y-15820476D01*
X9694714Y-15801429D01*
X9704238Y-15791905D01*
X9723285Y-15782381D01*
X9980428Y-15982381D02*
X9866143Y-15982381D01*
X9923285Y-15982381D02*
X9923285Y-15782381D01*
X9904238Y-15810953D01*
X9885190Y-15830000D01*
X9866143Y-15839524D01*
X10075666Y-15982381D02*
X10113762Y-15982381D01*
X10132809Y-15972857D01*
X10142333Y-15963333D01*
X10161381Y-15934762D01*
X10170905Y-15896667D01*
X10170905Y-15820476D01*
X10161381Y-15801429D01*
X10151857Y-15791905D01*
X10132809Y-15782381D01*
X10094714Y-15782381D01*
X10075666Y-15791905D01*
X10066143Y-15801429D01*
X10056619Y-15820476D01*
X10056619Y-15868095D01*
X10066143Y-15887143D01*
X10075666Y-15896667D01*
X10094714Y-15906191D01*
X10132809Y-15906191D01*
X10151857Y-15896667D01*
X10161381Y-15887143D01*
X10170905Y-15868095D01*
X10237571Y-15782381D02*
X10370905Y-15782381D01*
X10285190Y-15982381D01*
X10437571Y-15782381D02*
X10437571Y-15820476D01*
X10513762Y-15782381D02*
X10513762Y-15820476D01*
X10809000Y-16058572D02*
X10799476Y-16049048D01*
X10780428Y-16020476D01*
X10770905Y-16001429D01*
X10761381Y-15972857D01*
X10751857Y-15925238D01*
X10751857Y-15887143D01*
X10761381Y-15839524D01*
X10770905Y-15810953D01*
X10780428Y-15791905D01*
X10799476Y-15763333D01*
X10809000Y-15753810D01*
X10866143Y-15782381D02*
X10989952Y-15782381D01*
X10923285Y-15858572D01*
X10951857Y-15858572D01*
X10970905Y-15868095D01*
X10980428Y-15877619D01*
X10989952Y-15896667D01*
X10989952Y-15944286D01*
X10980428Y-15963333D01*
X10970905Y-15972857D01*
X10951857Y-15982381D01*
X10894714Y-15982381D01*
X10875666Y-15972857D01*
X10866143Y-15963333D01*
X11161381Y-15849048D02*
X11161381Y-15982381D01*
X11113762Y-15772857D02*
X11066143Y-15915714D01*
X11189952Y-15915714D01*
X11418523Y-15982381D02*
X11418523Y-15782381D01*
X11504238Y-15982381D02*
X11504238Y-15877619D01*
X11494714Y-15858572D01*
X11475666Y-15849048D01*
X11447095Y-15849048D01*
X11428047Y-15858572D01*
X11418523Y-15868095D01*
X11628047Y-15982381D02*
X11609000Y-15972857D01*
X11599476Y-15963333D01*
X11589952Y-15944286D01*
X11589952Y-15887143D01*
X11599476Y-15868095D01*
X11609000Y-15858572D01*
X11628047Y-15849048D01*
X11656619Y-15849048D01*
X11675666Y-15858572D01*
X11685190Y-15868095D01*
X11694714Y-15887143D01*
X11694714Y-15944286D01*
X11685190Y-15963333D01*
X11675666Y-15972857D01*
X11656619Y-15982381D01*
X11628047Y-15982381D01*
X11809000Y-15982381D02*
X11789952Y-15972857D01*
X11780428Y-15953810D01*
X11780428Y-15782381D01*
X11961381Y-15972857D02*
X11942333Y-15982381D01*
X11904238Y-15982381D01*
X11885190Y-15972857D01*
X11875666Y-15953810D01*
X11875666Y-15877619D01*
X11885190Y-15858572D01*
X11904238Y-15849048D01*
X11942333Y-15849048D01*
X11961381Y-15858572D01*
X11970904Y-15877619D01*
X11970904Y-15896667D01*
X11875666Y-15915714D01*
X12047095Y-15972857D02*
X12066143Y-15982381D01*
X12104238Y-15982381D01*
X12123285Y-15972857D01*
X12132809Y-15953810D01*
X12132809Y-15944286D01*
X12123285Y-15925238D01*
X12104238Y-15915714D01*
X12075666Y-15915714D01*
X12056619Y-15906191D01*
X12047095Y-15887143D01*
X12047095Y-15877619D01*
X12056619Y-15858572D01*
X12075666Y-15849048D01*
X12104238Y-15849048D01*
X12123285Y-15858572D01*
X12199476Y-16058572D02*
X12209000Y-16049048D01*
X12228047Y-16020476D01*
X12237571Y-16001429D01*
X12247095Y-15972857D01*
X12256619Y-15925238D01*
X12256619Y-15887143D01*
X12247095Y-15839524D01*
X12237571Y-15810953D01*
X12228047Y-15791905D01*
X12209000Y-15763333D01*
X12199476Y-15753810D01*
D14*
X7198995Y-16117805D02*
X7198995Y-16194005D01*
X7160895Y-16155905D02*
X7237095Y-16155905D01*
D11*
X7532809Y-16046381D02*
X7551857Y-16046381D01*
X7570904Y-16055905D01*
X7580428Y-16065429D01*
X7589952Y-16084476D01*
X7599476Y-16122572D01*
X7599476Y-16170191D01*
X7589952Y-16208286D01*
X7580428Y-16227333D01*
X7570904Y-16236857D01*
X7551857Y-16246381D01*
X7532809Y-16246381D01*
X7513762Y-16236857D01*
X7504238Y-16227333D01*
X7494714Y-16208286D01*
X7485190Y-16170191D01*
X7485190Y-16122572D01*
X7494714Y-16084476D01*
X7504238Y-16065429D01*
X7513762Y-16055905D01*
X7532809Y-16046381D01*
X7685190Y-16227333D02*
X7694714Y-16236857D01*
X7685190Y-16246381D01*
X7675666Y-16236857D01*
X7685190Y-16227333D01*
X7685190Y-16246381D01*
X7761381Y-16046381D02*
X7894714Y-16046381D01*
X7809000Y-16246381D01*
X8056619Y-16046381D02*
X8018523Y-16046381D01*
X7999476Y-16055905D01*
X7989952Y-16065429D01*
X7970904Y-16094000D01*
X7961381Y-16132095D01*
X7961381Y-16208286D01*
X7970904Y-16227333D01*
X7980428Y-16236857D01*
X7999476Y-16246381D01*
X8037571Y-16246381D01*
X8056619Y-16236857D01*
X8066143Y-16227333D01*
X8075666Y-16208286D01*
X8075666Y-16160667D01*
X8066143Y-16141619D01*
X8056619Y-16132095D01*
X8037571Y-16122572D01*
X7999476Y-16122572D01*
X7980428Y-16132095D01*
X7970904Y-16141619D01*
X7961381Y-16160667D01*
X8151857Y-16065429D02*
X8161381Y-16055905D01*
X8180428Y-16046381D01*
X8228047Y-16046381D01*
X8247095Y-16055905D01*
X8256619Y-16065429D01*
X8266143Y-16084476D01*
X8266143Y-16103524D01*
X8256619Y-16132095D01*
X8142333Y-16246381D01*
X8266143Y-16246381D01*
X8351857Y-16246381D02*
X8351857Y-16113048D01*
X8351857Y-16132095D02*
X8361381Y-16122572D01*
X8380428Y-16113048D01*
X8409000Y-16113048D01*
X8428047Y-16122572D01*
X8437571Y-16141619D01*
X8437571Y-16246381D01*
X8437571Y-16141619D02*
X8447095Y-16122572D01*
X8466143Y-16113048D01*
X8494714Y-16113048D01*
X8513762Y-16122572D01*
X8523285Y-16141619D01*
X8523285Y-16246381D01*
X8618524Y-16246381D02*
X8618524Y-16113048D01*
X8618524Y-16132095D02*
X8628047Y-16122572D01*
X8647095Y-16113048D01*
X8675666Y-16113048D01*
X8694714Y-16122572D01*
X8704238Y-16141619D01*
X8704238Y-16246381D01*
X8704238Y-16141619D02*
X8713762Y-16122572D01*
X8732809Y-16113048D01*
X8761381Y-16113048D01*
X8780428Y-16122572D01*
X8789952Y-16141619D01*
X8789952Y-16246381D01*
X9180428Y-16036857D02*
X9009000Y-16294000D01*
X9437571Y-16046381D02*
X9456619Y-16046381D01*
X9475666Y-16055905D01*
X9485190Y-16065429D01*
X9494714Y-16084476D01*
X9504238Y-16122572D01*
X9504238Y-16170191D01*
X9494714Y-16208286D01*
X9485190Y-16227333D01*
X9475666Y-16236857D01*
X9456619Y-16246381D01*
X9437571Y-16246381D01*
X9418524Y-16236857D01*
X9409000Y-16227333D01*
X9399476Y-16208286D01*
X9389952Y-16170191D01*
X9389952Y-16122572D01*
X9399476Y-16084476D01*
X9409000Y-16065429D01*
X9418524Y-16055905D01*
X9437571Y-16046381D01*
X9589952Y-16227333D02*
X9599476Y-16236857D01*
X9589952Y-16246381D01*
X9580428Y-16236857D01*
X9589952Y-16227333D01*
X9589952Y-16246381D01*
X9723285Y-16046381D02*
X9742333Y-16046381D01*
X9761381Y-16055905D01*
X9770905Y-16065429D01*
X9780428Y-16084476D01*
X9789952Y-16122572D01*
X9789952Y-16170191D01*
X9780428Y-16208286D01*
X9770905Y-16227333D01*
X9761381Y-16236857D01*
X9742333Y-16246381D01*
X9723285Y-16246381D01*
X9704238Y-16236857D01*
X9694714Y-16227333D01*
X9685190Y-16208286D01*
X9675666Y-16170191D01*
X9675666Y-16122572D01*
X9685190Y-16084476D01*
X9694714Y-16065429D01*
X9704238Y-16055905D01*
X9723285Y-16046381D01*
X9856619Y-16046381D02*
X9980428Y-16046381D01*
X9913762Y-16122572D01*
X9942333Y-16122572D01*
X9961381Y-16132095D01*
X9970905Y-16141619D01*
X9980428Y-16160667D01*
X9980428Y-16208286D01*
X9970905Y-16227333D01*
X9961381Y-16236857D01*
X9942333Y-16246381D01*
X9885190Y-16246381D01*
X9866143Y-16236857D01*
X9856619Y-16227333D01*
X10104238Y-16046381D02*
X10123285Y-16046381D01*
X10142333Y-16055905D01*
X10151857Y-16065429D01*
X10161381Y-16084476D01*
X10170905Y-16122572D01*
X10170905Y-16170191D01*
X10161381Y-16208286D01*
X10151857Y-16227333D01*
X10142333Y-16236857D01*
X10123285Y-16246381D01*
X10104238Y-16246381D01*
X10085190Y-16236857D01*
X10075666Y-16227333D01*
X10066143Y-16208286D01*
X10056619Y-16170191D01*
X10056619Y-16122572D01*
X10066143Y-16084476D01*
X10075666Y-16065429D01*
X10085190Y-16055905D01*
X10104238Y-16046381D01*
X10294714Y-16046381D02*
X10313762Y-16046381D01*
X10332809Y-16055905D01*
X10342333Y-16065429D01*
X10351857Y-16084476D01*
X10361381Y-16122572D01*
X10361381Y-16170191D01*
X10351857Y-16208286D01*
X10342333Y-16227333D01*
X10332809Y-16236857D01*
X10313762Y-16246381D01*
X10294714Y-16246381D01*
X10275666Y-16236857D01*
X10266143Y-16227333D01*
X10256619Y-16208286D01*
X10247095Y-16170191D01*
X10247095Y-16122572D01*
X10256619Y-16084476D01*
X10266143Y-16065429D01*
X10275666Y-16055905D01*
X10294714Y-16046381D01*
X10437571Y-16046381D02*
X10437571Y-16084476D01*
X10513762Y-16046381D02*
X10513762Y-16084476D01*
X10809000Y-16322572D02*
X10799476Y-16313048D01*
X10780428Y-16284476D01*
X10770905Y-16265429D01*
X10761381Y-16236857D01*
X10751857Y-16189238D01*
X10751857Y-16151143D01*
X10761381Y-16103524D01*
X10770905Y-16074953D01*
X10780428Y-16055905D01*
X10799476Y-16027333D01*
X10809000Y-16017810D01*
X10875666Y-16065429D02*
X10885190Y-16055905D01*
X10904238Y-16046381D01*
X10951857Y-16046381D01*
X10970905Y-16055905D01*
X10980428Y-16065429D01*
X10989952Y-16084476D01*
X10989952Y-16103524D01*
X10980428Y-16132095D01*
X10866143Y-16246381D01*
X10989952Y-16246381D01*
X11170905Y-16046381D02*
X11075666Y-16046381D01*
X11066143Y-16141619D01*
X11075666Y-16132095D01*
X11094714Y-16122572D01*
X11142333Y-16122572D01*
X11161381Y-16132095D01*
X11170905Y-16141619D01*
X11180428Y-16160667D01*
X11180428Y-16208286D01*
X11170905Y-16227333D01*
X11161381Y-16236857D01*
X11142333Y-16246381D01*
X11094714Y-16246381D01*
X11075666Y-16236857D01*
X11066143Y-16227333D01*
X11294714Y-16132095D02*
X11275666Y-16122572D01*
X11266143Y-16113048D01*
X11256619Y-16094000D01*
X11256619Y-16084476D01*
X11266143Y-16065429D01*
X11275666Y-16055905D01*
X11294714Y-16046381D01*
X11332809Y-16046381D01*
X11351857Y-16055905D01*
X11361381Y-16065429D01*
X11370904Y-16084476D01*
X11370904Y-16094000D01*
X11361381Y-16113048D01*
X11351857Y-16122572D01*
X11332809Y-16132095D01*
X11294714Y-16132095D01*
X11275666Y-16141619D01*
X11266143Y-16151143D01*
X11256619Y-16170191D01*
X11256619Y-16208286D01*
X11266143Y-16227333D01*
X11275666Y-16236857D01*
X11294714Y-16246381D01*
X11332809Y-16246381D01*
X11351857Y-16236857D01*
X11361381Y-16227333D01*
X11370904Y-16208286D01*
X11370904Y-16170191D01*
X11361381Y-16151143D01*
X11351857Y-16141619D01*
X11332809Y-16132095D01*
X11609000Y-16246381D02*
X11609000Y-16046381D01*
X11694714Y-16246381D02*
X11694714Y-16141619D01*
X11685190Y-16122572D01*
X11666143Y-16113048D01*
X11637571Y-16113048D01*
X11618523Y-16122572D01*
X11609000Y-16132095D01*
X11818523Y-16246381D02*
X11799476Y-16236857D01*
X11789952Y-16227333D01*
X11780428Y-16208286D01*
X11780428Y-16151143D01*
X11789952Y-16132095D01*
X11799476Y-16122572D01*
X11818523Y-16113048D01*
X11847095Y-16113048D01*
X11866143Y-16122572D01*
X11875666Y-16132095D01*
X11885190Y-16151143D01*
X11885190Y-16208286D01*
X11875666Y-16227333D01*
X11866143Y-16236857D01*
X11847095Y-16246381D01*
X11818523Y-16246381D01*
X11999476Y-16246381D02*
X11980428Y-16236857D01*
X11970904Y-16217810D01*
X11970904Y-16046381D01*
X12151857Y-16236857D02*
X12132809Y-16246381D01*
X12094714Y-16246381D01*
X12075666Y-16236857D01*
X12066143Y-16217810D01*
X12066143Y-16141619D01*
X12075666Y-16122572D01*
X12094714Y-16113048D01*
X12132809Y-16113048D01*
X12151857Y-16122572D01*
X12161381Y-16141619D01*
X12161381Y-16160667D01*
X12066143Y-16179714D01*
X12237571Y-16236857D02*
X12256619Y-16246381D01*
X12294714Y-16246381D01*
X12313762Y-16236857D01*
X12323285Y-16217810D01*
X12323285Y-16208286D01*
X12313762Y-16189238D01*
X12294714Y-16179714D01*
X12266143Y-16179714D01*
X12247095Y-16170191D01*
X12237571Y-16151143D01*
X12237571Y-16141619D01*
X12247095Y-16122572D01*
X12266143Y-16113048D01*
X12294714Y-16113048D01*
X12313762Y-16122572D01*
X12389952Y-16322572D02*
X12399476Y-16313048D01*
X12418523Y-16284476D01*
X12428047Y-16265429D01*
X12437571Y-16236857D01*
X12447095Y-16189238D01*
X12447095Y-16151143D01*
X12437571Y-16103524D01*
X12428047Y-16074953D01*
X12418523Y-16055905D01*
X12399476Y-16027333D01*
X12389952Y-16017810D01*
D15*
X7225379Y-16448189D02*
X7225379Y-16391620D01*
X7168810Y-16391620D01*
X7168810Y-16448189D01*
X7225379Y-16448189D01*
D11*
X7532809Y-16310381D02*
X7551857Y-16310381D01*
X7570904Y-16319905D01*
X7580428Y-16329429D01*
X7589952Y-16348476D01*
X7599476Y-16386572D01*
X7599476Y-16434191D01*
X7589952Y-16472286D01*
X7580428Y-16491333D01*
X7570904Y-16500857D01*
X7551857Y-16510381D01*
X7532809Y-16510381D01*
X7513762Y-16500857D01*
X7504238Y-16491333D01*
X7494714Y-16472286D01*
X7485190Y-16434191D01*
X7485190Y-16386572D01*
X7494714Y-16348476D01*
X7504238Y-16329429D01*
X7513762Y-16319905D01*
X7532809Y-16310381D01*
X7685190Y-16491333D02*
X7694714Y-16500857D01*
X7685190Y-16510381D01*
X7675666Y-16500857D01*
X7685190Y-16491333D01*
X7685190Y-16510381D01*
X7809000Y-16396095D02*
X7789952Y-16386572D01*
X7780428Y-16377048D01*
X7770904Y-16358000D01*
X7770904Y-16348476D01*
X7780428Y-16329429D01*
X7789952Y-16319905D01*
X7809000Y-16310381D01*
X7847095Y-16310381D01*
X7866143Y-16319905D01*
X7875666Y-16329429D01*
X7885190Y-16348476D01*
X7885190Y-16358000D01*
X7875666Y-16377048D01*
X7866143Y-16386572D01*
X7847095Y-16396095D01*
X7809000Y-16396095D01*
X7789952Y-16405619D01*
X7780428Y-16415143D01*
X7770904Y-16434191D01*
X7770904Y-16472286D01*
X7780428Y-16491333D01*
X7789952Y-16500857D01*
X7809000Y-16510381D01*
X7847095Y-16510381D01*
X7866143Y-16500857D01*
X7875666Y-16491333D01*
X7885190Y-16472286D01*
X7885190Y-16434191D01*
X7875666Y-16415143D01*
X7866143Y-16405619D01*
X7847095Y-16396095D01*
X8009000Y-16310381D02*
X8028047Y-16310381D01*
X8047095Y-16319905D01*
X8056619Y-16329429D01*
X8066143Y-16348476D01*
X8075666Y-16386572D01*
X8075666Y-16434191D01*
X8066143Y-16472286D01*
X8056619Y-16491333D01*
X8047095Y-16500857D01*
X8028047Y-16510381D01*
X8009000Y-16510381D01*
X7989952Y-16500857D01*
X7980428Y-16491333D01*
X7970904Y-16472286D01*
X7961381Y-16434191D01*
X7961381Y-16386572D01*
X7970904Y-16348476D01*
X7980428Y-16329429D01*
X7989952Y-16319905D01*
X8009000Y-16310381D01*
X8199476Y-16310381D02*
X8218523Y-16310381D01*
X8237571Y-16319905D01*
X8247095Y-16329429D01*
X8256619Y-16348476D01*
X8266143Y-16386572D01*
X8266143Y-16434191D01*
X8256619Y-16472286D01*
X8247095Y-16491333D01*
X8237571Y-16500857D01*
X8218523Y-16510381D01*
X8199476Y-16510381D01*
X8180428Y-16500857D01*
X8170904Y-16491333D01*
X8161381Y-16472286D01*
X8151857Y-16434191D01*
X8151857Y-16386572D01*
X8161381Y-16348476D01*
X8170904Y-16329429D01*
X8180428Y-16319905D01*
X8199476Y-16310381D01*
X8351857Y-16510381D02*
X8351857Y-16377048D01*
X8351857Y-16396095D02*
X8361381Y-16386572D01*
X8380428Y-16377048D01*
X8409000Y-16377048D01*
X8428047Y-16386572D01*
X8437571Y-16405619D01*
X8437571Y-16510381D01*
X8437571Y-16405619D02*
X8447095Y-16386572D01*
X8466143Y-16377048D01*
X8494714Y-16377048D01*
X8513762Y-16386572D01*
X8523285Y-16405619D01*
X8523285Y-16510381D01*
X8618524Y-16510381D02*
X8618524Y-16377048D01*
X8618524Y-16396095D02*
X8628047Y-16386572D01*
X8647095Y-16377048D01*
X8675666Y-16377048D01*
X8694714Y-16386572D01*
X8704238Y-16405619D01*
X8704238Y-16510381D01*
X8704238Y-16405619D02*
X8713762Y-16386572D01*
X8732809Y-16377048D01*
X8761381Y-16377048D01*
X8780428Y-16386572D01*
X8789952Y-16405619D01*
X8789952Y-16510381D01*
X9180428Y-16300857D02*
X9009000Y-16558000D01*
X9437571Y-16310381D02*
X9456619Y-16310381D01*
X9475666Y-16319905D01*
X9485190Y-16329429D01*
X9494714Y-16348476D01*
X9504238Y-16386572D01*
X9504238Y-16434191D01*
X9494714Y-16472286D01*
X9485190Y-16491333D01*
X9475666Y-16500857D01*
X9456619Y-16510381D01*
X9437571Y-16510381D01*
X9418524Y-16500857D01*
X9409000Y-16491333D01*
X9399476Y-16472286D01*
X9389952Y-16434191D01*
X9389952Y-16386572D01*
X9399476Y-16348476D01*
X9409000Y-16329429D01*
X9418524Y-16319905D01*
X9437571Y-16310381D01*
X9589952Y-16491333D02*
X9599476Y-16500857D01*
X9589952Y-16510381D01*
X9580428Y-16500857D01*
X9589952Y-16491333D01*
X9589952Y-16510381D01*
X9723285Y-16310381D02*
X9742333Y-16310381D01*
X9761381Y-16319905D01*
X9770905Y-16329429D01*
X9780428Y-16348476D01*
X9789952Y-16386572D01*
X9789952Y-16434191D01*
X9780428Y-16472286D01*
X9770905Y-16491333D01*
X9761381Y-16500857D01*
X9742333Y-16510381D01*
X9723285Y-16510381D01*
X9704238Y-16500857D01*
X9694714Y-16491333D01*
X9685190Y-16472286D01*
X9675666Y-16434191D01*
X9675666Y-16386572D01*
X9685190Y-16348476D01*
X9694714Y-16329429D01*
X9704238Y-16319905D01*
X9723285Y-16310381D01*
X9856619Y-16310381D02*
X9980428Y-16310381D01*
X9913762Y-16386572D01*
X9942333Y-16386572D01*
X9961381Y-16396095D01*
X9970905Y-16405619D01*
X9980428Y-16424667D01*
X9980428Y-16472286D01*
X9970905Y-16491333D01*
X9961381Y-16500857D01*
X9942333Y-16510381D01*
X9885190Y-16510381D01*
X9866143Y-16500857D01*
X9856619Y-16491333D01*
X10170905Y-16510381D02*
X10056619Y-16510381D01*
X10113762Y-16510381D02*
X10113762Y-16310381D01*
X10094714Y-16338953D01*
X10075666Y-16358000D01*
X10056619Y-16367524D01*
X10351857Y-16310381D02*
X10256619Y-16310381D01*
X10247095Y-16405619D01*
X10256619Y-16396095D01*
X10275666Y-16386572D01*
X10323285Y-16386572D01*
X10342333Y-16396095D01*
X10351857Y-16405619D01*
X10361381Y-16424667D01*
X10361381Y-16472286D01*
X10351857Y-16491333D01*
X10342333Y-16500857D01*
X10323285Y-16510381D01*
X10275666Y-16510381D01*
X10256619Y-16500857D01*
X10247095Y-16491333D01*
X10437571Y-16310381D02*
X10437571Y-16348476D01*
X10513762Y-16310381D02*
X10513762Y-16348476D01*
X10809000Y-16586572D02*
X10799476Y-16577048D01*
X10780428Y-16548476D01*
X10770905Y-16529429D01*
X10761381Y-16500857D01*
X10751857Y-16453238D01*
X10751857Y-16415143D01*
X10761381Y-16367524D01*
X10770905Y-16338953D01*
X10780428Y-16319905D01*
X10799476Y-16291333D01*
X10809000Y-16281810D01*
X10989952Y-16510381D02*
X10875666Y-16510381D01*
X10932809Y-16510381D02*
X10932809Y-16310381D01*
X10913762Y-16338953D01*
X10894714Y-16358000D01*
X10875666Y-16367524D01*
X11161381Y-16377048D02*
X11161381Y-16510381D01*
X11113762Y-16300857D02*
X11066143Y-16443714D01*
X11189952Y-16443714D01*
X11418523Y-16510381D02*
X11418523Y-16310381D01*
X11504238Y-16510381D02*
X11504238Y-16405619D01*
X11494714Y-16386572D01*
X11475666Y-16377048D01*
X11447095Y-16377048D01*
X11428047Y-16386572D01*
X11418523Y-16396095D01*
X11628047Y-16510381D02*
X11609000Y-16500857D01*
X11599476Y-16491333D01*
X11589952Y-16472286D01*
X11589952Y-16415143D01*
X11599476Y-16396095D01*
X11609000Y-16386572D01*
X11628047Y-16377048D01*
X11656619Y-16377048D01*
X11675666Y-16386572D01*
X11685190Y-16396095D01*
X11694714Y-16415143D01*
X11694714Y-16472286D01*
X11685190Y-16491333D01*
X11675666Y-16500857D01*
X11656619Y-16510381D01*
X11628047Y-16510381D01*
X11809000Y-16510381D02*
X11789952Y-16500857D01*
X11780428Y-16481810D01*
X11780428Y-16310381D01*
X11961381Y-16500857D02*
X11942333Y-16510381D01*
X11904238Y-16510381D01*
X11885190Y-16500857D01*
X11875666Y-16481810D01*
X11875666Y-16405619D01*
X11885190Y-16386572D01*
X11904238Y-16377048D01*
X11942333Y-16377048D01*
X11961381Y-16386572D01*
X11970904Y-16405619D01*
X11970904Y-16424667D01*
X11875666Y-16443714D01*
X12047095Y-16500857D02*
X12066143Y-16510381D01*
X12104238Y-16510381D01*
X12123285Y-16500857D01*
X12132809Y-16481810D01*
X12132809Y-16472286D01*
X12123285Y-16453238D01*
X12104238Y-16443714D01*
X12075666Y-16443714D01*
X12056619Y-16434191D01*
X12047095Y-16415143D01*
X12047095Y-16405619D01*
X12056619Y-16386572D01*
X12075666Y-16377048D01*
X12104238Y-16377048D01*
X12123285Y-16386572D01*
X12199476Y-16586572D02*
X12209000Y-16577048D01*
X12228047Y-16548476D01*
X12237571Y-16529429D01*
X12247095Y-16500857D01*
X12256619Y-16453238D01*
X12256619Y-16415143D01*
X12247095Y-16367524D01*
X12237571Y-16338953D01*
X12228047Y-16319905D01*
X12209000Y-16291333D01*
X12199476Y-16281810D01*
D16*
X7192095Y-16728905D02*
X7237095Y-16683905D01*
X7192095Y-16638905D01*
X7147095Y-16683905D01*
X7192095Y-16728905D01*
D11*
X7532809Y-16574381D02*
X7551857Y-16574381D01*
X7570904Y-16583905D01*
X7580428Y-16593429D01*
X7589952Y-16612476D01*
X7599476Y-16650572D01*
X7599476Y-16698191D01*
X7589952Y-16736286D01*
X7580428Y-16755333D01*
X7570904Y-16764857D01*
X7551857Y-16774381D01*
X7532809Y-16774381D01*
X7513762Y-16764857D01*
X7504238Y-16755333D01*
X7494714Y-16736286D01*
X7485190Y-16698191D01*
X7485190Y-16650572D01*
X7494714Y-16612476D01*
X7504238Y-16593429D01*
X7513762Y-16583905D01*
X7532809Y-16574381D01*
X7685190Y-16755333D02*
X7694714Y-16764857D01*
X7685190Y-16774381D01*
X7675666Y-16764857D01*
X7685190Y-16755333D01*
X7685190Y-16774381D01*
X7789952Y-16774381D02*
X7828047Y-16774381D01*
X7847095Y-16764857D01*
X7856619Y-16755333D01*
X7875666Y-16726762D01*
X7885190Y-16688667D01*
X7885190Y-16612476D01*
X7875666Y-16593429D01*
X7866143Y-16583905D01*
X7847095Y-16574381D01*
X7809000Y-16574381D01*
X7789952Y-16583905D01*
X7780428Y-16593429D01*
X7770904Y-16612476D01*
X7770904Y-16660095D01*
X7780428Y-16679143D01*
X7789952Y-16688667D01*
X7809000Y-16698191D01*
X7847095Y-16698191D01*
X7866143Y-16688667D01*
X7875666Y-16679143D01*
X7885190Y-16660095D01*
X8009000Y-16574381D02*
X8028047Y-16574381D01*
X8047095Y-16583905D01*
X8056619Y-16593429D01*
X8066143Y-16612476D01*
X8075666Y-16650572D01*
X8075666Y-16698191D01*
X8066143Y-16736286D01*
X8056619Y-16755333D01*
X8047095Y-16764857D01*
X8028047Y-16774381D01*
X8009000Y-16774381D01*
X7989952Y-16764857D01*
X7980428Y-16755333D01*
X7970904Y-16736286D01*
X7961381Y-16698191D01*
X7961381Y-16650572D01*
X7970904Y-16612476D01*
X7980428Y-16593429D01*
X7989952Y-16583905D01*
X8009000Y-16574381D01*
X8199476Y-16574381D02*
X8218523Y-16574381D01*
X8237571Y-16583905D01*
X8247095Y-16593429D01*
X8256619Y-16612476D01*
X8266143Y-16650572D01*
X8266143Y-16698191D01*
X8256619Y-16736286D01*
X8247095Y-16755333D01*
X8237571Y-16764857D01*
X8218523Y-16774381D01*
X8199476Y-16774381D01*
X8180428Y-16764857D01*
X8170904Y-16755333D01*
X8161381Y-16736286D01*
X8151857Y-16698191D01*
X8151857Y-16650572D01*
X8161381Y-16612476D01*
X8170904Y-16593429D01*
X8180428Y-16583905D01*
X8199476Y-16574381D01*
X8351857Y-16774381D02*
X8351857Y-16641048D01*
X8351857Y-16660095D02*
X8361381Y-16650572D01*
X8380428Y-16641048D01*
X8409000Y-16641048D01*
X8428047Y-16650572D01*
X8437571Y-16669619D01*
X8437571Y-16774381D01*
X8437571Y-16669619D02*
X8447095Y-16650572D01*
X8466143Y-16641048D01*
X8494714Y-16641048D01*
X8513762Y-16650572D01*
X8523285Y-16669619D01*
X8523285Y-16774381D01*
X8618524Y-16774381D02*
X8618524Y-16641048D01*
X8618524Y-16660095D02*
X8628047Y-16650572D01*
X8647095Y-16641048D01*
X8675666Y-16641048D01*
X8694714Y-16650572D01*
X8704238Y-16669619D01*
X8704238Y-16774381D01*
X8704238Y-16669619D02*
X8713762Y-16650572D01*
X8732809Y-16641048D01*
X8761381Y-16641048D01*
X8780428Y-16650572D01*
X8789952Y-16669619D01*
X8789952Y-16774381D01*
X9180428Y-16564857D02*
X9009000Y-16822000D01*
X9437571Y-16574381D02*
X9456619Y-16574381D01*
X9475666Y-16583905D01*
X9485190Y-16593429D01*
X9494714Y-16612476D01*
X9504238Y-16650572D01*
X9504238Y-16698191D01*
X9494714Y-16736286D01*
X9485190Y-16755333D01*
X9475666Y-16764857D01*
X9456619Y-16774381D01*
X9437571Y-16774381D01*
X9418524Y-16764857D01*
X9409000Y-16755333D01*
X9399476Y-16736286D01*
X9389952Y-16698191D01*
X9389952Y-16650572D01*
X9399476Y-16612476D01*
X9409000Y-16593429D01*
X9418524Y-16583905D01*
X9437571Y-16574381D01*
X9589952Y-16755333D02*
X9599476Y-16764857D01*
X9589952Y-16774381D01*
X9580428Y-16764857D01*
X9589952Y-16755333D01*
X9589952Y-16774381D01*
X9723285Y-16574381D02*
X9742333Y-16574381D01*
X9761381Y-16583905D01*
X9770905Y-16593429D01*
X9780428Y-16612476D01*
X9789952Y-16650572D01*
X9789952Y-16698191D01*
X9780428Y-16736286D01*
X9770905Y-16755333D01*
X9761381Y-16764857D01*
X9742333Y-16774381D01*
X9723285Y-16774381D01*
X9704238Y-16764857D01*
X9694714Y-16755333D01*
X9685190Y-16736286D01*
X9675666Y-16698191D01*
X9675666Y-16650572D01*
X9685190Y-16612476D01*
X9694714Y-16593429D01*
X9704238Y-16583905D01*
X9723285Y-16574381D01*
X9856619Y-16574381D02*
X9980428Y-16574381D01*
X9913762Y-16650572D01*
X9942333Y-16650572D01*
X9961381Y-16660095D01*
X9970905Y-16669619D01*
X9980428Y-16688667D01*
X9980428Y-16736286D01*
X9970905Y-16755333D01*
X9961381Y-16764857D01*
X9942333Y-16774381D01*
X9885190Y-16774381D01*
X9866143Y-16764857D01*
X9856619Y-16755333D01*
X10161381Y-16574381D02*
X10066143Y-16574381D01*
X10056619Y-16669619D01*
X10066143Y-16660095D01*
X10085190Y-16650572D01*
X10132809Y-16650572D01*
X10151857Y-16660095D01*
X10161381Y-16669619D01*
X10170905Y-16688667D01*
X10170905Y-16736286D01*
X10161381Y-16755333D01*
X10151857Y-16764857D01*
X10132809Y-16774381D01*
X10085190Y-16774381D01*
X10066143Y-16764857D01*
X10056619Y-16755333D01*
X10342333Y-16641048D02*
X10342333Y-16774381D01*
X10294714Y-16564857D02*
X10247095Y-16707714D01*
X10370905Y-16707714D01*
X10437571Y-16574381D02*
X10437571Y-16612476D01*
X10513762Y-16574381D02*
X10513762Y-16612476D01*
X10809000Y-16850572D02*
X10799476Y-16841048D01*
X10780428Y-16812476D01*
X10770905Y-16793429D01*
X10761381Y-16764857D01*
X10751857Y-16717238D01*
X10751857Y-16679143D01*
X10761381Y-16631524D01*
X10770905Y-16602953D01*
X10780428Y-16583905D01*
X10799476Y-16555333D01*
X10809000Y-16545810D01*
X10913762Y-16660095D02*
X10894714Y-16650572D01*
X10885190Y-16641048D01*
X10875666Y-16622000D01*
X10875666Y-16612476D01*
X10885190Y-16593429D01*
X10894714Y-16583905D01*
X10913762Y-16574381D01*
X10951857Y-16574381D01*
X10970905Y-16583905D01*
X10980428Y-16593429D01*
X10989952Y-16612476D01*
X10989952Y-16622000D01*
X10980428Y-16641048D01*
X10970905Y-16650572D01*
X10951857Y-16660095D01*
X10913762Y-16660095D01*
X10894714Y-16669619D01*
X10885190Y-16679143D01*
X10875666Y-16698191D01*
X10875666Y-16736286D01*
X10885190Y-16755333D01*
X10894714Y-16764857D01*
X10913762Y-16774381D01*
X10951857Y-16774381D01*
X10970905Y-16764857D01*
X10980428Y-16755333D01*
X10989952Y-16736286D01*
X10989952Y-16698191D01*
X10980428Y-16679143D01*
X10970905Y-16669619D01*
X10951857Y-16660095D01*
X11228047Y-16774381D02*
X11228047Y-16574381D01*
X11313762Y-16774381D02*
X11313762Y-16669619D01*
X11304238Y-16650572D01*
X11285190Y-16641048D01*
X11256619Y-16641048D01*
X11237571Y-16650572D01*
X11228047Y-16660095D01*
X11437571Y-16774381D02*
X11418523Y-16764857D01*
X11409000Y-16755333D01*
X11399476Y-16736286D01*
X11399476Y-16679143D01*
X11409000Y-16660095D01*
X11418523Y-16650572D01*
X11437571Y-16641048D01*
X11466143Y-16641048D01*
X11485190Y-16650572D01*
X11494714Y-16660095D01*
X11504238Y-16679143D01*
X11504238Y-16736286D01*
X11494714Y-16755333D01*
X11485190Y-16764857D01*
X11466143Y-16774381D01*
X11437571Y-16774381D01*
X11618523Y-16774381D02*
X11599476Y-16764857D01*
X11589952Y-16745810D01*
X11589952Y-16574381D01*
X11770904Y-16764857D02*
X11751857Y-16774381D01*
X11713762Y-16774381D01*
X11694714Y-16764857D01*
X11685190Y-16745810D01*
X11685190Y-16669619D01*
X11694714Y-16650572D01*
X11713762Y-16641048D01*
X11751857Y-16641048D01*
X11770904Y-16650572D01*
X11780428Y-16669619D01*
X11780428Y-16688667D01*
X11685190Y-16707714D01*
X11856619Y-16764857D02*
X11875666Y-16774381D01*
X11913762Y-16774381D01*
X11932809Y-16764857D01*
X11942333Y-16745810D01*
X11942333Y-16736286D01*
X11932809Y-16717238D01*
X11913762Y-16707714D01*
X11885190Y-16707714D01*
X11866143Y-16698191D01*
X11856619Y-16679143D01*
X11856619Y-16669619D01*
X11866143Y-16650572D01*
X11885190Y-16641048D01*
X11913762Y-16641048D01*
X11932809Y-16650572D01*
X12009000Y-16850572D02*
X12018523Y-16841048D01*
X12037571Y-16812476D01*
X12047095Y-16793429D01*
X12056619Y-16764857D01*
X12066143Y-16717238D01*
X12066143Y-16679143D01*
X12056619Y-16631524D01*
X12047095Y-16602953D01*
X12037571Y-16583905D01*
X12018523Y-16555333D01*
X12009000Y-16545810D01*
D17*
X7137095Y-16897905D02*
X7237095Y-16997905D01*
X7237095Y-16897905D02*
X7137095Y-16997905D01*
X7237095Y-16947905D02*
G75*
G03*
X7237095Y-16947905I-50000J0D01*
G01*
D11*
X7599476Y-17038381D02*
X7485190Y-17038381D01*
X7542333Y-17038381D02*
X7542333Y-16838381D01*
X7523285Y-16866953D01*
X7504238Y-16886000D01*
X7485190Y-16895524D01*
X7685190Y-17019334D02*
X7694714Y-17028857D01*
X7685190Y-17038381D01*
X7675666Y-17028857D01*
X7685190Y-17019334D01*
X7685190Y-17038381D01*
X7818523Y-16838381D02*
X7837571Y-16838381D01*
X7856619Y-16847905D01*
X7866143Y-16857429D01*
X7875666Y-16876476D01*
X7885190Y-16914572D01*
X7885190Y-16962191D01*
X7875666Y-17000286D01*
X7866143Y-17019334D01*
X7856619Y-17028857D01*
X7837571Y-17038381D01*
X7818523Y-17038381D01*
X7799476Y-17028857D01*
X7789952Y-17019334D01*
X7780428Y-17000286D01*
X7770904Y-16962191D01*
X7770904Y-16914572D01*
X7780428Y-16876476D01*
X7789952Y-16857429D01*
X7799476Y-16847905D01*
X7818523Y-16838381D01*
X8009000Y-16838381D02*
X8028047Y-16838381D01*
X8047095Y-16847905D01*
X8056619Y-16857429D01*
X8066143Y-16876476D01*
X8075666Y-16914572D01*
X8075666Y-16962191D01*
X8066143Y-17000286D01*
X8056619Y-17019334D01*
X8047095Y-17028857D01*
X8028047Y-17038381D01*
X8009000Y-17038381D01*
X7989952Y-17028857D01*
X7980428Y-17019334D01*
X7970904Y-17000286D01*
X7961381Y-16962191D01*
X7961381Y-16914572D01*
X7970904Y-16876476D01*
X7980428Y-16857429D01*
X7989952Y-16847905D01*
X8009000Y-16838381D01*
X8199476Y-16838381D02*
X8218523Y-16838381D01*
X8237571Y-16847905D01*
X8247095Y-16857429D01*
X8256619Y-16876476D01*
X8266143Y-16914572D01*
X8266143Y-16962191D01*
X8256619Y-17000286D01*
X8247095Y-17019334D01*
X8237571Y-17028857D01*
X8218523Y-17038381D01*
X8199476Y-17038381D01*
X8180428Y-17028857D01*
X8170904Y-17019334D01*
X8161381Y-17000286D01*
X8151857Y-16962191D01*
X8151857Y-16914572D01*
X8161381Y-16876476D01*
X8170904Y-16857429D01*
X8180428Y-16847905D01*
X8199476Y-16838381D01*
X8351857Y-17038381D02*
X8351857Y-16905048D01*
X8351857Y-16924095D02*
X8361381Y-16914572D01*
X8380428Y-16905048D01*
X8409000Y-16905048D01*
X8428047Y-16914572D01*
X8437571Y-16933619D01*
X8437571Y-17038381D01*
X8437571Y-16933619D02*
X8447095Y-16914572D01*
X8466143Y-16905048D01*
X8494714Y-16905048D01*
X8513762Y-16914572D01*
X8523285Y-16933619D01*
X8523285Y-17038381D01*
X8618524Y-17038381D02*
X8618524Y-16905048D01*
X8618524Y-16924095D02*
X8628047Y-16914572D01*
X8647095Y-16905048D01*
X8675666Y-16905048D01*
X8694714Y-16914572D01*
X8704238Y-16933619D01*
X8704238Y-17038381D01*
X8704238Y-16933619D02*
X8713762Y-16914572D01*
X8732809Y-16905048D01*
X8761381Y-16905048D01*
X8780428Y-16914572D01*
X8789952Y-16933619D01*
X8789952Y-17038381D01*
X9180428Y-16828857D02*
X9009000Y-17086000D01*
X9437571Y-16838381D02*
X9456619Y-16838381D01*
X9475666Y-16847905D01*
X9485190Y-16857429D01*
X9494714Y-16876476D01*
X9504238Y-16914572D01*
X9504238Y-16962191D01*
X9494714Y-17000286D01*
X9485190Y-17019334D01*
X9475666Y-17028857D01*
X9456619Y-17038381D01*
X9437571Y-17038381D01*
X9418524Y-17028857D01*
X9409000Y-17019334D01*
X9399476Y-17000286D01*
X9389952Y-16962191D01*
X9389952Y-16914572D01*
X9399476Y-16876476D01*
X9409000Y-16857429D01*
X9418524Y-16847905D01*
X9437571Y-16838381D01*
X9589952Y-17019334D02*
X9599476Y-17028857D01*
X9589952Y-17038381D01*
X9580428Y-17028857D01*
X9589952Y-17019334D01*
X9589952Y-17038381D01*
X9723285Y-16838381D02*
X9742333Y-16838381D01*
X9761381Y-16847905D01*
X9770905Y-16857429D01*
X9780428Y-16876476D01*
X9789952Y-16914572D01*
X9789952Y-16962191D01*
X9780428Y-17000286D01*
X9770905Y-17019334D01*
X9761381Y-17028857D01*
X9742333Y-17038381D01*
X9723285Y-17038381D01*
X9704238Y-17028857D01*
X9694714Y-17019334D01*
X9685190Y-17000286D01*
X9675666Y-16962191D01*
X9675666Y-16914572D01*
X9685190Y-16876476D01*
X9694714Y-16857429D01*
X9704238Y-16847905D01*
X9723285Y-16838381D01*
X9856619Y-16838381D02*
X9980428Y-16838381D01*
X9913762Y-16914572D01*
X9942333Y-16914572D01*
X9961381Y-16924095D01*
X9970905Y-16933619D01*
X9980428Y-16952667D01*
X9980428Y-17000286D01*
X9970905Y-17019334D01*
X9961381Y-17028857D01*
X9942333Y-17038381D01*
X9885190Y-17038381D01*
X9866143Y-17028857D01*
X9856619Y-17019334D01*
X10075666Y-17038381D02*
X10113762Y-17038381D01*
X10132809Y-17028857D01*
X10142333Y-17019334D01*
X10161381Y-16990762D01*
X10170905Y-16952667D01*
X10170905Y-16876476D01*
X10161381Y-16857429D01*
X10151857Y-16847905D01*
X10132809Y-16838381D01*
X10094714Y-16838381D01*
X10075666Y-16847905D01*
X10066143Y-16857429D01*
X10056619Y-16876476D01*
X10056619Y-16924095D01*
X10066143Y-16943143D01*
X10075666Y-16952667D01*
X10094714Y-16962191D01*
X10132809Y-16962191D01*
X10151857Y-16952667D01*
X10161381Y-16943143D01*
X10170905Y-16924095D01*
X10342333Y-16905048D02*
X10342333Y-17038381D01*
X10294714Y-16828857D02*
X10247095Y-16971715D01*
X10370905Y-16971715D01*
X10437571Y-16838381D02*
X10437571Y-16876476D01*
X10513762Y-16838381D02*
X10513762Y-16876476D01*
X10809000Y-17114572D02*
X10799476Y-17105048D01*
X10780428Y-17076476D01*
X10770905Y-17057429D01*
X10761381Y-17028857D01*
X10751857Y-16981238D01*
X10751857Y-16943143D01*
X10761381Y-16895524D01*
X10770905Y-16866953D01*
X10780428Y-16847905D01*
X10799476Y-16819334D01*
X10809000Y-16809810D01*
X10980428Y-16838381D02*
X10885190Y-16838381D01*
X10875666Y-16933619D01*
X10885190Y-16924095D01*
X10904238Y-16914572D01*
X10951857Y-16914572D01*
X10970905Y-16924095D01*
X10980428Y-16933619D01*
X10989952Y-16952667D01*
X10989952Y-17000286D01*
X10980428Y-17019334D01*
X10970905Y-17028857D01*
X10951857Y-17038381D01*
X10904238Y-17038381D01*
X10885190Y-17028857D01*
X10875666Y-17019334D01*
X11066143Y-16857429D02*
X11075666Y-16847905D01*
X11094714Y-16838381D01*
X11142333Y-16838381D01*
X11161381Y-16847905D01*
X11170905Y-16857429D01*
X11180428Y-16876476D01*
X11180428Y-16895524D01*
X11170905Y-16924095D01*
X11056619Y-17038381D01*
X11180428Y-17038381D01*
X11418523Y-17038381D02*
X11418523Y-16838381D01*
X11504238Y-17038381D02*
X11504238Y-16933619D01*
X11494714Y-16914572D01*
X11475666Y-16905048D01*
X11447095Y-16905048D01*
X11428047Y-16914572D01*
X11418523Y-16924095D01*
X11628047Y-17038381D02*
X11609000Y-17028857D01*
X11599476Y-17019334D01*
X11589952Y-17000286D01*
X11589952Y-16943143D01*
X11599476Y-16924095D01*
X11609000Y-16914572D01*
X11628047Y-16905048D01*
X11656619Y-16905048D01*
X11675666Y-16914572D01*
X11685190Y-16924095D01*
X11694714Y-16943143D01*
X11694714Y-17000286D01*
X11685190Y-17019334D01*
X11675666Y-17028857D01*
X11656619Y-17038381D01*
X11628047Y-17038381D01*
X11809000Y-17038381D02*
X11789952Y-17028857D01*
X11780428Y-17009810D01*
X11780428Y-16838381D01*
X11961381Y-17028857D02*
X11942333Y-17038381D01*
X11904238Y-17038381D01*
X11885190Y-17028857D01*
X11875666Y-17009810D01*
X11875666Y-16933619D01*
X11885190Y-16914572D01*
X11904238Y-16905048D01*
X11942333Y-16905048D01*
X11961381Y-16914572D01*
X11970904Y-16933619D01*
X11970904Y-16952667D01*
X11875666Y-16971715D01*
X12047095Y-17028857D02*
X12066143Y-17038381D01*
X12104238Y-17038381D01*
X12123285Y-17028857D01*
X12132809Y-17009810D01*
X12132809Y-17000286D01*
X12123285Y-16981238D01*
X12104238Y-16971715D01*
X12075666Y-16971715D01*
X12056619Y-16962191D01*
X12047095Y-16943143D01*
X12047095Y-16933619D01*
X12056619Y-16914572D01*
X12075666Y-16905048D01*
X12104238Y-16905048D01*
X12123285Y-16914572D01*
X12199476Y-17114572D02*
X12209000Y-17105048D01*
X12228047Y-17076476D01*
X12237571Y-17057429D01*
X12247095Y-17028857D01*
X12256619Y-16981238D01*
X12256619Y-16943143D01*
X12247095Y-16895524D01*
X12237571Y-16866953D01*
X12228047Y-16847905D01*
X12209000Y-16819334D01*
X12199476Y-16809810D01*
D18*
X7135095Y-17160905D02*
X7237095Y-17262905D01*
X7237095Y-17160905D02*
X7135095Y-17262905D01*
X7186095Y-17160905D02*
X7186095Y-17262905D01*
X7135095Y-17211905D02*
X7237095Y-17211905D01*
D11*
X7599476Y-17302381D02*
X7485190Y-17302381D01*
X7542333Y-17302381D02*
X7542333Y-17102381D01*
X7523285Y-17130953D01*
X7504238Y-17150000D01*
X7485190Y-17159524D01*
X7685190Y-17283334D02*
X7694714Y-17292857D01*
X7685190Y-17302381D01*
X7675666Y-17292857D01*
X7685190Y-17283334D01*
X7685190Y-17302381D01*
X7818523Y-17102381D02*
X7837571Y-17102381D01*
X7856619Y-17111905D01*
X7866143Y-17121429D01*
X7875666Y-17140476D01*
X7885190Y-17178572D01*
X7885190Y-17226191D01*
X7875666Y-17264286D01*
X7866143Y-17283334D01*
X7856619Y-17292857D01*
X7837571Y-17302381D01*
X7818523Y-17302381D01*
X7799476Y-17292857D01*
X7789952Y-17283334D01*
X7780428Y-17264286D01*
X7770904Y-17226191D01*
X7770904Y-17178572D01*
X7780428Y-17140476D01*
X7789952Y-17121429D01*
X7799476Y-17111905D01*
X7818523Y-17102381D01*
X7961381Y-17121429D02*
X7970904Y-17111905D01*
X7989952Y-17102381D01*
X8037571Y-17102381D01*
X8056619Y-17111905D01*
X8066143Y-17121429D01*
X8075666Y-17140476D01*
X8075666Y-17159524D01*
X8066143Y-17188095D01*
X7951857Y-17302381D01*
X8075666Y-17302381D01*
X8199476Y-17102381D02*
X8218523Y-17102381D01*
X8237571Y-17111905D01*
X8247095Y-17121429D01*
X8256619Y-17140476D01*
X8266143Y-17178572D01*
X8266143Y-17226191D01*
X8256619Y-17264286D01*
X8247095Y-17283334D01*
X8237571Y-17292857D01*
X8218523Y-17302381D01*
X8199476Y-17302381D01*
X8180428Y-17292857D01*
X8170904Y-17283334D01*
X8161381Y-17264286D01*
X8151857Y-17226191D01*
X8151857Y-17178572D01*
X8161381Y-17140476D01*
X8170904Y-17121429D01*
X8180428Y-17111905D01*
X8199476Y-17102381D01*
X8351857Y-17302381D02*
X8351857Y-17169048D01*
X8351857Y-17188095D02*
X8361381Y-17178572D01*
X8380428Y-17169048D01*
X8409000Y-17169048D01*
X8428047Y-17178572D01*
X8437571Y-17197619D01*
X8437571Y-17302381D01*
X8437571Y-17197619D02*
X8447095Y-17178572D01*
X8466143Y-17169048D01*
X8494714Y-17169048D01*
X8513762Y-17178572D01*
X8523285Y-17197619D01*
X8523285Y-17302381D01*
X8618524Y-17302381D02*
X8618524Y-17169048D01*
X8618524Y-17188095D02*
X8628047Y-17178572D01*
X8647095Y-17169048D01*
X8675666Y-17169048D01*
X8694714Y-17178572D01*
X8704238Y-17197619D01*
X8704238Y-17302381D01*
X8704238Y-17197619D02*
X8713762Y-17178572D01*
X8732809Y-17169048D01*
X8761381Y-17169048D01*
X8780428Y-17178572D01*
X8789952Y-17197619D01*
X8789952Y-17302381D01*
X9180428Y-17092857D02*
X9009000Y-17350000D01*
X9437571Y-17102381D02*
X9456619Y-17102381D01*
X9475666Y-17111905D01*
X9485190Y-17121429D01*
X9494714Y-17140476D01*
X9504238Y-17178572D01*
X9504238Y-17226191D01*
X9494714Y-17264286D01*
X9485190Y-17283334D01*
X9475666Y-17292857D01*
X9456619Y-17302381D01*
X9437571Y-17302381D01*
X9418524Y-17292857D01*
X9409000Y-17283334D01*
X9399476Y-17264286D01*
X9389952Y-17226191D01*
X9389952Y-17178572D01*
X9399476Y-17140476D01*
X9409000Y-17121429D01*
X9418524Y-17111905D01*
X9437571Y-17102381D01*
X9589952Y-17283334D02*
X9599476Y-17292857D01*
X9589952Y-17302381D01*
X9580428Y-17292857D01*
X9589952Y-17283334D01*
X9589952Y-17302381D01*
X9723285Y-17102381D02*
X9742333Y-17102381D01*
X9761381Y-17111905D01*
X9770905Y-17121429D01*
X9780428Y-17140476D01*
X9789952Y-17178572D01*
X9789952Y-17226191D01*
X9780428Y-17264286D01*
X9770905Y-17283334D01*
X9761381Y-17292857D01*
X9742333Y-17302381D01*
X9723285Y-17302381D01*
X9704238Y-17292857D01*
X9694714Y-17283334D01*
X9685190Y-17264286D01*
X9675666Y-17226191D01*
X9675666Y-17178572D01*
X9685190Y-17140476D01*
X9694714Y-17121429D01*
X9704238Y-17111905D01*
X9723285Y-17102381D01*
X9961381Y-17169048D02*
X9961381Y-17302381D01*
X9913762Y-17092857D02*
X9866143Y-17235715D01*
X9989952Y-17235715D01*
X10104238Y-17102381D02*
X10123285Y-17102381D01*
X10142333Y-17111905D01*
X10151857Y-17121429D01*
X10161381Y-17140476D01*
X10170905Y-17178572D01*
X10170905Y-17226191D01*
X10161381Y-17264286D01*
X10151857Y-17283334D01*
X10142333Y-17292857D01*
X10123285Y-17302381D01*
X10104238Y-17302381D01*
X10085190Y-17292857D01*
X10075666Y-17283334D01*
X10066143Y-17264286D01*
X10056619Y-17226191D01*
X10056619Y-17178572D01*
X10066143Y-17140476D01*
X10075666Y-17121429D01*
X10085190Y-17111905D01*
X10104238Y-17102381D01*
X10247095Y-17121429D02*
X10256619Y-17111905D01*
X10275666Y-17102381D01*
X10323285Y-17102381D01*
X10342333Y-17111905D01*
X10351857Y-17121429D01*
X10361381Y-17140476D01*
X10361381Y-17159524D01*
X10351857Y-17188095D01*
X10237571Y-17302381D01*
X10361381Y-17302381D01*
X10437571Y-17102381D02*
X10437571Y-17140476D01*
X10513762Y-17102381D02*
X10513762Y-17140476D01*
X10809000Y-17378572D02*
X10799476Y-17369048D01*
X10780428Y-17340476D01*
X10770905Y-17321429D01*
X10761381Y-17292857D01*
X10751857Y-17245238D01*
X10751857Y-17207143D01*
X10761381Y-17159524D01*
X10770905Y-17130953D01*
X10780428Y-17111905D01*
X10799476Y-17083334D01*
X10809000Y-17073810D01*
X10970905Y-17169048D02*
X10970905Y-17302381D01*
X10923285Y-17092857D02*
X10875666Y-17235715D01*
X10999476Y-17235715D01*
X11056619Y-17102381D02*
X11180428Y-17102381D01*
X11113762Y-17178572D01*
X11142333Y-17178572D01*
X11161381Y-17188095D01*
X11170905Y-17197619D01*
X11180428Y-17216667D01*
X11180428Y-17264286D01*
X11170905Y-17283334D01*
X11161381Y-17292857D01*
X11142333Y-17302381D01*
X11085190Y-17302381D01*
X11066143Y-17292857D01*
X11056619Y-17283334D01*
X11418523Y-17302381D02*
X11418523Y-17102381D01*
X11504238Y-17302381D02*
X11504238Y-17197619D01*
X11494714Y-17178572D01*
X11475666Y-17169048D01*
X11447095Y-17169048D01*
X11428047Y-17178572D01*
X11418523Y-17188095D01*
X11628047Y-17302381D02*
X11609000Y-17292857D01*
X11599476Y-17283334D01*
X11589952Y-17264286D01*
X11589952Y-17207143D01*
X11599476Y-17188095D01*
X11609000Y-17178572D01*
X11628047Y-17169048D01*
X11656619Y-17169048D01*
X11675666Y-17178572D01*
X11685190Y-17188095D01*
X11694714Y-17207143D01*
X11694714Y-17264286D01*
X11685190Y-17283334D01*
X11675666Y-17292857D01*
X11656619Y-17302381D01*
X11628047Y-17302381D01*
X11809000Y-17302381D02*
X11789952Y-17292857D01*
X11780428Y-17273810D01*
X11780428Y-17102381D01*
X11961381Y-17292857D02*
X11942333Y-17302381D01*
X11904238Y-17302381D01*
X11885190Y-17292857D01*
X11875666Y-17273810D01*
X11875666Y-17197619D01*
X11885190Y-17178572D01*
X11904238Y-17169048D01*
X11942333Y-17169048D01*
X11961381Y-17178572D01*
X11970904Y-17197619D01*
X11970904Y-17216667D01*
X11875666Y-17235715D01*
X12047095Y-17292857D02*
X12066143Y-17302381D01*
X12104238Y-17302381D01*
X12123285Y-17292857D01*
X12132809Y-17273810D01*
X12132809Y-17264286D01*
X12123285Y-17245238D01*
X12104238Y-17235715D01*
X12075666Y-17235715D01*
X12056619Y-17226191D01*
X12047095Y-17207143D01*
X12047095Y-17197619D01*
X12056619Y-17178572D01*
X12075666Y-17169048D01*
X12104238Y-17169048D01*
X12123285Y-17178572D01*
X12199476Y-17378572D02*
X12209000Y-17369048D01*
X12228047Y-17340476D01*
X12237571Y-17321429D01*
X12247095Y-17292857D01*
X12256619Y-17245238D01*
X12256619Y-17207143D01*
X12247095Y-17159524D01*
X12237571Y-17130953D01*
X12228047Y-17111905D01*
X12209000Y-17083334D01*
X12199476Y-17073810D01*
D19*
X7127095Y-17420905D02*
X7237095Y-17530905D01*
X7237095Y-17420905D02*
X7127095Y-17530905D01*
X7220986Y-17514796D02*
X7220986Y-17437014D01*
X7143204Y-17437014D01*
X7143204Y-17514796D01*
X7220986Y-17514796D01*
D11*
X7599476Y-17566381D02*
X7485190Y-17566381D01*
X7542333Y-17566381D02*
X7542333Y-17366381D01*
X7523285Y-17394953D01*
X7504238Y-17414000D01*
X7485190Y-17423524D01*
X7685190Y-17547334D02*
X7694714Y-17556857D01*
X7685190Y-17566381D01*
X7675666Y-17556857D01*
X7685190Y-17547334D01*
X7685190Y-17566381D01*
X7885190Y-17566381D02*
X7770904Y-17566381D01*
X7828047Y-17566381D02*
X7828047Y-17366381D01*
X7809000Y-17394953D01*
X7789952Y-17414000D01*
X7770904Y-17423524D01*
X8009000Y-17366381D02*
X8028047Y-17366381D01*
X8047095Y-17375905D01*
X8056619Y-17385429D01*
X8066143Y-17404476D01*
X8075666Y-17442572D01*
X8075666Y-17490191D01*
X8066143Y-17528286D01*
X8056619Y-17547334D01*
X8047095Y-17556857D01*
X8028047Y-17566381D01*
X8009000Y-17566381D01*
X7989952Y-17556857D01*
X7980428Y-17547334D01*
X7970904Y-17528286D01*
X7961381Y-17490191D01*
X7961381Y-17442572D01*
X7970904Y-17404476D01*
X7980428Y-17385429D01*
X7989952Y-17375905D01*
X8009000Y-17366381D01*
X8199476Y-17366381D02*
X8218523Y-17366381D01*
X8237571Y-17375905D01*
X8247095Y-17385429D01*
X8256619Y-17404476D01*
X8266143Y-17442572D01*
X8266143Y-17490191D01*
X8256619Y-17528286D01*
X8247095Y-17547334D01*
X8237571Y-17556857D01*
X8218523Y-17566381D01*
X8199476Y-17566381D01*
X8180428Y-17556857D01*
X8170904Y-17547334D01*
X8161381Y-17528286D01*
X8151857Y-17490191D01*
X8151857Y-17442572D01*
X8161381Y-17404476D01*
X8170904Y-17385429D01*
X8180428Y-17375905D01*
X8199476Y-17366381D01*
X8351857Y-17566381D02*
X8351857Y-17433048D01*
X8351857Y-17452095D02*
X8361381Y-17442572D01*
X8380428Y-17433048D01*
X8409000Y-17433048D01*
X8428047Y-17442572D01*
X8437571Y-17461619D01*
X8437571Y-17566381D01*
X8437571Y-17461619D02*
X8447095Y-17442572D01*
X8466143Y-17433048D01*
X8494714Y-17433048D01*
X8513762Y-17442572D01*
X8523285Y-17461619D01*
X8523285Y-17566381D01*
X8618524Y-17566381D02*
X8618524Y-17433048D01*
X8618524Y-17452095D02*
X8628047Y-17442572D01*
X8647095Y-17433048D01*
X8675666Y-17433048D01*
X8694714Y-17442572D01*
X8704238Y-17461619D01*
X8704238Y-17566381D01*
X8704238Y-17461619D02*
X8713762Y-17442572D01*
X8732809Y-17433048D01*
X8761381Y-17433048D01*
X8780428Y-17442572D01*
X8789952Y-17461619D01*
X8789952Y-17566381D01*
X9180428Y-17356857D02*
X9009000Y-17614000D01*
X9437571Y-17366381D02*
X9456619Y-17366381D01*
X9475666Y-17375905D01*
X9485190Y-17385429D01*
X9494714Y-17404476D01*
X9504238Y-17442572D01*
X9504238Y-17490191D01*
X9494714Y-17528286D01*
X9485190Y-17547334D01*
X9475666Y-17556857D01*
X9456619Y-17566381D01*
X9437571Y-17566381D01*
X9418524Y-17556857D01*
X9409000Y-17547334D01*
X9399476Y-17528286D01*
X9389952Y-17490191D01*
X9389952Y-17442572D01*
X9399476Y-17404476D01*
X9409000Y-17385429D01*
X9418524Y-17375905D01*
X9437571Y-17366381D01*
X9589952Y-17547334D02*
X9599476Y-17556857D01*
X9589952Y-17566381D01*
X9580428Y-17556857D01*
X9589952Y-17547334D01*
X9589952Y-17566381D01*
X9723285Y-17366381D02*
X9742333Y-17366381D01*
X9761381Y-17375905D01*
X9770905Y-17385429D01*
X9780428Y-17404476D01*
X9789952Y-17442572D01*
X9789952Y-17490191D01*
X9780428Y-17528286D01*
X9770905Y-17547334D01*
X9761381Y-17556857D01*
X9742333Y-17566381D01*
X9723285Y-17566381D01*
X9704238Y-17556857D01*
X9694714Y-17547334D01*
X9685190Y-17528286D01*
X9675666Y-17490191D01*
X9675666Y-17442572D01*
X9685190Y-17404476D01*
X9694714Y-17385429D01*
X9704238Y-17375905D01*
X9723285Y-17366381D01*
X9961381Y-17433048D02*
X9961381Y-17566381D01*
X9913762Y-17356857D02*
X9866143Y-17499715D01*
X9989952Y-17499715D01*
X10047095Y-17366381D02*
X10170905Y-17366381D01*
X10104238Y-17442572D01*
X10132809Y-17442572D01*
X10151857Y-17452095D01*
X10161381Y-17461619D01*
X10170905Y-17480667D01*
X10170905Y-17528286D01*
X10161381Y-17547334D01*
X10151857Y-17556857D01*
X10132809Y-17566381D01*
X10075666Y-17566381D01*
X10056619Y-17556857D01*
X10047095Y-17547334D01*
X10237571Y-17366381D02*
X10361381Y-17366381D01*
X10294714Y-17442572D01*
X10323285Y-17442572D01*
X10342333Y-17452095D01*
X10351857Y-17461619D01*
X10361381Y-17480667D01*
X10361381Y-17528286D01*
X10351857Y-17547334D01*
X10342333Y-17556857D01*
X10323285Y-17566381D01*
X10266143Y-17566381D01*
X10247095Y-17556857D01*
X10237571Y-17547334D01*
X10437571Y-17366381D02*
X10437571Y-17404476D01*
X10513762Y-17366381D02*
X10513762Y-17404476D01*
X10809000Y-17642572D02*
X10799476Y-17633048D01*
X10780428Y-17604476D01*
X10770905Y-17585429D01*
X10761381Y-17556857D01*
X10751857Y-17509238D01*
X10751857Y-17471143D01*
X10761381Y-17423524D01*
X10770905Y-17394953D01*
X10780428Y-17375905D01*
X10799476Y-17347334D01*
X10809000Y-17337810D01*
X10913762Y-17452095D02*
X10894714Y-17442572D01*
X10885190Y-17433048D01*
X10875666Y-17414000D01*
X10875666Y-17404476D01*
X10885190Y-17385429D01*
X10894714Y-17375905D01*
X10913762Y-17366381D01*
X10951857Y-17366381D01*
X10970905Y-17375905D01*
X10980428Y-17385429D01*
X10989952Y-17404476D01*
X10989952Y-17414000D01*
X10980428Y-17433048D01*
X10970905Y-17442572D01*
X10951857Y-17452095D01*
X10913762Y-17452095D01*
X10894714Y-17461619D01*
X10885190Y-17471143D01*
X10875666Y-17490191D01*
X10875666Y-17528286D01*
X10885190Y-17547334D01*
X10894714Y-17556857D01*
X10913762Y-17566381D01*
X10951857Y-17566381D01*
X10970905Y-17556857D01*
X10980428Y-17547334D01*
X10989952Y-17528286D01*
X10989952Y-17490191D01*
X10980428Y-17471143D01*
X10970905Y-17461619D01*
X10951857Y-17452095D01*
X11228047Y-17566381D02*
X11228047Y-17366381D01*
X11313762Y-17566381D02*
X11313762Y-17461619D01*
X11304238Y-17442572D01*
X11285190Y-17433048D01*
X11256619Y-17433048D01*
X11237571Y-17442572D01*
X11228047Y-17452095D01*
X11437571Y-17566381D02*
X11418523Y-17556857D01*
X11409000Y-17547334D01*
X11399476Y-17528286D01*
X11399476Y-17471143D01*
X11409000Y-17452095D01*
X11418523Y-17442572D01*
X11437571Y-17433048D01*
X11466143Y-17433048D01*
X11485190Y-17442572D01*
X11494714Y-17452095D01*
X11504238Y-17471143D01*
X11504238Y-17528286D01*
X11494714Y-17547334D01*
X11485190Y-17556857D01*
X11466143Y-17566381D01*
X11437571Y-17566381D01*
X11618523Y-17566381D02*
X11599476Y-17556857D01*
X11589952Y-17537810D01*
X11589952Y-17366381D01*
X11770904Y-17556857D02*
X11751857Y-17566381D01*
X11713762Y-17566381D01*
X11694714Y-17556857D01*
X11685190Y-17537810D01*
X11685190Y-17461619D01*
X11694714Y-17442572D01*
X11713762Y-17433048D01*
X11751857Y-17433048D01*
X11770904Y-17442572D01*
X11780428Y-17461619D01*
X11780428Y-17480667D01*
X11685190Y-17499715D01*
X11856619Y-17556857D02*
X11875666Y-17566381D01*
X11913762Y-17566381D01*
X11932809Y-17556857D01*
X11942333Y-17537810D01*
X11942333Y-17528286D01*
X11932809Y-17509238D01*
X11913762Y-17499715D01*
X11885190Y-17499715D01*
X11866143Y-17490191D01*
X11856619Y-17471143D01*
X11856619Y-17461619D01*
X11866143Y-17442572D01*
X11885190Y-17433048D01*
X11913762Y-17433048D01*
X11932809Y-17442572D01*
X12009000Y-17642572D02*
X12018523Y-17633048D01*
X12037571Y-17604476D01*
X12047095Y-17585429D01*
X12056619Y-17556857D01*
X12066143Y-17509238D01*
X12066143Y-17471143D01*
X12056619Y-17423524D01*
X12047095Y-17394953D01*
X12037571Y-17375905D01*
X12018523Y-17347334D01*
X12009000Y-17337810D01*
D20*
X7120095Y-17681405D02*
X7237095Y-17798405D01*
X7237095Y-17681405D02*
X7120095Y-17798405D01*
X7178595Y-17798405D02*
X7237095Y-17739905D01*
X7178595Y-17681405D01*
X7120095Y-17739905D01*
X7178595Y-17798405D01*
D11*
X7599476Y-17830381D02*
X7485190Y-17830381D01*
X7542333Y-17830381D02*
X7542333Y-17630381D01*
X7523285Y-17658953D01*
X7504238Y-17678000D01*
X7485190Y-17687524D01*
X7685190Y-17811334D02*
X7694714Y-17820857D01*
X7685190Y-17830381D01*
X7675666Y-17820857D01*
X7685190Y-17811334D01*
X7685190Y-17830381D01*
X7885190Y-17830381D02*
X7770904Y-17830381D01*
X7828047Y-17830381D02*
X7828047Y-17630381D01*
X7809000Y-17658953D01*
X7789952Y-17678000D01*
X7770904Y-17687524D01*
X7951857Y-17630381D02*
X8085190Y-17630381D01*
X7999476Y-17830381D01*
X8199476Y-17630381D02*
X8218523Y-17630381D01*
X8237571Y-17639905D01*
X8247095Y-17649429D01*
X8256619Y-17668476D01*
X8266143Y-17706572D01*
X8266143Y-17754191D01*
X8256619Y-17792286D01*
X8247095Y-17811334D01*
X8237571Y-17820857D01*
X8218523Y-17830381D01*
X8199476Y-17830381D01*
X8180428Y-17820857D01*
X8170904Y-17811334D01*
X8161381Y-17792286D01*
X8151857Y-17754191D01*
X8151857Y-17706572D01*
X8161381Y-17668476D01*
X8170904Y-17649429D01*
X8180428Y-17639905D01*
X8199476Y-17630381D01*
X8351857Y-17830381D02*
X8351857Y-17697048D01*
X8351857Y-17716095D02*
X8361381Y-17706572D01*
X8380428Y-17697048D01*
X8409000Y-17697048D01*
X8428047Y-17706572D01*
X8437571Y-17725619D01*
X8437571Y-17830381D01*
X8437571Y-17725619D02*
X8447095Y-17706572D01*
X8466143Y-17697048D01*
X8494714Y-17697048D01*
X8513762Y-17706572D01*
X8523285Y-17725619D01*
X8523285Y-17830381D01*
X8618524Y-17830381D02*
X8618524Y-17697048D01*
X8618524Y-17716095D02*
X8628047Y-17706572D01*
X8647095Y-17697048D01*
X8675666Y-17697048D01*
X8694714Y-17706572D01*
X8704238Y-17725619D01*
X8704238Y-17830381D01*
X8704238Y-17725619D02*
X8713762Y-17706572D01*
X8732809Y-17697048D01*
X8761381Y-17697048D01*
X8780428Y-17706572D01*
X8789952Y-17725619D01*
X8789952Y-17830381D01*
X9180428Y-17620857D02*
X9009000Y-17878000D01*
X9437571Y-17630381D02*
X9456619Y-17630381D01*
X9475666Y-17639905D01*
X9485190Y-17649429D01*
X9494714Y-17668476D01*
X9504238Y-17706572D01*
X9504238Y-17754191D01*
X9494714Y-17792286D01*
X9485190Y-17811334D01*
X9475666Y-17820857D01*
X9456619Y-17830381D01*
X9437571Y-17830381D01*
X9418524Y-17820857D01*
X9409000Y-17811334D01*
X9399476Y-17792286D01*
X9389952Y-17754191D01*
X9389952Y-17706572D01*
X9399476Y-17668476D01*
X9409000Y-17649429D01*
X9418524Y-17639905D01*
X9437571Y-17630381D01*
X9589952Y-17811334D02*
X9599476Y-17820857D01*
X9589952Y-17830381D01*
X9580428Y-17820857D01*
X9589952Y-17811334D01*
X9589952Y-17830381D01*
X9723285Y-17630381D02*
X9742333Y-17630381D01*
X9761381Y-17639905D01*
X9770905Y-17649429D01*
X9780428Y-17668476D01*
X9789952Y-17706572D01*
X9789952Y-17754191D01*
X9780428Y-17792286D01*
X9770905Y-17811334D01*
X9761381Y-17820857D01*
X9742333Y-17830381D01*
X9723285Y-17830381D01*
X9704238Y-17820857D01*
X9694714Y-17811334D01*
X9685190Y-17792286D01*
X9675666Y-17754191D01*
X9675666Y-17706572D01*
X9685190Y-17668476D01*
X9694714Y-17649429D01*
X9704238Y-17639905D01*
X9723285Y-17630381D01*
X9961381Y-17697048D02*
X9961381Y-17830381D01*
X9913762Y-17620857D02*
X9866143Y-17763715D01*
X9989952Y-17763715D01*
X10151857Y-17630381D02*
X10113762Y-17630381D01*
X10094714Y-17639905D01*
X10085190Y-17649429D01*
X10066143Y-17678000D01*
X10056619Y-17716095D01*
X10056619Y-17792286D01*
X10066143Y-17811334D01*
X10075666Y-17820857D01*
X10094714Y-17830381D01*
X10132809Y-17830381D01*
X10151857Y-17820857D01*
X10161381Y-17811334D01*
X10170905Y-17792286D01*
X10170905Y-17744667D01*
X10161381Y-17725619D01*
X10151857Y-17716095D01*
X10132809Y-17706572D01*
X10094714Y-17706572D01*
X10075666Y-17716095D01*
X10066143Y-17725619D01*
X10056619Y-17744667D01*
X10361381Y-17830381D02*
X10247095Y-17830381D01*
X10304238Y-17830381D02*
X10304238Y-17630381D01*
X10285190Y-17658953D01*
X10266143Y-17678000D01*
X10247095Y-17687524D01*
X10437571Y-17630381D02*
X10437571Y-17668476D01*
X10513762Y-17630381D02*
X10513762Y-17668476D01*
X10809000Y-17906572D02*
X10799476Y-17897048D01*
X10780428Y-17868476D01*
X10770905Y-17849429D01*
X10761381Y-17820857D01*
X10751857Y-17773238D01*
X10751857Y-17735143D01*
X10761381Y-17687524D01*
X10770905Y-17658953D01*
X10780428Y-17639905D01*
X10799476Y-17611334D01*
X10809000Y-17601810D01*
X10989952Y-17830381D02*
X10875666Y-17830381D01*
X10932809Y-17830381D02*
X10932809Y-17630381D01*
X10913762Y-17658953D01*
X10894714Y-17678000D01*
X10875666Y-17687524D01*
X11228047Y-17830381D02*
X11228047Y-17630381D01*
X11313762Y-17830381D02*
X11313762Y-17725619D01*
X11304238Y-17706572D01*
X11285190Y-17697048D01*
X11256619Y-17697048D01*
X11237571Y-17706572D01*
X11228047Y-17716095D01*
X11437571Y-17830381D02*
X11418523Y-17820857D01*
X11409000Y-17811334D01*
X11399476Y-17792286D01*
X11399476Y-17735143D01*
X11409000Y-17716095D01*
X11418523Y-17706572D01*
X11437571Y-17697048D01*
X11466143Y-17697048D01*
X11485190Y-17706572D01*
X11494714Y-17716095D01*
X11504238Y-17735143D01*
X11504238Y-17792286D01*
X11494714Y-17811334D01*
X11485190Y-17820857D01*
X11466143Y-17830381D01*
X11437571Y-17830381D01*
X11618523Y-17830381D02*
X11599476Y-17820857D01*
X11589952Y-17801810D01*
X11589952Y-17630381D01*
X11770904Y-17820857D02*
X11751857Y-17830381D01*
X11713762Y-17830381D01*
X11694714Y-17820857D01*
X11685190Y-17801810D01*
X11685190Y-17725619D01*
X11694714Y-17706572D01*
X11713762Y-17697048D01*
X11751857Y-17697048D01*
X11770904Y-17706572D01*
X11780428Y-17725619D01*
X11780428Y-17744667D01*
X11685190Y-17763715D01*
X11847095Y-17906572D02*
X11856619Y-17897048D01*
X11875666Y-17868476D01*
X11885190Y-17849429D01*
X11894714Y-17820857D01*
X11904238Y-17773238D01*
X11904238Y-17735143D01*
X11894714Y-17687524D01*
X11885190Y-17658953D01*
X11875666Y-17639905D01*
X11856619Y-17611334D01*
X11847095Y-17601810D01*
D21*
X7162095Y-17928905D02*
X7162095Y-18078905D01*
X7087095Y-18003905D02*
X7237095Y-18003905D01*
X7237095Y-18003905D02*
G75*
G03*
X7237095Y-18003905I-75000J0D01*
G01*
D11*
X7599476Y-18094381D02*
X7485190Y-18094381D01*
X7542333Y-18094381D02*
X7542333Y-17894381D01*
X7523285Y-17922953D01*
X7504238Y-17942000D01*
X7485190Y-17951524D01*
X7685190Y-18075334D02*
X7694714Y-18084857D01*
X7685190Y-18094381D01*
X7675666Y-18084857D01*
X7685190Y-18075334D01*
X7685190Y-18094381D01*
X7875666Y-17894381D02*
X7780428Y-17894381D01*
X7770904Y-17989619D01*
X7780428Y-17980095D01*
X7799476Y-17970572D01*
X7847095Y-17970572D01*
X7866143Y-17980095D01*
X7875666Y-17989619D01*
X7885190Y-18008667D01*
X7885190Y-18056286D01*
X7875666Y-18075334D01*
X7866143Y-18084857D01*
X7847095Y-18094381D01*
X7799476Y-18094381D01*
X7780428Y-18084857D01*
X7770904Y-18075334D01*
X8009000Y-17894381D02*
X8028047Y-17894381D01*
X8047095Y-17903905D01*
X8056619Y-17913429D01*
X8066143Y-17932476D01*
X8075666Y-17970572D01*
X8075666Y-18018191D01*
X8066143Y-18056286D01*
X8056619Y-18075334D01*
X8047095Y-18084857D01*
X8028047Y-18094381D01*
X8009000Y-18094381D01*
X7989952Y-18084857D01*
X7980428Y-18075334D01*
X7970904Y-18056286D01*
X7961381Y-18018191D01*
X7961381Y-17970572D01*
X7970904Y-17932476D01*
X7980428Y-17913429D01*
X7989952Y-17903905D01*
X8009000Y-17894381D01*
X8199476Y-17894381D02*
X8218523Y-17894381D01*
X8237571Y-17903905D01*
X8247095Y-17913429D01*
X8256619Y-17932476D01*
X8266143Y-17970572D01*
X8266143Y-18018191D01*
X8256619Y-18056286D01*
X8247095Y-18075334D01*
X8237571Y-18084857D01*
X8218523Y-18094381D01*
X8199476Y-18094381D01*
X8180428Y-18084857D01*
X8170904Y-18075334D01*
X8161381Y-18056286D01*
X8151857Y-18018191D01*
X8151857Y-17970572D01*
X8161381Y-17932476D01*
X8170904Y-17913429D01*
X8180428Y-17903905D01*
X8199476Y-17894381D01*
X8351857Y-18094381D02*
X8351857Y-17961048D01*
X8351857Y-17980095D02*
X8361381Y-17970572D01*
X8380428Y-17961048D01*
X8409000Y-17961048D01*
X8428047Y-17970572D01*
X8437571Y-17989619D01*
X8437571Y-18094381D01*
X8437571Y-17989619D02*
X8447095Y-17970572D01*
X8466143Y-17961048D01*
X8494714Y-17961048D01*
X8513762Y-17970572D01*
X8523285Y-17989619D01*
X8523285Y-18094381D01*
X8618524Y-18094381D02*
X8618524Y-17961048D01*
X8618524Y-17980095D02*
X8628047Y-17970572D01*
X8647095Y-17961048D01*
X8675666Y-17961048D01*
X8694714Y-17970572D01*
X8704238Y-17989619D01*
X8704238Y-18094381D01*
X8704238Y-17989619D02*
X8713762Y-17970572D01*
X8732809Y-17961048D01*
X8761381Y-17961048D01*
X8780428Y-17970572D01*
X8789952Y-17989619D01*
X8789952Y-18094381D01*
X9180428Y-17884857D02*
X9009000Y-18142000D01*
X9437571Y-17894381D02*
X9456619Y-17894381D01*
X9475666Y-17903905D01*
X9485190Y-17913429D01*
X9494714Y-17932476D01*
X9504238Y-17970572D01*
X9504238Y-18018191D01*
X9494714Y-18056286D01*
X9485190Y-18075334D01*
X9475666Y-18084857D01*
X9456619Y-18094381D01*
X9437571Y-18094381D01*
X9418524Y-18084857D01*
X9409000Y-18075334D01*
X9399476Y-18056286D01*
X9389952Y-18018191D01*
X9389952Y-17970572D01*
X9399476Y-17932476D01*
X9409000Y-17913429D01*
X9418524Y-17903905D01*
X9437571Y-17894381D01*
X9589952Y-18075334D02*
X9599476Y-18084857D01*
X9589952Y-18094381D01*
X9580428Y-18084857D01*
X9589952Y-18075334D01*
X9589952Y-18094381D01*
X9723285Y-17894381D02*
X9742333Y-17894381D01*
X9761381Y-17903905D01*
X9770905Y-17913429D01*
X9780428Y-17932476D01*
X9789952Y-17970572D01*
X9789952Y-18018191D01*
X9780428Y-18056286D01*
X9770905Y-18075334D01*
X9761381Y-18084857D01*
X9742333Y-18094381D01*
X9723285Y-18094381D01*
X9704238Y-18084857D01*
X9694714Y-18075334D01*
X9685190Y-18056286D01*
X9675666Y-18018191D01*
X9675666Y-17970572D01*
X9685190Y-17932476D01*
X9694714Y-17913429D01*
X9704238Y-17903905D01*
X9723285Y-17894381D01*
X9970905Y-17894381D02*
X9875666Y-17894381D01*
X9866143Y-17989619D01*
X9875666Y-17980095D01*
X9894714Y-17970572D01*
X9942333Y-17970572D01*
X9961381Y-17980095D01*
X9970905Y-17989619D01*
X9980428Y-18008667D01*
X9980428Y-18056286D01*
X9970905Y-18075334D01*
X9961381Y-18084857D01*
X9942333Y-18094381D01*
X9894714Y-18094381D01*
X9875666Y-18084857D01*
X9866143Y-18075334D01*
X10075666Y-18094381D02*
X10113762Y-18094381D01*
X10132809Y-18084857D01*
X10142333Y-18075334D01*
X10161381Y-18046762D01*
X10170905Y-18008667D01*
X10170905Y-17932476D01*
X10161381Y-17913429D01*
X10151857Y-17903905D01*
X10132809Y-17894381D01*
X10094714Y-17894381D01*
X10075666Y-17903905D01*
X10066143Y-17913429D01*
X10056619Y-17932476D01*
X10056619Y-17980095D01*
X10066143Y-17999143D01*
X10075666Y-18008667D01*
X10094714Y-18018191D01*
X10132809Y-18018191D01*
X10151857Y-18008667D01*
X10161381Y-17999143D01*
X10170905Y-17980095D01*
X10361381Y-18094381D02*
X10247095Y-18094381D01*
X10304238Y-18094381D02*
X10304238Y-17894381D01*
X10285190Y-17922953D01*
X10266143Y-17942000D01*
X10247095Y-17951524D01*
X10437571Y-17894381D02*
X10437571Y-17932476D01*
X10513762Y-17894381D02*
X10513762Y-17932476D01*
X10809000Y-18170572D02*
X10799476Y-18161048D01*
X10780428Y-18132476D01*
X10770905Y-18113429D01*
X10761381Y-18084857D01*
X10751857Y-18037238D01*
X10751857Y-17999143D01*
X10761381Y-17951524D01*
X10770905Y-17922953D01*
X10780428Y-17903905D01*
X10799476Y-17875334D01*
X10809000Y-17865810D01*
X10989952Y-18094381D02*
X10875666Y-18094381D01*
X10932809Y-18094381D02*
X10932809Y-17894381D01*
X10913762Y-17922953D01*
X10894714Y-17942000D01*
X10875666Y-17951524D01*
X11228047Y-18094381D02*
X11228047Y-17894381D01*
X11313762Y-18094381D02*
X11313762Y-17989619D01*
X11304238Y-17970572D01*
X11285190Y-17961048D01*
X11256619Y-17961048D01*
X11237571Y-17970572D01*
X11228047Y-17980095D01*
X11437571Y-18094381D02*
X11418523Y-18084857D01*
X11409000Y-18075334D01*
X11399476Y-18056286D01*
X11399476Y-17999143D01*
X11409000Y-17980095D01*
X11418523Y-17970572D01*
X11437571Y-17961048D01*
X11466143Y-17961048D01*
X11485190Y-17970572D01*
X11494714Y-17980095D01*
X11504238Y-17999143D01*
X11504238Y-18056286D01*
X11494714Y-18075334D01*
X11485190Y-18084857D01*
X11466143Y-18094381D01*
X11437571Y-18094381D01*
X11618523Y-18094381D02*
X11599476Y-18084857D01*
X11589952Y-18065810D01*
X11589952Y-17894381D01*
X11770904Y-18084857D02*
X11751857Y-18094381D01*
X11713762Y-18094381D01*
X11694714Y-18084857D01*
X11685190Y-18065810D01*
X11685190Y-17989619D01*
X11694714Y-17970572D01*
X11713762Y-17961048D01*
X11751857Y-17961048D01*
X11770904Y-17970572D01*
X11780428Y-17989619D01*
X11780428Y-18008667D01*
X11685190Y-18027715D01*
X11856619Y-18084857D02*
X11875666Y-18094381D01*
X11913762Y-18094381D01*
X11932809Y-18084857D01*
X11942333Y-18065810D01*
X11942333Y-18056286D01*
X11932809Y-18037238D01*
X11913762Y-18027715D01*
X11885190Y-18027715D01*
X11866143Y-18018191D01*
X11856619Y-17999143D01*
X11856619Y-17989619D01*
X11866143Y-17970572D01*
X11885190Y-17961048D01*
X11913762Y-17961048D01*
X11932809Y-17970572D01*
X12180428Y-18018191D02*
X12332809Y-18018191D01*
X12256619Y-18094381D02*
X12256619Y-17942000D01*
X12570904Y-17913429D02*
X12580428Y-17903905D01*
X12599476Y-17894381D01*
X12647095Y-17894381D01*
X12666143Y-17903905D01*
X12675666Y-17913429D01*
X12685190Y-17932476D01*
X12685190Y-17951524D01*
X12675666Y-17980095D01*
X12561381Y-18094381D01*
X12685190Y-18094381D01*
X12913762Y-18084857D02*
X12932809Y-18094381D01*
X12970904Y-18094381D01*
X12989952Y-18084857D01*
X12999476Y-18065810D01*
X12999476Y-18056286D01*
X12989952Y-18037238D01*
X12970904Y-18027715D01*
X12942333Y-18027715D01*
X12923285Y-18018191D01*
X12913762Y-17999143D01*
X12913762Y-17989619D01*
X12923285Y-17970572D01*
X12942333Y-17961048D01*
X12970904Y-17961048D01*
X12989952Y-17970572D01*
X13113762Y-18094381D02*
X13094714Y-18084857D01*
X13085190Y-18065810D01*
X13085190Y-17894381D01*
X13218523Y-18094381D02*
X13199476Y-18084857D01*
X13189952Y-18075334D01*
X13180428Y-18056286D01*
X13180428Y-17999143D01*
X13189952Y-17980095D01*
X13199476Y-17970572D01*
X13218523Y-17961048D01*
X13247095Y-17961048D01*
X13266143Y-17970572D01*
X13275666Y-17980095D01*
X13285190Y-17999143D01*
X13285190Y-18056286D01*
X13275666Y-18075334D01*
X13266143Y-18084857D01*
X13247095Y-18094381D01*
X13218523Y-18094381D01*
X13342333Y-17961048D02*
X13418523Y-17961048D01*
X13370904Y-17894381D02*
X13370904Y-18065810D01*
X13380428Y-18084857D01*
X13399476Y-18094381D01*
X13418523Y-18094381D01*
X13475666Y-18084857D02*
X13494714Y-18094381D01*
X13532809Y-18094381D01*
X13551857Y-18084857D01*
X13561381Y-18065810D01*
X13561381Y-18056286D01*
X13551857Y-18037238D01*
X13532809Y-18027715D01*
X13504238Y-18027715D01*
X13485190Y-18018191D01*
X13475666Y-17999143D01*
X13475666Y-17989619D01*
X13485190Y-17970572D01*
X13504238Y-17961048D01*
X13532809Y-17961048D01*
X13551857Y-17970572D01*
X13628047Y-18170572D02*
X13637571Y-18161048D01*
X13656619Y-18132476D01*
X13666143Y-18113429D01*
X13675666Y-18084857D01*
X13685190Y-18037238D01*
X13685190Y-17999143D01*
X13675666Y-17951524D01*
X13666143Y-17922953D01*
X13656619Y-17903905D01*
X13637571Y-17875334D01*
X13628047Y-17865810D01*
X7207806Y-18344616D02*
X7207806Y-18203194D01*
X7066384Y-18203194D01*
X7066384Y-18344616D01*
X7207806Y-18344616D01*
X7237095Y-18273905D02*
G75*
G03*
X7237095Y-18273905I-100000J0D01*
G01*
X7485190Y-18183429D02*
X7494714Y-18173905D01*
X7513762Y-18164381D01*
X7561381Y-18164381D01*
X7580428Y-18173905D01*
X7589952Y-18183429D01*
X7599476Y-18202476D01*
X7599476Y-18221524D01*
X7589952Y-18250095D01*
X7475666Y-18364381D01*
X7599476Y-18364381D01*
X7685190Y-18345334D02*
X7694714Y-18354857D01*
X7685190Y-18364381D01*
X7675666Y-18354857D01*
X7685190Y-18345334D01*
X7685190Y-18364381D01*
X7875666Y-18164381D02*
X7780428Y-18164381D01*
X7770904Y-18259619D01*
X7780428Y-18250095D01*
X7799476Y-18240572D01*
X7847095Y-18240572D01*
X7866143Y-18250095D01*
X7875666Y-18259619D01*
X7885190Y-18278667D01*
X7885190Y-18326286D01*
X7875666Y-18345334D01*
X7866143Y-18354857D01*
X7847095Y-18364381D01*
X7799476Y-18364381D01*
X7780428Y-18354857D01*
X7770904Y-18345334D01*
X8009000Y-18164381D02*
X8028047Y-18164381D01*
X8047095Y-18173905D01*
X8056619Y-18183429D01*
X8066143Y-18202476D01*
X8075666Y-18240572D01*
X8075666Y-18288191D01*
X8066143Y-18326286D01*
X8056619Y-18345334D01*
X8047095Y-18354857D01*
X8028047Y-18364381D01*
X8009000Y-18364381D01*
X7989952Y-18354857D01*
X7980428Y-18345334D01*
X7970904Y-18326286D01*
X7961381Y-18288191D01*
X7961381Y-18240572D01*
X7970904Y-18202476D01*
X7980428Y-18183429D01*
X7989952Y-18173905D01*
X8009000Y-18164381D01*
X8199476Y-18164381D02*
X8218523Y-18164381D01*
X8237571Y-18173905D01*
X8247095Y-18183429D01*
X8256619Y-18202476D01*
X8266143Y-18240572D01*
X8266143Y-18288191D01*
X8256619Y-18326286D01*
X8247095Y-18345334D01*
X8237571Y-18354857D01*
X8218523Y-18364381D01*
X8199476Y-18364381D01*
X8180428Y-18354857D01*
X8170904Y-18345334D01*
X8161381Y-18326286D01*
X8151857Y-18288191D01*
X8151857Y-18240572D01*
X8161381Y-18202476D01*
X8170904Y-18183429D01*
X8180428Y-18173905D01*
X8199476Y-18164381D01*
X8351857Y-18364381D02*
X8351857Y-18231048D01*
X8351857Y-18250095D02*
X8361381Y-18240572D01*
X8380428Y-18231048D01*
X8409000Y-18231048D01*
X8428047Y-18240572D01*
X8437571Y-18259619D01*
X8437571Y-18364381D01*
X8437571Y-18259619D02*
X8447095Y-18240572D01*
X8466143Y-18231048D01*
X8494714Y-18231048D01*
X8513762Y-18240572D01*
X8523285Y-18259619D01*
X8523285Y-18364381D01*
X8618524Y-18364381D02*
X8618524Y-18231048D01*
X8618524Y-18250095D02*
X8628047Y-18240572D01*
X8647095Y-18231048D01*
X8675666Y-18231048D01*
X8694714Y-18240572D01*
X8704238Y-18259619D01*
X8704238Y-18364381D01*
X8704238Y-18259619D02*
X8713762Y-18240572D01*
X8732809Y-18231048D01*
X8761381Y-18231048D01*
X8780428Y-18240572D01*
X8789952Y-18259619D01*
X8789952Y-18364381D01*
X9180428Y-18154857D02*
X9009000Y-18412000D01*
X9437571Y-18164381D02*
X9456619Y-18164381D01*
X9475666Y-18173905D01*
X9485190Y-18183429D01*
X9494714Y-18202476D01*
X9504238Y-18240572D01*
X9504238Y-18288191D01*
X9494714Y-18326286D01*
X9485190Y-18345334D01*
X9475666Y-18354857D01*
X9456619Y-18364381D01*
X9437571Y-18364381D01*
X9418524Y-18354857D01*
X9409000Y-18345334D01*
X9399476Y-18326286D01*
X9389952Y-18288191D01*
X9389952Y-18240572D01*
X9399476Y-18202476D01*
X9409000Y-18183429D01*
X9418524Y-18173905D01*
X9437571Y-18164381D01*
X9589952Y-18345334D02*
X9599476Y-18354857D01*
X9589952Y-18364381D01*
X9580428Y-18354857D01*
X9589952Y-18345334D01*
X9589952Y-18364381D01*
X9723285Y-18164381D02*
X9742333Y-18164381D01*
X9761381Y-18173905D01*
X9770905Y-18183429D01*
X9780428Y-18202476D01*
X9789952Y-18240572D01*
X9789952Y-18288191D01*
X9780428Y-18326286D01*
X9770905Y-18345334D01*
X9761381Y-18354857D01*
X9742333Y-18364381D01*
X9723285Y-18364381D01*
X9704238Y-18354857D01*
X9694714Y-18345334D01*
X9685190Y-18326286D01*
X9675666Y-18288191D01*
X9675666Y-18240572D01*
X9685190Y-18202476D01*
X9694714Y-18183429D01*
X9704238Y-18173905D01*
X9723285Y-18164381D01*
X9885190Y-18364381D02*
X9923285Y-18364381D01*
X9942333Y-18354857D01*
X9951857Y-18345334D01*
X9970905Y-18316762D01*
X9980428Y-18278667D01*
X9980428Y-18202476D01*
X9970905Y-18183429D01*
X9961381Y-18173905D01*
X9942333Y-18164381D01*
X9904238Y-18164381D01*
X9885190Y-18173905D01*
X9875666Y-18183429D01*
X9866143Y-18202476D01*
X9866143Y-18250095D01*
X9875666Y-18269143D01*
X9885190Y-18278667D01*
X9904238Y-18288191D01*
X9942333Y-18288191D01*
X9961381Y-18278667D01*
X9970905Y-18269143D01*
X9980428Y-18250095D01*
X10094714Y-18250095D02*
X10075666Y-18240572D01*
X10066143Y-18231048D01*
X10056619Y-18212000D01*
X10056619Y-18202476D01*
X10066143Y-18183429D01*
X10075666Y-18173905D01*
X10094714Y-18164381D01*
X10132809Y-18164381D01*
X10151857Y-18173905D01*
X10161381Y-18183429D01*
X10170905Y-18202476D01*
X10170905Y-18212000D01*
X10161381Y-18231048D01*
X10151857Y-18240572D01*
X10132809Y-18250095D01*
X10094714Y-18250095D01*
X10075666Y-18259619D01*
X10066143Y-18269143D01*
X10056619Y-18288191D01*
X10056619Y-18326286D01*
X10066143Y-18345334D01*
X10075666Y-18354857D01*
X10094714Y-18364381D01*
X10132809Y-18364381D01*
X10151857Y-18354857D01*
X10161381Y-18345334D01*
X10170905Y-18326286D01*
X10170905Y-18288191D01*
X10161381Y-18269143D01*
X10151857Y-18259619D01*
X10132809Y-18250095D01*
X10342333Y-18231048D02*
X10342333Y-18364381D01*
X10294714Y-18154857D02*
X10247095Y-18297715D01*
X10370905Y-18297715D01*
X10437571Y-18164381D02*
X10437571Y-18202476D01*
X10513762Y-18164381D02*
X10513762Y-18202476D01*
X10809000Y-18440572D02*
X10799476Y-18431048D01*
X10780428Y-18402476D01*
X10770905Y-18383429D01*
X10761381Y-18354857D01*
X10751857Y-18307238D01*
X10751857Y-18269143D01*
X10761381Y-18221524D01*
X10770905Y-18192953D01*
X10780428Y-18173905D01*
X10799476Y-18145334D01*
X10809000Y-18135810D01*
X10970905Y-18231048D02*
X10970905Y-18364381D01*
X10923285Y-18154857D02*
X10875666Y-18297715D01*
X10999476Y-18297715D01*
X11228047Y-18364381D02*
X11228047Y-18164381D01*
X11313762Y-18364381D02*
X11313762Y-18259619D01*
X11304238Y-18240572D01*
X11285190Y-18231048D01*
X11256619Y-18231048D01*
X11237571Y-18240572D01*
X11228047Y-18250095D01*
X11437571Y-18364381D02*
X11418523Y-18354857D01*
X11409000Y-18345334D01*
X11399476Y-18326286D01*
X11399476Y-18269143D01*
X11409000Y-18250095D01*
X11418523Y-18240572D01*
X11437571Y-18231048D01*
X11466143Y-18231048D01*
X11485190Y-18240572D01*
X11494714Y-18250095D01*
X11504238Y-18269143D01*
X11504238Y-18326286D01*
X11494714Y-18345334D01*
X11485190Y-18354857D01*
X11466143Y-18364381D01*
X11437571Y-18364381D01*
X11618523Y-18364381D02*
X11599476Y-18354857D01*
X11589952Y-18335810D01*
X11589952Y-18164381D01*
X11770904Y-18354857D02*
X11751857Y-18364381D01*
X11713762Y-18364381D01*
X11694714Y-18354857D01*
X11685190Y-18335810D01*
X11685190Y-18259619D01*
X11694714Y-18240572D01*
X11713762Y-18231048D01*
X11751857Y-18231048D01*
X11770904Y-18240572D01*
X11780428Y-18259619D01*
X11780428Y-18278667D01*
X11685190Y-18297715D01*
X11856619Y-18354857D02*
X11875666Y-18364381D01*
X11913762Y-18364381D01*
X11932809Y-18354857D01*
X11942333Y-18335810D01*
X11942333Y-18326286D01*
X11932809Y-18307238D01*
X11913762Y-18297715D01*
X11885190Y-18297715D01*
X11866143Y-18288191D01*
X11856619Y-18269143D01*
X11856619Y-18259619D01*
X11866143Y-18240572D01*
X11885190Y-18231048D01*
X11913762Y-18231048D01*
X11932809Y-18240572D01*
X12009000Y-18440572D02*
X12018523Y-18431048D01*
X12037571Y-18402476D01*
X12047095Y-18383429D01*
X12056619Y-18354857D01*
X12066143Y-18307238D01*
X12066143Y-18269143D01*
X12056619Y-18221524D01*
X12047095Y-18192953D01*
X12037571Y-18173905D01*
X12018523Y-18145334D01*
X12009000Y-18135810D01*
M02*
